<?xml version="1.0" encoding="UTF-8"?>
<svg width="1357px" height="654px" viewBox="0 0 1357 654" version="1.1" xmlns="http://www.w3.org/2000/svg" xmlns:xlink="http://www.w3.org/1999/xlink">
    <!-- Generator: sketchtool 53 (72520) - https://sketchapp.com -->
    <title>D349C048-FF69-4C8D-B979-8E0715B71DCE</title>
    <desc>Created with sketchtool.</desc>
    <defs>
        <polygon id="path-1" points="3.11111111 0.633777778 17.8168 0.633777778 17.8168 21.0782222 3.11111111 21.0782222"></polygon>
        <polygon id="path-3" points="0.985722547 2.92355556 21.430167 2.92355556 21.430167 17.9624889 0.985722547 17.9624889"></polygon>
        <polygon id="path-5" points="0.0306666667 2.91961714 20.4751111 2.91961714 20.4751111 17.8888889 0.0306666667 17.8888889"></polygon>
        <polygon id="path-7" points="0.481833333 0.246117647 145.1135 0.246117647 145.1135 40.4615725 0.481833333 40.4615725"></polygon>
        <polygon id="path-9" points="0.0967692308 0.368 128.522978 0.368 128.522978 20.2461333 0.0967692308 20.2461333"></polygon>
        <polygon id="path-11" points="0.175374074 0.99682963 42.2014852 0.99682963 42.2014852 68 0.175374074 68"></polygon>
        <polygon id="path-13" points="3.78222222 0.2816 18.4817778 0.2816 18.4817778 20.7260444 3.78222222 20.7260444"></polygon>
        <polygon id="path-15" points="0.165066667 2.84177778 20.6095111 2.84177778 20.6095111 17.8888889 0.165066667 17.8888889"></polygon>
        <polygon id="path-17" points="0.568355556 2.92355556 21.0128 2.92355556 21.0128 17.8745778 0.568355556 17.8745778"></polygon>
        <polygon id="path-19" points="0.11471978 0.547911111 128.540929 0.547911111 128.540929 20.4444444 0.11471978 20.4444444"></polygon>
        <polygon id="path-21" points="0.457507407 0.511371429 42.5032111 0.511371429 42.5032111 68.3914286 0.457507407 68.3914286"></polygon>
    </defs>
    <g id="Page-1" stroke="none" stroke-width="1" fill="none" fill-rule="evenodd" opacity="0.12">
        <g id="Facciamo-rete" transform="translate(-3.000000, -314.000000)">
            <g id="Group-600" transform="translate(0.000000, 312.000000)">
                <path d="M812.93,33.46 C807.09,33.54 807.21,42.62 813.07,42.54 C818.91,42.46 818.79,33.38 812.93,33.46" id="Fill-1" fill="#145491"></path>
                <path d="M708.94,71.46 C703.08,71.54 703.22,80.62 709.06,80.54 C714.92,80.46 714.78,71.38 708.94,71.46" id="Fill-3" fill="#145491"></path>
                <path d="M708.93,25.46 C703.09,25.54 703.21,34.62 709.07,34.54 C714.91,34.46 714.79,25.38 708.93,25.46" id="Fill-5" fill="#145491"></path>
                <path d="M609.93,20.46 C604.09,20.54 604.21,29.62 610.07,29.54 C615.91,29.46 615.79,20.38 609.93,20.46" id="Fill-7" fill="#145491"></path>
                <path d="M442.93621,78.46 C437.09621,78.54 437.21621,87.62 443.05621,87.54 C448.91621,87.46 448.77621,78.38 442.93621,78.46" id="Fill-9" fill="#145491"></path>
                <path d="M468.93621,28.46 C463.09621,28.54 463.21621,37.62 469.05621,37.54 C474.91621,37.46 474.77621,28.38 468.93621,28.46" id="Fill-11" fill="#145491"></path>
                <path d="M336.93621,38.46 C331.09621,38.54 331.21621,47.62 337.05621,47.54 C342.91621,47.46 342.77621,38.38 336.93621,38.46" id="Fill-13" fill="#145491"></path>
                <path d="M270.93621,154.46 C265.09621,154.54 265.21621,163.62 271.05621,163.54 C276.91621,163.46 276.77621,154.38 270.93621,154.46" id="Fill-15" fill="#145491"></path>
                <path d="M192.933706,152.46 C187.093706,152.54 187.213706,161.62 193.073706,161.54 C198.913706,161.46 198.773706,152.38 192.933706,152.46" id="Fill-17" fill="#145491"></path>
                <path d="M149.93621,298.46 C144.09621,298.54 144.21621,307.62 150.05621,307.54 C155.91621,307.46 155.77621,298.38 149.93621,298.46" id="Fill-19" fill="#145491"></path>
                <path d="M245.93,301.46 C240.09,301.54 240.21,310.62 246.07,310.54 C251.91,310.46 251.79,301.38 245.93,301.46" id="Fill-21" fill="#145491"></path>
                <path d="M374.93,334.460147 C369.09,334.540147 369.21,343.620147 375.07,343.540147 C380.91,343.440147 380.79,334.360147 374.93,334.460147" id="Fill-23" fill="#145491"></path>
                <path d="M318.93621,448.460147 C313.09621,448.540147 313.21621,457.620147 319.05621,457.540147 C324.91621,457.440147 324.77621,448.360147 318.93621,448.460147" id="Fill-25" fill="#145491"></path>
                <path d="M197.933706,455.459853 C192.093706,455.559853 192.213706,464.639853 198.073706,464.539853 C203.913706,464.459853 203.773706,455.379853 197.933706,455.459853" id="Fill-27" fill="#145491"></path>
                <path d="M103.93,481.460147 C98.09,481.540147 98.21,490.620147 104.07,490.540147 C109.91,490.440147 109.79,481.360147 103.93,481.460147" id="Fill-29" fill="#145491"></path>
                <path d="M86.9337062,374.460147 C81.0937062,374.540147 81.2137062,383.620147 87.0737062,383.540147 C92.9137062,383.440147 92.7737062,374.360147 86.9337062,374.460147" id="Fill-31" fill="#145491"></path>
                <path d="M53.9362103,293.46 C48.0962103,293.54 48.2162103,302.62 54.0562103,302.54 C59.9162103,302.46 59.7762103,293.38 53.9362103,293.46" id="Fill-33" fill="#145491"></path>
                <path d="M37.93,167.46 C32.09,167.54 32.21,176.62 38.07,176.54 C43.91,176.46 43.79,167.38 37.93,167.46" id="Fill-35" fill="#145491"></path>
                <path d="M129.93621,106.46 C124.09621,106.54 124.21621,115.62 130.05621,115.54 C135.91621,115.46 135.77621,106.38 129.93621,106.46" id="Fill-37" fill="#145491"></path>
                <path d="M65.93,15.46 C60.09,15.54 60.21,24.62 66.07,24.54 C71.91,24.46 71.79,15.38 65.93,15.46" id="Fill-39" fill="#145491"></path>
                <g id="Group-43" transform="translate(0.000000, 68.000000)">
                    <mask id="mask-2" fill="white">
                        <use xlink:href="#path-1"></use>
                    </mask>
                    <g id="Clip-42"></g>
                    <path d="M7.52302222,6.21511111 C1.55324444,6.29688889 1.67591111,15.5786667 7.66613333,15.4968889 C13.6359111,15.4151111 13.5132444,6.13333333 7.52302222,6.21511111" id="Fill-41" fill="#FEFEFE" mask="url(#mask-2)"></path>
                </g>
                <g id="Group-46" transform="translate(183.000000, 0.000000)">
                    <mask id="mask-4" fill="white">
                        <use xlink:href="#path-3"></use>
                    </mask>
                    <g id="Clip-45"></g>
                    <path d="M11.1401778,3.09937778 C5.1704,3.18115556 5.29306667,12.4629333 11.2832889,12.3811556 C17.2530667,12.2993778 17.1099556,3.0176 11.1401778,3.09937778" id="Fill-44" fill="#FEFEFE" mask="url(#mask-4)"></path>
                </g>
                <path d="M182.93,544.459853 C177.09,544.559853 177.21,553.639853 183.07,553.539853 C188.91,553.459853 188.79,544.379853 182.93,544.459853" id="Fill-47" fill="#145491"></path>
                <path d="M70.9362103,579.459853 C65.0962103,579.559853 65.2162103,588.639853 71.0562103,588.539853 C76.9162103,588.459853 76.7762103,579.379853 70.9362103,579.459853" id="Fill-49" fill="#145491"></path>
                <g id="Group-53" transform="translate(21.000000, 637.000000)">
                    <mask id="mask-6" fill="white">
                        <use xlink:href="#path-5"></use>
                    </mask>
                    <g id="Clip-52"></g>
                    <path d="M10.1813333,8.5008 C4.21155556,8.60302222 4.33422222,17.8848 10.3244444,17.7825778 C16.2942222,17.7008 16.1715556,8.41902222 10.1813333,8.5008" id="Fill-51" fill="#FEFEFE" mask="url(#mask-6)"></path>
                </g>
                <path d="M255.93621,620.459853 C250.09621,620.559853 250.21621,629.639853 256.05621,629.539853 C261.91621,629.459853 261.77621,620.379853 255.93621,620.459853" id="Fill-54" fill="#145491"></path>
                <path d="M252.933706,518.46 C247.093706,518.54 247.213706,527.62 253.073706,527.54 C258.913706,527.46 258.773706,518.38 252.933706,518.46" id="Fill-56" fill="#145491"></path>
                <path d="M371.93,569.459853 C366.09,569.559853 366.21,578.639853 372.07,578.539853 C377.91,578.459853 377.79,569.379853 371.93,569.459853" id="Fill-58" fill="#145491"></path>
                <path d="M336.933706,622.460147 C331.093706,622.540147 331.213706,631.620147 337.073706,631.540147 C342.913706,631.440147 342.773706,622.360147 336.933706,622.460147" id="Fill-60" fill="#145491"></path>
                <path d="M493.93,602.460147 C488.09,602.540147 488.21,611.620147 494.07,611.540147 C499.91,611.440147 499.79,602.360147 493.93,602.460147" id="Fill-62" fill="#145491"></path>
                <path d="M432.93621,536.460147 C427.09621,536.540147 427.21621,545.620147 433.05621,545.540147 C438.91621,545.440147 438.77621,536.360147 432.93621,536.460147" id="Fill-64" fill="#145491"></path>
                <path d="M379.933706,435.46 C374.093706,435.54 374.213706,444.62 380.073706,444.54 C385.913706,444.46 385.773706,435.38 379.933706,435.46" id="Fill-66" fill="#145491"></path>
                <path d="M503.933706,405.460147 C498.093706,405.540147 498.213706,414.620147 504.073706,414.540147 C509.913706,414.440147 509.773706,405.360147 503.933706,405.460147" id="Fill-68" fill="#145491"></path>
                <path d="M490.93,503.460147 C485.09,503.540147 485.21,512.620147 491.07,512.540147 C496.91,512.440147 496.79,503.360147 490.93,503.460147" id="Fill-70" fill="#145491"></path>
                <path d="M584.93,529.459853 C579.09,529.559853 579.21,538.639853 585.07,538.539853 C590.91,538.459853 590.79,529.379853 584.93,529.459853" id="Fill-72" fill="#145491"></path>
                <path d="M579.933706,612.460147 C574.093706,612.540147 574.213706,621.620147 580.073706,621.540147 C585.913706,621.440147 585.773706,612.360147 579.933706,612.460147" id="Fill-74" fill="#145491"></path>
                <path d="M710.93,597.46 C705.09,597.54 705.21,606.62 711.07,606.54 C716.91,606.46 716.79,597.38 710.93,597.46" id="Fill-76" fill="#145491"></path>
                <path d="M637.93621,443.46 C632.09621,443.54 632.21621,452.62 638.05621,452.54 C643.91621,452.46 643.77621,443.38 637.93621,443.46" id="Fill-78" fill="#145491"></path>
                <path d="M571.933706,374.459853 C566.093706,374.559853 566.213706,383.639853 572.073706,383.539853 C577.913706,383.459853 577.773706,374.379853 571.933706,374.459853" id="Fill-80" fill="#145491"></path>
                <path d="M483.93621,301.46 C478.09621,301.54 478.21621,310.62 484.05621,310.54 C489.91621,310.46 489.77621,301.38 483.93621,301.46" id="Fill-82" fill="#145491"></path>
                <path d="M384.933706,248.46 C379.093706,248.54 379.213706,257.62 385.073706,257.54 C390.913706,257.46 390.773706,248.38 384.933706,248.46" id="Fill-84" fill="#145491"></path>
                <path d="M399.933706,172.46 C394.093706,172.54 394.213706,181.62 400.073706,181.54 C405.913706,181.46 405.773706,172.38 399.933706,172.46" id="Fill-86" fill="#145491"></path>
                <path d="M495.933706,149.46 C490.093706,149.54 490.213706,158.62 496.073706,158.54 C501.913706,158.46 501.773706,149.38 495.933706,149.46" id="Fill-88" fill="#145491"></path>
                <path d="M323.93,96.46 C318.09,96.54 318.21,105.62 324.07,105.54 C329.91,105.46 329.79,96.38 323.93,96.46" id="Fill-90" fill="#145491"></path>
                <path d="M634.933706,225.46 C629.093706,225.54 629.213706,234.62 635.073706,234.54 C640.913706,234.46 640.773706,225.38 634.933706,225.46" id="Fill-92" fill="#145491"></path>
                <path d="M541.93,266.46 C536.09,266.54 536.21,275.62 542.07,275.54 C547.91,275.46 547.79,266.38 541.93,266.46" id="Fill-94" fill="#145491"></path>
                <path d="M695.93,331.459853 C690.09,331.559853 690.21,340.639853 696.07,340.539853 C701.91,340.459853 701.79,331.379853 695.93,331.459853" id="Fill-96" fill="#145491"></path>
                <path d="M756.937499,169.46 C751.077499,169.54 751.217499,178.62 757.077499,178.54 C762.917499,178.46 762.777499,169.38 756.937499,169.46" id="Fill-98" fill="#145491"></path>
                <polygon id="Fill-100" fill="#145491" points="585.159589 534 717 601.681499 716.840411 602 585 534.338407"></polygon>
                <polygon id="Fill-102" fill="#145491" points="584.62 536 584.98 536.019563 579.38 622 579.02 621.980437"></polygon>
                <polygon id="Fill-104" fill="#145491" points="637.689616 442 638 442.179618 587.310384 536 587 535.820382"></polygon>
                <polygon id="Fill-106" fill="#145491" points="489.27 513 493.11 606.980409 492.75 607 488.89 513.019591"></polygon>
                <polygon id="Fill-108" fill="#145491" points="491.27457 513 580 616.764039 579.745042 617 491 513.235961"></polygon>
                <polygon id="Fill-110" fill="#145491" points="504.300297 412 585 537.802167 584.679684 538 504 412.197833"></polygon>
                <polygon id="Fill-112" fill="#145491" points="571.704135 379 572 379.196407 489.315589 508 489 507.823234"></polygon>
                <polygon id="Fill-114" fill="#145491" points="698.677035 341 699 341.176344 638.322965 450 638 449.862844"></polygon>
                <polygon id="Fill-116" fill="#145491" points="572.259136 379 638 446.744509 637.740864 447 572 379.255491"></polygon>
                <polygon id="Fill-118" fill="#145491" points="637.657614 235 638 235.136548 572.342386 379 572 378.863452"></polygon>
                <polygon id="Fill-120" fill="#145491" points="573.37 379 586.99 532.980496 586.63 533 573.01 379.039007"></polygon>
                <polygon id="Fill-122" fill="#145491" points="541.63617 268 542 268.099482 504.343617 410 504 409.920415"></polygon>
                <polygon id="Fill-124" fill="#145491" points="483.236597 301 572 378.725145 571.763403 379 483 301.274855"></polygon>
                <polygon id="Fill-126" fill="#145491" points="503.685144 410 504 410.176286 433.314856 541 433 540.843301"></polygon>
                <polygon id="Fill-128" fill="#145491" points="380.196467 435 489 507.726226 488.803533 508 380 435.312885"></polygon>
                <polygon id="Fill-130" fill="#145491" points="372.179321 339 504 409.701764 503.820679 410 372 339.338001"></polygon>
                <polygon id="Fill-132" fill="#145491" points="383.178867 250 484 310.687179 483.801259 311 383 250.312821"></polygon>
                <polygon id="Fill-134" fill="#145491" points="498.702875 157 499 157.196502 375.297125 339 375 338.783848"></polygon>
                <polygon id="Fill-136" fill="#145491" points="497.61 157 497.97 157.019702 484.39 301 484.03 300.960597"></polygon>
                <polygon id="Fill-138" fill="#145491" points="708.724876 76 709 76.2366744 542.275124 271 542 270.763326"></polygon>
                <polygon id="Fill-140" fill="#145491" points="610.345576 30 633 229.960684 632.654424 230 610 30.0393159"></polygon>
                <polygon id="Fill-142" fill="#145491" points="708.48 30 708.86 30 709.52 76 709.16 76"></polygon>
                <polygon id="Fill-144" fill="#145491" points="751.841095 174 752 174.309927 633.158905 230 633 229.670702"></polygon>
                <polygon id="Fill-146" fill="#145491" points="812.881075 33 813 33.3380429 709.138746 71 709 70.6619571"></polygon>
                <polygon id="Fill-148" fill="#145491" points="709.331842 71 757 176.844461 756.687678 177 709 71.1360968"></polygon>
                <polygon id="Fill-150" fill="#145491" points="610.179782 20 709 75.6770007 708.800242 76 610 20.3229993"></polygon>
                <polygon id="Fill-152" fill="#145491" points="609.744262 25 610 25.236566 496.27541 149 496 148.763434"></polygon>
                <polygon id="Fill-154" fill="#145491" points="468.274413 28 635 224.745453 634.725587 225 468 28.2349667"></polygon>
                <polygon id="Fill-156" fill="#145491" points="496.346324 149 542 269.86194 541.653676 270 496 149.118337"></polygon>
                <polygon id="Fill-158" fill="#145491" points="465.675882 30 466 30.1204089 446.324118 83 446 82.8595229"></polygon>
                <polygon id="Fill-160" fill="#145491" points="443.277799 83 496 148.781193 495.722201 149 443 83.2188065"></polygon>
                <polygon id="Fill-162" fill="#145491" points="445.685066 83 446 83.159796 400.314934 177 400 176.820229"></polygon>
                <polygon id="Fill-164" fill="#145491" points="324.336798 101 385 257.861587 384.663202 258 324 101.11864"></polygon>
                <polygon id="Fill-166" fill="#145491" points="495.745841 149 496 149.277176 382.234608 255 382 254.742622"></polygon>
                <polygon id="Fill-168" fill="#145491" points="400.313874 172 483 305.823167 482.705743 306 400 172.176833"></polygon>
                <polygon id="Fill-170" fill="#145491" points="246.098443 301 375 340.683794 374.901557 341 246 301.355731"></polygon>
                <polygon id="Fill-172" fill="#145491" points="266.216896 159 382 254.721912 381.763386 255 266 159.278088"></polygon>
                <polygon id="Fill-174" fill="#145491" points="382.882117 255 383 255.329263 246.117883 301 246 300.670737"></polygon>
                <polygon id="Fill-176" fill="#145491" points="337.330255 43 398 176.842469 397.669745 177 337 43.1575312"></polygon>
                <polygon id="Fill-178" fill="#145491" points="442.960887 88.71 443 89.07 324.019556 103.29 324 102.93"></polygon>
                <polygon id="Fill-180" fill="#145491" points="193.339488 157 246 300.881806 245.660512 301 193 157.118194"></polygon>
                <polygon id="Fill-182" fill="#145491" points="243.335497 306 319 452.842063 318.684238 453 243 306.157937"></polygon>
                <polygon id="Fill-184" fill="#145491" points="374.673077 339 375 339.156338 322.307692 450 322 449.843662"></polygon>
                <polygon id="Fill-186" fill="#145491" points="379.920882 438.92 380 439.3 319.079118 451.08 319 450.74"></polygon>
                <polygon id="Fill-188" fill="#145491" points="374.64 344 379.72 439.980235 379.36 440 374.28 344.019765"></polygon>
                <polygon id="Fill-190" fill="#145491" points="433.256884 541 494 606.765194 493.743116 607 433 541.254373"></polygon>
                <polygon id="Fill-192" fill="#145491" points="432.821521 541 433 541.327687 372.158648 574 372 573.691589"></polygon>
                <polygon id="Fill-194" fill="#145491" points="254.293979 521 337 626.761753 336.706021 627 254 521.238247"></polygon>
                <polygon id="Fill-196" fill="#145491" points="321.742574 453 322 453.25385 254.257426 524 254 523.765677"></polygon>
                <polygon id="Fill-198" fill="#145491" points="374.802505 339 375 339.293537 200.217244 458 200 457.686894"></polygon>
                <polygon id="Fill-200" fill="#145491" points="484.337079 301 504 409.940578 503.662921 410 484 301.059422"></polygon>
                <polygon id="Fill-202" fill="#145491" points="632.706907 230 633 230.21637 504.293093 410 504 409.8033"></polygon>
                <polygon id="Fill-204" fill="#145491" points="503.921007 410 504 410.349515 380.078993 440 380 439.650485"></polygon>
                <polygon id="Fill-206" fill="#145491" points="380.65 440 381.01 440.019562 373.35 574 372.99 573.980438"></polygon>
                <polygon id="Fill-208" fill="#145491" points="322.213798 455 433 545.702809 432.766766 546 322 455.277379"></polygon>
                <polygon id="Fill-210" fill="#145491" points="266.299067 159 375 340.82184 374.700933 341 266 159.17816"></polygon>
                <polygon id="Fill-212" fill="#145491" points="323.744493 106 324 106.27728 266.255507 159 266 158.742526"></polygon>
                <polygon id="Fill-214" fill="#145491" points="193.019857 155.31 271 162.33 270.960285 162.69 193 155.69"></polygon>
                <g id="Group-218" transform="translate(193.000000, 2.000000)">
                    <mask id="mask-8" fill="white">
                        <use xlink:href="#path-7"></use>
                    </mask>
                    <g id="Clip-217"></g>
                    <polygon id="Fill-216" fill="#FEFEFE" mask="url(#mask-8)" points="0.580396552 0.242239216 145.1135 40.1319059 144.995224 40.4615725 0.481833333 0.591298039"></polygon>
                </g>
                <polygon id="Fill-219" fill="#145491" points="192.691554 12 193 12.1757416 130.289168 116 130 115.824258"></polygon>
                <polygon id="Fill-221" fill="#145491" points="193.316832 10 271 153.822684 270.683168 154 193 10.1773156"></polygon>
                <polygon id="Fill-223" fill="#145491" points="323.980273 102.06 324 102.42 129.019727 115.94 129 115.58"></polygon>
                <polygon id="Fill-225" fill="#145491" points="192.89 3 193.27 3 193.09 152 192.73 151.980474"></polygon>
                <polygon id="Fill-227" fill="#145491" points="265.63716 159 266 159.039612 243.382997 306 243 305.960388"></polygon>
                <polygon id="Fill-229" fill="#145491" points="150 302.16 244 303.48 244 303.84 150 302.52"></polygon>
                <polygon id="Fill-231" fill="#145491" points="152.326923 304 200 457.883068 199.653846 458 152 304.097444"></polygon>
                <polygon id="Fill-233" fill="#145491" points="198.25 460 198.61 460.078324 181.73 546 181.39 545.921676"></polygon>
                <polygon id="Fill-235" fill="#145491" points="102.079115 485 254 522.660358 253.920885 523 102 485.359621"></polygon>
                <polygon id="Fill-237" fill="#145491" points="371.702039 574 372 574.196078 334.297961 627 334 626.784314"></polygon>
                <polygon id="Fill-239" fill="#145491" points="254.138286 521 375 573.680121 374.861714 574 254 521.339872"></polygon>
                <polygon id="Fill-241" fill="#145491" points="318.664674 455 319 455.137948 253.335326 619 253 618.881759"></polygon>
                <polygon id="Fill-243" fill="#145491" points="150.177256 303 380 439.70342 379.822744 440 150 303.316352"></polygon>
                <polygon id="Fill-245" fill="#145491" points="265.724325 159 266 159.234591 150.275675 303 150 302.765409"></polygon>
                <polygon id="Fill-247" fill="#145491" points="192.744196 157 193 157.257201 54.2558041 304 54 303.742799"></polygon>
                <polygon id="Fill-249" fill="#145491" points="152.657853 309 153 309.098115 102.342147 486 102 485.901885"></polygon>
                <polygon id="Fill-251" fill="#145491" points="54.3273046 298 87 378.883453 86.6726954 379 54 298.135971"></polygon>
                <polygon id="Fill-253" fill="#145491" points="39.2734952 174 150 302.763447 149.74604 303 39 174.236553"></polygon>
                <polygon id="Fill-255" fill="#145491" points="192.980309 156.87 193 157.25 39.0196906 167.13 39 166.77"></polygon>
                <polygon id="Fill-257" fill="#145491" points="66.2950359 20 129 110.805306 128.685295 111 66 20.1946941"></polygon>
                <polygon id="Fill-259" fill="#145491" points="8.07802676 84 129 113.640719 128.902467 114 8 84.3592814"></polygon>
                <polygon id="Fill-261" fill="#145491" points="129.661248 111 130 111.138343 54.338752 298 54 297.88142"></polygon>
                <polygon id="Fill-263" fill="#145491" points="130.212707 114 193 161.731951 192.767956 162 130 114.287196"></polygon>
                <g id="Group-267" transform="translate(66.000000, 2.000000)">
                    <mask id="mask-10" fill="white">
                        <use xlink:href="#path-9"></use>
                    </mask>
                    <g id="Clip-266"></g>
                    <polygon id="Fill-265" fill="#FEFEFE" mask="url(#mask-10)" points="128.463143 0.353688889 128.522978 0.721688889 0.156604396 19.6941333 0.0967692308 19.3261333"></polygon>
                </g>
                <polygon id="Fill-268" fill="#145491" points="65.7377646 20 66 20.2566594 5.26223545 83 5 82.7630837"></polygon>
                <polygon id="Fill-270" fill="#145491" points="6.35795455 78 41 173.883188 40.6420455 174 6 78.116812"></polygon>
                <polygon id="Fill-272" fill="#145491" points="38.6 174 53.76 297.960282 53.4 298 38.24 174.039718"></polygon>
                <polygon id="Fill-274" fill="#145491" points="149.726681 303 150 303.215242 87.2733189 379 87 378.765191"></polygon>
                <polygon id="Fill-276" fill="#145491" points="245.703419 306 246 306.215498 102.296581 486 102 485.764911"></polygon>
                <polygon id="Fill-278" fill="#145491" points="87.2164126 374 198 454.7 197.803261 455 87 374.3"></polygon>
                <polygon id="Fill-280" fill="#145491" points="318.980395 445.88 319 446.24 198.019605 454.12 198 453.76"></polygon>
                <polygon id="Fill-282" fill="#145491" points="182.88254 549 183 549.345629 72.1174603 587 72 586.673573"></polygon>
                <polygon id="Fill-284" fill="#145491" points="200.27451 460 253 522.766811 252.745098 523 200 460.233189"></polygon>
                <polygon id="Fill-286" fill="#145491" points="194.744086 460 195 460.237387 71.2755993 589 71 588.742831"></polygon>
                <polygon id="Fill-288" fill="#145491" points="101.675366 485 102 485.118943 72.3437301 584 72 583.900881"></polygon>
                <polygon id="Fill-290" fill="#145491" points="86.6495132 379 87 379.078648 31.3504868 650 31 649.941014"></polygon>
                <polygon id="Fill-292" fill="#145491" points="250.960774 625 251 625.365217 31.0392262 653 31 652.614493"></polygon>
                <polygon id="Fill-294" fill="#145491" points="253.859485 523 254 523.363374 183.140515 551 183 550.656813"></polygon>
                <polygon id="Fill-296" fill="#145491" points="183.251208 549 251 624.760378 250.748792 625 183 549.239622"></polygon>
                <g id="Group-300" transform="translate(30.000000, 587.000000)">
                    <mask id="mask-12" fill="white">
                        <use xlink:href="#path-11"></use>
                    </mask>
                    <g id="Clip-299"></g>
                    <polygon id="Fill-298" fill="#FEFEFE" mask="url(#mask-12)" points="41.9075963 0.99682963 42.2014852 1.19201481 0.488855556 68.0039037 0.175374074 67.828237"></polygon>
                </g>
                <path d="M552.07,624.540147 C557.91,624.440147 557.79,615.360147 551.93,615.460147 C546.09,615.540147 546.21,624.620147 552.07,624.540147" id="Fill-301" fill="#145491"></path>
                <path d="M653.07,586.54 C658.91,586.46 658.79,577.38 652.93,577.46 C647.09,577.54 647.21,586.62 653.07,586.54" id="Fill-303" fill="#145491"></path>
                <path d="M656.06379,631.539853 C661.90379,631.459853 661.78379,622.379853 655.94379,622.459853 C650.08379,622.559853 650.22379,631.639853 656.06379,631.539853" id="Fill-305" fill="#145491"></path>
                <path d="M752.07,636.540147 C757.91,636.440147 757.79,627.360147 751.93,627.460147 C746.09,627.540147 746.21,636.620147 752.07,636.540147" id="Fill-307" fill="#145491"></path>
                <path d="M919.073706,578.540147 C924.913706,578.440147 924.773706,569.360147 918.933706,569.460147 C913.093706,569.540147 913.213706,578.620147 919.073706,578.540147" id="Fill-309" fill="#145491"></path>
                <path d="M893.07,629.540147 C898.91,629.440147 898.79,620.360147 892.93,620.460147 C887.09,620.540147 887.21,629.620147 893.07,629.540147" id="Fill-311" fill="#145491"></path>
                <path d="M1025.07,618.540147 C1030.91,618.440147 1030.79,609.360147 1024.93,609.460147 C1019.09,609.540147 1019.21,618.620147 1025.07,618.540147" id="Fill-313" fill="#145491"></path>
                <path d="M1093.07,502.540147 C1098.91,502.440147 1098.79,493.360147 1092.93,493.460147 C1087.09,493.540147 1087.21,502.620147 1093.07,502.540147" id="Fill-315" fill="#145491"></path>
                <path d="M1169.06,505.539854 C1174.92,505.459854 1174.78,496.379854 1168.94,496.459854 C1163.08,496.539854 1163.22,505.639854 1169.06,505.539854" id="Fill-317" fill="#145491"></path>
                <path d="M1212.07,358.539853 C1217.91,358.459853 1217.79,349.379853 1211.93,349.459853 C1206.09,349.559853 1206.21,358.639853 1212.07,358.539853" id="Fill-319" fill="#145491"></path>
                <path d="M1119.07,355.540147 C1124.91,355.440147 1124.79,346.360147 1118.93,346.460147 C1113.09,346.540147 1113.21,355.620147 1119.07,355.540147" id="Fill-321" fill="#145491"></path>
                <path d="M987.077499,323.54 C992.917499,323.46 992.777499,314.38 986.937499,314.46 C981.077499,314.54 981.217499,323.62 987.077499,323.54" id="Fill-323" fill="#145491"></path>
                <path d="M1043.06629,211.54 C1048.90629,211.46 1048.78629,202.38 1042.92629,202.46 C1037.08629,202.54 1037.22629,211.62 1043.06629,211.54" id="Fill-325" fill="#145491"></path>
                <path d="M1164.07371,201.54 C1169.91371,201.46 1169.77371,192.38 1163.93371,192.46 C1158.09371,192.54 1158.21371,201.62 1164.07371,201.54" id="Fill-327" fill="#145491"></path>
                <path d="M1260.06,176.54 C1265.92,176.46 1265.78,167.38 1259.94,167.46 C1254.08,167.54 1254.22,176.62 1260.06,176.54" id="Fill-329" fill="#145491"></path>
                <path d="M1275.07,282.54 C1280.91,282.46 1280.79,273.38 1274.93,273.46 C1269.09,273.54 1269.21,282.62 1275.07,282.54" id="Fill-331" fill="#145491"></path>
                <path d="M1308.06629,363.54 C1313.90629,363.46 1313.78629,354.38 1307.92629,354.46 C1302.08629,354.54 1302.22629,363.62 1308.06629,363.54" id="Fill-333" fill="#145491"></path>
                <path d="M1324.0625,490.540147 C1329.9225,490.440147 1329.7825,481.360147 1323.9225,481.460147 C1318.0825,481.540147 1318.2225,490.620147 1324.0625,490.540147" id="Fill-335" fill="#145491"></path>
                <path d="M1232.06629,550.540147 C1237.90629,550.440147 1237.78629,541.360147 1231.92629,541.460147 C1226.08629,541.540147 1226.22629,550.620147 1232.06629,550.540147" id="Fill-337" fill="#145491"></path>
                <path d="M1296.07,641.540147 C1301.91,641.440147 1301.79,632.360147 1295.93,632.460147 C1290.09,632.540147 1290.21,641.620147 1296.07,641.540147" id="Fill-339" fill="#145491"></path>
                <g id="Group-343" transform="translate(1341.000000, 568.000000)">
                    <mask id="mask-14" fill="white">
                        <use xlink:href="#path-13"></use>
                    </mask>
                    <g id="Clip-342"></g>
                    <path d="M14.076,15.1447111 C20.0457778,15.0629333 19.9231111,5.78115556 13.9328889,5.86293333 C7.96311111,5.94471111 8.08577778,15.2264889 14.076,15.1447111" id="Fill-341" fill="#FEFEFE" mask="url(#mask-14)"></path>
                </g>
                <g id="Group-346" transform="translate(1158.000000, 637.000000)">
                    <mask id="mask-16" fill="white">
                        <use xlink:href="#path-15"></use>
                    </mask>
                    <g id="Clip-345"></g>
                    <path d="M10.4588444,17.7048889 C16.4286222,17.6231111 16.3059556,8.34133333 10.3157333,8.42311111 C4.34595556,8.50488889 4.46862222,17.7866667 10.4588444,17.7048889" id="Fill-344" fill="#FEFEFE" mask="url(#mask-16)"></path>
                </g>
                <path d="M1179.07,113.54 C1184.91,113.46 1184.79,104.38 1178.93,104.46 C1173.09,104.54 1173.21,113.62 1179.07,113.54" id="Fill-347" fill="#145491"></path>
                <path d="M1291.07,77.54 C1296.91,77.46 1296.79,68.38 1290.93,68.46 C1285.09,68.54 1285.21,77.62 1291.07,77.54" id="Fill-349" fill="#145491"></path>
                <g id="Group-353" transform="translate(1321.000000, 0.000000)">
                    <mask id="mask-18" fill="white">
                        <use xlink:href="#path-17"></use>
                    </mask>
                    <g id="Clip-352"></g>
                    <path d="M10.8621333,12.2932444 C16.8319111,12.2114667 16.7092444,2.92968889 10.7190222,3.01146667 C4.74924444,3.09324444 4.87191111,12.3750222 10.8621333,12.2932444" id="Fill-351" fill="#FEFEFE" mask="url(#mask-18)"></path>
                </g>
                <path d="M1109.07,37.54 C1114.91,37.46 1114.79,28.38 1108.93,28.46 C1103.09,28.54 1103.21,37.62 1109.07,37.54" id="Fill-354" fill="#145491"></path>
                <path d="M1109.07,138.54 C1114.91,138.46 1114.79,129.38 1108.93,129.46 C1103.09,129.54 1103.21,138.62 1109.07,138.54" id="Fill-356" fill="#145491"></path>
                <path d="M990.07,87.54 C995.91,87.46 995.79,78.38 989.93,78.46 C984.09,78.54 984.21,87.62 990.07,87.54" id="Fill-358" fill="#145491"></path>
                <path d="M1028.0775,34.54 C1033.9175,34.46 1033.7775,25.38 1027.9375,25.46 C1022.0775,25.54 1022.2175,34.62 1028.0775,34.54" id="Fill-360" fill="#145491"></path>
                <path d="M868.066294,55.54 C873.906294,55.46 873.786294,46.38 867.926294,46.46 C862.086294,46.54 862.226294,55.62 868.066294,55.54" id="Fill-362" fill="#145491"></path>
                <path d="M929.073706,120.54 C934.913706,120.46 934.773706,111.38 928.933706,111.46 C923.093706,111.54 923.213706,120.62 929.073706,120.54" id="Fill-364" fill="#145491"></path>
                <path d="M982.06,221.54 C987.92,221.46 987.78,212.38 981.94,212.46 C976.08,212.54 976.22,221.62 982.06,221.54" id="Fill-366" fill="#145491"></path>
                <path d="M858.077499,252.54 C863.917499,252.46 863.777499,243.38 857.937499,243.46 C852.077499,243.54 852.217499,252.62 858.077499,252.54" id="Fill-368" fill="#145491"></path>
                <path d="M873.062501,153.54 C878.922501,153.46 878.782501,144.38 872.922501,144.46 C867.082501,144.54 867.222501,153.62 873.062501,153.54" id="Fill-370" fill="#145491"></path>
                <path d="M780.062501,128.54 C785.922501,128.46 785.782501,119.38 779.922501,119.46 C774.082501,119.54 774.222501,128.62 780.062501,128.54" id="Fill-372" fill="#145491"></path>
                <path d="M782.07,44.54 C787.91,44.46 787.79,35.38 781.93,35.46 C776.09,35.54 776.21,44.62 782.07,44.54" id="Fill-374" fill="#145491"></path>
                <path d="M651.06379,60.54 C656.90379,60.46 656.78379,51.38 650.94379,51.46 C645.08379,51.54 645.22379,60.62 651.06379,60.54" id="Fill-376" fill="#145491"></path>
                <path d="M724.066294,214.54 C729.906294,214.46 729.786294,205.38 723.926294,205.46 C718.086294,205.54 718.226294,214.62 724.066294,214.54" id="Fill-378" fill="#145491"></path>
                <path d="M790.077499,282.54 C795.917499,282.46 795.777499,273.38 789.937499,273.46 C784.077499,273.54 784.217499,282.62 790.077499,282.54" id="Fill-380" fill="#145491"></path>
                <path d="M878.066294,355.54 C883.906294,355.46 883.786294,346.38 877.926294,346.46 C872.086294,346.54 872.226294,355.62 878.066294,355.54" id="Fill-382" fill="#145491"></path>
                <path d="M979.077499,409.540147 C984.917499,409.440147 984.777499,400.360147 978.937499,400.460147 C973.077499,400.540147 973.217499,409.620147 979.077499,409.540147" id="Fill-384" fill="#145491"></path>
                <path d="M962.07,484.540147 C967.91,484.440147 967.79,475.360147 961.93,475.460147 C956.09,475.540147 956.21,484.620147 962.07,484.540147" id="Fill-386" fill="#145491"></path>
                <path d="M866.073706,507.54 C871.913706,507.46 871.773706,498.38 865.933706,498.46 C860.093706,498.54 860.213706,507.62 866.073706,507.54" id="Fill-388" fill="#145491"></path>
                <path d="M1038.07,560.540147 C1043.91,560.440147 1043.79,551.360147 1037.93,551.460147 C1032.09,551.540147 1032.21,560.620147 1038.07,560.540147" id="Fill-390" fill="#145491"></path>
                <path d="M727.07,431.539853 C732.91,431.459853 732.79,422.379853 726.93,422.459853 C721.09,422.559853 721.21,431.639853 727.07,431.539853" id="Fill-392" fill="#145491"></path>
                <path d="M820.07,391.540147 C825.91,391.440147 825.79,382.360147 819.93,382.460147 C814.09,382.540147 814.21,391.620147 820.07,391.540147" id="Fill-394" fill="#145491"></path>
                <path d="M666.06379,325.54 C671.90379,325.46 671.78379,316.38 665.94379,316.46 C660.08379,316.54 660.22379,325.62 666.06379,325.54" id="Fill-396" fill="#145491"></path>
                <path d="M605.07,487.540147 C610.91,487.440147 610.79,478.360147 604.93,478.460147 C599.09,478.540147 599.21,487.620147 605.07,487.540147" id="Fill-398" fill="#145491"></path>
                <polygon id="Fill-400" fill="#145491" points="776.82049 124 645 56.3384075 645.159565 56 777 123.681499"></polygon>
                <polygon id="Fill-402" fill="#145491" points="777.39 121 777.01 120.980437 782.63 35 782.99 35.0195632"></polygon>
                <polygon id="Fill-404" fill="#145491" points="726.310266 215 726 214.820382 776.689734 121 777 121.15966"></polygon>
                <polygon id="Fill-406" fill="#145491" points="872.72 144 868.9 50.0195956 869.24 50 873.1 144"></polygon>
                <polygon id="Fill-408" fill="#145491" points="870.72549 144 782 40.2359168 782.27451 40 871 143.764083"></polygon>
                <polygon id="Fill-410" fill="#145491" points="857.699629 245 777 119.197833 777.280346 119 858 244.802167"></polygon>
                <polygon id="Fill-412" fill="#145491" points="790.315589 278 790 277.803593 872.704135 149 873 149.196407"></polygon>
                <polygon id="Fill-414" fill="#145491" points="666.322965 316 666 315.843278 726.677035 207 727 207.176312"></polygon>
                <polygon id="Fill-416" fill="#145491" points="789.721014 278 724 210.235906 724.259058 210 790 277.744435"></polygon>
                <polygon id="Fill-418" fill="#145491" points="724.342491 422 724 421.863452 789.657509 278 790 278.136548"></polygon>
                <polygon id="Fill-420" fill="#145491" points="788.64 278 775 124.019504 775.38 124 789 277.980496"></polygon>
                <polygon id="Fill-422" fill="#145491" points="820.363636 390 820 389.920415 857.656566 248 858 248.099482"></polygon>
                <polygon id="Fill-424" fill="#145491" points="878.763403 356 790 278.274855 790.236597 278 879 355.725145"></polygon>
                <polygon id="Fill-426" fill="#145491" points="858.314856 248 858 247.843301 928.665466 117 929 117.156699"></polygon>
                <polygon id="Fill-428" fill="#145491" points="981.783925 222 873 149.29333 873.196432 149 982 221.70667"></polygon>
                <polygon id="Fill-430" fill="#145491" points="989.820679 319 858 248.318118 858.179321 248 990 318.681882"></polygon>
                <polygon id="Fill-432" fill="#145491" points="978.821098 407 878 346.312821 878.178902 346 979 406.687179"></polygon>
                <polygon id="Fill-434" fill="#145491" points="866.297125 501 866 500.803498 989.702875 319 990 319.196502"></polygon>
                <polygon id="Fill-436" fill="#145491" points="866.39 501 866.01 500.960602 879.61 357 879.99 357.039398"></polygon>
                <polygon id="Fill-438" fill="#145491" points="653.275156 582 653 581.743629 819.744498 387 820 387.23665"></polygon>
                <polygon id="Fill-440" fill="#145491" points="751.654712 627 729 427.039316 729.36447 427 752 626.960684"></polygon>
                <polygon id="Fill-442" fill="#145491" points="656.52 626.980017 656.16 627 655.48 581.019983 655.84 581"></polygon>
                <polygon id="Fill-444" fill="#145491" points="610.158905 483 610 482.689965 728.841095 427 729 427.310035"></polygon>
                <polygon id="Fill-446" fill="#145491" points="552.118925 625 552 624.661957 655.881075 587 656 587.338043"></polygon>
                <polygon id="Fill-448" fill="#145491" points="652.668158 587 605 481.155539 605.312322 481 653 586.844461"></polygon>
                <polygon id="Fill-450" fill="#145491" points="751.820182 637 653 581.322999 653.179818 581 752 636.677001"></polygon>
                <polygon id="Fill-452" fill="#145491" points="752.255782 632 752 631.74372 865.763894 508 866 508.236566"></polygon>
                <polygon id="Fill-454" fill="#145491" points="893.725587 630 727 433.234967 727.274413 433 894 629.765033"></polygon>
                <polygon id="Fill-456" fill="#145491" points="865.653522 508 820 387.118337 820.326097 387 866 507.881663"></polygon>
                <polygon id="Fill-458" fill="#145491" points="899.324118 627 899 626.859523 918.694948 574 919 574.120409"></polygon>
                <polygon id="Fill-460" fill="#145491" points="918.722201 574 866 508.218807 866.277799 508 919 573.761302"></polygon>
                <polygon id="Fill-462" fill="#145491" points="919.334617 574 919 573.84017 964.70475 480 965 480.15983"></polygon>
                <polygon id="Fill-464" fill="#145491" points="1039.64351 556 979 399.098879 979.336688 399 1040 555.861569"></polygon>
                <polygon id="Fill-466" fill="#145491" points="866.254159 508 866 507.722824 979.765392 402 980 402.257378"></polygon>
                <polygon id="Fill-468" fill="#145491" points="963.686126 486 881 352.176807 881.313874 352 964 485.803548"></polygon>
                <polygon id="Fill-470" fill="#145491" points="1118.88189 356 990 316.335802 990.098428 316 1119 355.644444"></polygon>
                <polygon id="Fill-472" fill="#145491" points="1095.76339 498 980 402.278031 980.216896 402 1096 497.70211"></polygon>
                <polygon id="Fill-474" fill="#145491" points="979.137511 402 979 401.651368 1115.88213 356 1116 356.329263"></polygon>
                <polygon id="Fill-476" fill="#145491" points="1024.66975 614 964 480.157531 964.330255 480 1025 613.842469"></polygon>
                <polygon id="Fill-478" fill="#145491" points="919.039113 568.29 919 567.91 1037.96089 553.71 1038 554.07"></polygon>
                <polygon id="Fill-480" fill="#145491" points="1168.64068 501 1116 357.137874 1116.35932 357 1169 500.881822"></polygon>
                <polygon id="Fill-482" fill="#145491" points="1118.66459 352 1043 205.177655 1043.33541 205 1119 351.822345"></polygon>
                <polygon id="Fill-484" fill="#145491" points="990.326923 318 990 317.843689 1042.69231 207 1043 207.156311"></polygon>
                <polygon id="Fill-486" fill="#145491" points="982.079118 218.08 982 217.72 1042.92088 205.92 1043 206.26"></polygon>
                <polygon id="Fill-488" fill="#145491" points="987.34 314 982.28 218.019765 982.64 218 987.72 313.980235"></polygon>
                <polygon id="Fill-490" fill="#145491" points="928.743116 116 868 50.2348058 868.256884 50 929 115.765194"></polygon>
                <polygon id="Fill-492" fill="#145491" points="929.178479 116 929 115.691409 989.841352 83 990 83.2893045"></polygon>
                <polygon id="Fill-494" fill="#145491" points="1110.72556 136 1028 30.2184339 1028.29405 30 1111 135.781566"></polygon>
                <polygon id="Fill-496" fill="#145491" points="1043.27715 205 1043 204.74615 1110.72285 134 1111 134.234323"></polygon>
                <polygon id="Fill-498" fill="#145491" points="989.217244 319 989 318.706463 1163.80251 200 1164 200.293537"></polygon>
                <polygon id="Fill-500" fill="#145491" points="877.662921 357 858 248.059422 858.337079 248 878 356.92077"></polygon>
                <polygon id="Fill-502" fill="#145491" points="729.293093 428 729 427.783607 857.706907 248 858 248.196721"></polygon>
                <polygon id="Fill-504" fill="#145491" points="858.078993 248 858 247.650259 981.921007 218 982 218.330311"></polygon>
                <polygon id="Fill-506" fill="#145491" points="981.34 217 980.98 216.980438 988.64 83 989.02 83.019562"></polygon>
                <polygon id="Fill-508" fill="#145491" points="1042.76677 202 932 111.277379 932.233234 111 1043 201.722621"></polygon>
                <polygon id="Fill-510" fill="#145491" points="1095.681 498 987 316.17816 987.279129 316 1096 497.82184"></polygon>
                <polygon id="Fill-512" fill="#145491" points="1038.23593 551 1038 550.72272 1095.76407 498 1096 498.257474"></polygon>
                <polygon id="Fill-514" fill="#145491" points="1168.9603 501.68 1091 494.66 1091.0397 494.32 1169 501.32"></polygon>
                <polygon id="Fill-516" fill="#145491" points="1168.88224 655 1025 615.327869 1025.09813 615 1169 654.652845"></polygon>
                <polygon id="Fill-518" fill="#145491" points="1169.30845 645 1169 644.804732 1231.69155 541 1232 541.175742"></polygon>
                <polygon id="Fill-520" fill="#145491" points="1168.68317 647 1091 503.177316 1091.31683 503 1169 646.842386"></polygon>
                <polygon id="Fill-522" fill="#145491" points="1038.03945 555.94 1038 555.58 1232.98028 542.06 1233 542.42"></polygon>
                <polygon id="Fill-524" fill="#145491" points="1169.09 655 1168.73 655 1168.89 506 1169.27 506"></polygon>
                <polygon id="Fill-526" fill="#145491" points="1096.383 498 1096 497.94059 1118.63716 351 1119 351.05941"></polygon>
                <polygon id="Fill-528" fill="#145491" points="1212 354.84 1118 353.54 1118 353.16 1212 354.46"></polygon>
                <polygon id="Fill-530" fill="#145491" points="1211.65398 354 1164 200.116918 1164.34602 200 1212 353.883082"></polygon>
                <polygon id="Fill-532" fill="#145491" points="1163.74 197 1163.38 196.941243 1180.26 111 1180.62 111.058757"></polygon>
                <polygon id="Fill-534" fill="#145491" points="1259.9209 172 1108 134.339642 1108.0791 134 1260 171.640379"></polygon>
                <polygon id="Fill-536" fill="#145491" points="990.297961 83 990 82.7843137 1027.7219 30 1028 30.1960784"></polygon>
                <polygon id="Fill-538" fill="#145491" points="1110.84196 136 990 83.3198793 990.138286 83 1111 135.660128"></polygon>
                <polygon id="Fill-540" fill="#145491" points="1043.33533 202 1043 201.862052 1108.6844 38 1109 38.1182408"></polygon>
                <polygon id="Fill-542" fill="#145491" points="1211.82276 354 982 217.316352 982.196935 217 1212 353.683648"></polygon>
                <polygon id="Fill-544" fill="#145491" points="1096.29532 498 1096 497.765377 1211.70468 354 1212 354.215071"></polygon>
                <polygon id="Fill-546" fill="#145491" points="1169.27544 501 1169 500.742765 1307.74423 354 1308 354.237448"></polygon>
                <polygon id="Fill-548" fill="#145491" points="1212.36213 349 1212 348.901896 1262.63787 172 1263 172.098104"></polygon>
                <polygon id="Fill-550" fill="#145491" points="1307.6725 359 1275 278.135971 1275.30823 278 1308 358.864029"></polygon>
                <polygon id="Fill-552" fill="#145491" points="1322.72655 483 1212 354.236553 1212.27345 354 1323 482.763447"></polygon>
                <polygon id="Fill-554" fill="#145491" points="1169.01969 501.12 1169 500.76 1322.98031 490.88 1323 491.24"></polygon>
                <polygon id="Fill-556" fill="#145491" points="1295.70496 637 1233 546.194694 1233.29504 546 1296 636.805306"></polygon>
                <polygon id="Fill-558" fill="#145491" points="1355.92197 574 1235 544.359281 1235.07803 544 1356 573.640719"></polygon>
                <polygon id="Fill-560" fill="#145491" points="1232.35868 546 1232 545.861657 1307.66125 359 1308 359.138343"></polygon>
                <polygon id="Fill-562" fill="#145491" points="1231.76796 544 1169 496.287196 1169.21271 496 1232 543.731951"></polygon>
                <g id="Group-566" transform="translate(1168.000000, 635.000000)">
                    <mask id="mask-20" fill="white">
                        <use xlink:href="#path-19"></use>
                    </mask>
                    <g id="Clip-565"></g>
                    <polygon id="Fill-564" fill="#FEFEFE" mask="url(#mask-20)" points="0.15460989 20.4403556 0.11471978 20.0723556 128.481093 1.09991111 128.540929 1.46791111"></polygon>
                </g>
                <polygon id="Fill-567" fill="#145491" points="1296.26215 637 1296 636.74326 1356.71769 574 1357 574.217241"></polygon>
                <polygon id="Fill-569" fill="#145491" points="1358.64184 579 1324 483.116812 1324.31836 483 1359 578.883188"></polygon>
                <polygon id="Fill-571" fill="#145491" points="1323.39 483 1308.23 359.059577 1308.59 359 1323.77 482.960282"></polygon>
                <polygon id="Fill-573" fill="#145491" points="1212.29275 354 1212 353.765191 1274.70725 278 1275 278.215242"></polygon>
                <polygon id="Fill-575" fill="#145491" points="1119.29658 352 1119 351.764911 1262.70342 172 1263 172.235089"></polygon>
                <polygon id="Fill-577" fill="#145491" points="1274.80326 280 1164 202.269696 1164.21641 202 1275 279.71104"></polygon>
                <polygon id="Fill-579" fill="#145491" points="1043.0392 211.12 1043 210.76 1163.9804 202.88 1164 203.24"></polygon>
                <polygon id="Fill-581" fill="#145491" points="1179.11748 109 1179 108.673573 1289.88252 71 1290 71.3456291"></polygon>
                <polygon id="Fill-583" fill="#145491" points="1163.72549 197 1111 134.233189 1111.2549 134 1164 196.766811"></polygon>
                <polygon id="Fill-585" fill="#145491" points="1167.2756 197 1167 196.742831 1290.74409 68 1291 68.2571691"></polygon>
                <polygon id="Fill-587" fill="#145491" points="1260.34373 172 1260 171.900901 1289.65627 73 1290 73.1189189"></polygon>
                <polygon id="Fill-589" fill="#145491" points="1275.35049 278 1275 277.941014 1330.66898 7 1331 7.05898571"></polygon>
                <polygon id="Fill-591" fill="#145491" points="1111.03922 33 1111 32.6144928 1330.96078 5 1331 5.36521739"></polygon>
                <polygon id="Fill-593" fill="#145491" points="1108.12048 137 1108 136.656566 1178.85945 109 1179 109.343434"></polygon>
                <polygon id="Fill-595" fill="#145491" points="1178.72955 109 1111 33.2595901 1111.25114 33 1179 108.760378"></polygon>
                <g id="Group-599" transform="translate(1290.000000, 2.000000)">
                    <mask id="mask-22" fill="white">
                        <use xlink:href="#path-21"></use>
                    </mask>
                    <g id="Clip-598"></g>
                    <polygon id="Fill-597" fill="#FEFEFE" mask="url(#mask-22)" points="0.770988889 68.3914286 0.457507407 68.1936429 42.1897296 0.491592857 42.5032111 0.689378571"></polygon>
                </g>
            </g>
        </g>
    </g>
</svg>