<?xml version="1.0" encoding="UTF-8"?>
<svg width="1366px" height="310px" viewBox="0 0 1366 310" version="1.1" xmlns="http://www.w3.org/2000/svg" xmlns:xlink="http://www.w3.org/1999/xlink">
    <!-- Generator: sketchtool 53 (72520) - https://sketchapp.com -->
    <title>042614EC-F11F-4A86-ADCD-8D3F501EA502</title>
    <desc>Created with sketchtool.</desc>
    <g id="Page-1" stroke="none" stroke-width="1" fill="none" fill-rule="evenodd" fill-opacity="0.1">
        <g id="opendata_progetto" transform="translate(0.000000, -246.000000)" fill="#FFFFFF">
            <g id="pattern" transform="translate(0.000000, 246.000000)">
                <path d="M1711.14507,21.2131241 L1763.65841,10.1516331 C1763.73051,10.3846746 1763.7932,10.6145238 1763.90292,10.8284112 L1618.17465,110.777681 L1711.14507,21.2131241 Z M1505.36125,79.4543482 C1505.94745,79.8055066 1506.59008,80.0608946 1507.3142,80.0608946 C1508.90352,80.0608946 1510.2546,79.087228 1510.87841,77.708133 L1610.09953,113.369869 C1610.01803,113.685912 1609.90831,113.989185 1609.90831,114.333959 C1609.90831,114.477614 1609.97101,114.595731 1609.98668,114.736195 L1452.81657,152.080299 L1505.36125,79.4543482 Z M1450.04231,153.775437 L1450.66613,153.628589 L1440.77913,167.288652 L1450.04231,153.775437 Z M1385.15612,196.067683 L1415.68545,197.517009 C1415.71993,198.075671 1415.861,198.596023 1416.09297,199.074876 L1278.00408,291.82859 L1385.15612,196.067683 Z M1177.75477,385.760282 C1177.1717,385.243121 1176.44444,384.930271 1175.63881,384.828116 L1178.52591,290.612305 C1180.35661,290.51015 1181.78919,289.147017 1182.1152,287.356109 L1268.3898,296.144647 C1268.3898,296.173378 1268.37413,296.192532 1268.37413,296.218071 C1268.37413,297.131083 1268.72835,297.935555 1269.23618,298.612333 L1177.75477,385.760282 Z M1016.07375,333.890987 L1174.67958,288.176542 C1175.21248,289.488598 1176.4319,290.385648 1177.86448,290.561228 L1174.97424,384.78023 C1173.48524,384.863231 1172.22507,385.766666 1171.62633,387.07553 L1016.0424,335.279659 C1016.09256,335.017887 1016.196,334.781653 1016.196,334.507111 C1016.196,334.286839 1016.1051,334.101682 1016.07375,333.890987 L1016.07375,333.890987 Z M870.859573,449.69985 C870.389361,449.230574 869.784354,448.943263 869.129191,448.764491 L893.081819,281.060795 C893.116301,281.063988 893.147648,281.083142 893.182131,281.083142 C894.614711,281.083142 895.809051,280.2659 896.501831,279.107078 L1008.57542,333.172709 C1008.42809,333.594099 1008.31211,334.031451 1008.31211,334.507111 C1008.31211,335.279659 1008.58796,335.966014 1008.961,336.575753 L870.859573,449.69985 Z M713.817986,411.149037 L788.120973,287.056028 C788.628803,287.305031 789.186788,287.464649 789.785526,287.464649 C790.218121,287.464649 790.6131,287.343339 791.001809,287.215645 L866.047732,449.236959 C865.32047,449.712619 864.74681,450.373435 864.449009,451.213023 L715.297588,414.756392 C715.319532,414.596775 715.3979,414.449927 715.3979,414.27754 C715.3979,412.984638 714.752142,411.883278 713.817986,411.149037 L713.817986,411.149037 Z M639.386474,451.746146 C639.333184,451.746146 639.286162,451.774877 639.232872,451.778069 L612.26148,280.86287 C612.568685,280.773484 612.850813,280.655367 613.126671,280.492557 L708.767903,411.372502 C708.003024,412.100357 707.510869,413.125101 707.510869,414.27754 C707.510869,414.887278 707.670741,415.449132 707.908982,415.966293 L642.599593,453.562592 C641.888005,452.493155 640.750091,451.746146 639.386474,451.746146 L639.386474,451.746146 Z M473.630281,374.136937 L608.258404,279.691278 C608.979396,280.527673 610.00446,281.083142 611.18626,281.083142 C611.242686,281.083142 611.289707,281.054411 611.342998,281.054411 L638.317525,451.96961 C637.377099,452.244152 636.61849,452.847506 636.107526,453.671132 L473.8936,377.192016 C474.015856,376.805741 474.131841,376.416275 474.131841,375.9885 C474.131841,375.308529 473.921813,374.698791 473.630281,374.136937 L473.630281,374.136937 Z M288.090679,369.945382 L392.998233,232.591353 C393.587566,232.955281 394.242729,233.220246 394.991934,233.220246 C395.49036,233.220246 395.957438,233.105321 396.399437,232.929742 L468.022213,372.725919 C467.125674,373.345235 466.520667,374.293362 466.35766,375.433031 L289.181572,372.37476 C289.078125,371.43621 288.714494,370.577468 288.090679,369.945382 L288.090679,369.945382 Z M150.591125,461.316809 C150.503352,461.316809 150.434387,461.361502 150.352884,461.367887 L132.754396,347.892632 C134.08353,347.544666 135.111728,346.548653 135.503572,345.217443 L281.435604,372.515224 C281.429334,372.614186 281.379178,372.697188 281.379178,372.79615 C281.379178,373.469736 281.582937,374.069898 281.871334,374.628559 L153.553464,462.753367 C152.832471,461.894625 151.791734,461.316809 150.591125,461.316809 L150.591125,461.316809 Z M7.02896416,400.307818 L128.422171,346.031492 C129.099277,347.2382 130.324964,348.09375 131.792027,348.09375 C131.876666,348.09375 131.948765,348.045865 132.033403,348.042672 L149.628757,461.514735 C148.584885,461.792469 147.738502,462.456478 147.218134,463.385452 L7.04150316,402.641426 C7.15121942,402.277498 7.26720518,401.91357 7.26720518,401.514526 C7.26720518,401.086752 7.14808467,400.694093 7.02896416,400.307818 L7.02896416,400.307818 Z M206.991553,102.394572 C207.095,102.394572 207.182773,102.340302 207.286219,102.330725 L219.518015,181.730841 C217.790768,182.158616 216.480442,183.67179 216.480442,185.558468 C216.480442,186.056475 216.596428,186.522558 216.7563,186.963102 L94.3160871,249.415035 C94.1593496,249.169224 94.0339596,248.901067 93.827066,248.696756 L205.029199,101.784833 C205.615398,102.139184 206.264291,102.394572 206.991553,102.394572 L206.991553,102.394572 Z M357.092803,-6.38792958 L323.17167,174.190512 C323.083897,174.184127 323.011797,174.136242 322.92089,174.136242 C321.710876,174.136242 320.663869,174.726826 319.939742,175.604722 L210.42097,100.249313 C210.718771,99.6810745 210.931934,99.0649511 210.931934,98.378596 C210.931934,97.6922408 210.718771,97.0825021 210.42097,96.5142639 L355.400038,-7.47971311 C355.854577,-6.96893719 356.431371,-6.6082017 357.092803,-6.38792958 L357.092803,-6.38792958 Z M552.450444,-70.7840035 L468.492425,75.5213736 C468.009674,75.3011015 467.483036,75.1765999 466.921916,75.1765999 C465.827888,75.1765999 464.840441,75.6331058 464.125718,76.3673462 L361.537879,-8.00964312 C361.942262,-8.64172832 362.233794,-9.35042991 362.233794,-10.154902 C362.233794,-10.3975205 362.139751,-10.611408 362.098999,-10.8412571 L551.249834,-72.2301378 C551.519423,-71.6427455 551.948883,-71.1702778 552.450444,-70.7840035 L552.450444,-70.7840035 Z M704.429409,59.8469376 L568.014479,65.8836705 C567.732351,64.0033767 566.233941,62.5508576 564.321743,62.4870106 L555.447265,-70.0497631 C556.187066,-70.1838418 556.857902,-70.4807303 557.39708,-70.9659674 L705.075168,57.941105 C704.714671,58.5061508 704.473295,59.1350437 704.429409,59.8469376 L704.429409,59.8469376 Z M886.288815,70.5636549 L820.048405,95.2117853 L712.181647,60.7759113 L886.166559,69.9443391 C886.185368,70.1582265 886.248063,70.3593445 886.288815,70.5636549 L886.288815,70.5636549 Z M1030.31805,95.5533667 L924.122116,116.792068 L892.755805,72.5588733 C893.257365,72.0768285 893.580244,71.4447433 893.780868,70.7520035 L1030.29924,94.9276662 C1030.29298,95.0170519 1030.24282,95.0968607 1030.24282,95.1894388 C1030.24282,95.3171328 1030.30551,95.428865 1030.31805,95.5533667 L1030.31805,95.5533667 Z M1129.70218,27.5818613 L1120.00013,61.7176544 L1037.66277,93.3889537 C1037.62829,93.3219144 1037.57187,93.2612597 1037.52798,93.191028 L1128.28214,26.4932702 C1128.67398,26.9561608 1129.14106,27.3424351 1129.70218,27.5818613 L1129.70218,27.5818613 Z M1179.0933,40.7918035 C1179.01494,38.6529294 1177.3065,36.932253 1175.18427,36.932253 C1173.59182,36.932253 1172.23134,37.9091119 1171.61065,39.297784 L1135.12216,25.1365216 L1134.92781,25.0471358 C1134.94348,24.9928659 1134.94348,24.9354036 1134.95602,24.8779413 L1282.1733,46.4678009 L1179.0933,40.7918035 Z M1425.70725,-4.81729363 L1326.90932,76.3896927 L1294.38942,49.4334936 C1294.775,48.8141778 1295.06026,48.1182456 1295.06026,47.3265429 C1295.06026,46.9626151 1294.94427,46.6433801 1294.8565,46.3081834 L1425.5223,-5.10141274 C1425.56932,-4.99925755 1425.65082,-4.91625647 1425.70725,-4.81729363 L1425.70725,-4.81729363 Z M1532.64925,30.8923278 L1500.91618,68.747208 L1431.92659,-4.31928711 C1432.19618,-4.63213736 1432.44696,-4.96094936 1432.60683,-5.34722365 L1531.74645,27.3168963 C1531.68062,27.6042078 1531.57717,27.8723651 1531.57717,28.182023 C1531.57717,29.2354984 1531.99409,30.1804338 1532.64925,30.8923278 L1532.64925,30.8923278 Z M1723.63078,-17.1876479 L1699.17033,6.16119626 L1544.2447,26.518809 L1722.99129,-18.2411232 C1723.13863,-17.8484642 1723.37373,-17.5132676 1723.63078,-17.1876479 L1723.63078,-17.1876479 Z M1763.61139,8.16279939 L1733.64004,3.07738666 C1733.65885,2.93053858 1733.72468,2.8028446 1733.72468,2.65599652 C1733.72468,0.437313627 1731.95668,-1.35678679 1729.78116,-1.35678679 C1729.65264,-1.35678679 1729.54919,-1.29932449 1729.42694,-1.2865551 L1727.38935,-15.8245147 C1728.3235,-16.0096709 1729.11973,-16.4981004 1729.69026,-17.2355331 L1764.06279,6.99759183 C1763.8465,7.35832732 1763.70857,7.74140926 1763.61139,8.16279939 L1763.61139,8.16279939 Z M1492.94451,91.1958096 L1503.93808,79.9970476 L1451.5658,152.38038 L1450.89183,152.54319 L1492.94451,91.1958096 Z M1727.27336,5.68234384 C1727.95674,6.27292849 1728.81566,6.66558748 1729.78116,6.66558748 C1731.65574,6.66558748 1733.15102,5.30883895 1733.54913,3.52431558 L1763.52362,8.61292067 C1763.50481,8.7565764 1763.43898,8.88746273 1763.43898,9.03750315 C1763.43898,9.20350532 1763.51421,9.34716105 1763.53616,9.51316323 L1712.02594,20.3639591 L1727.27336,5.68234384 Z M1689.55918,25.1014058 L1693.62182,20.271381 L1726.38309,4.57140622 C1726.47714,4.73421604 1726.58058,4.87787177 1726.68403,5.02791219 L1710.40527,20.7087329 L1689.55918,25.1014058 Z M1688.88208,25.9090702 L1709.52127,21.5547055 L1619.76083,108.029068 L1688.88208,25.9090702 Z M1511.1386,75.4511419 L1564.32591,60.4055988 L1610.94278,111.677924 C1610.67946,111.974812 1610.45376,112.300432 1610.28448,112.667552 L1511.0665,77.0090085 C1511.14487,76.6929659 1511.25458,76.3865003 1511.25458,76.0449189 C1511.25458,75.8342239 1511.16995,75.6554523 1511.1386,75.4511419 L1511.1386,75.4511419 Z M1429.51283,157.619025 C1429.35923,157.194443 1429.12099,156.820938 1428.83886,156.476164 L1488.80977,95.4033262 L1449.39969,152.894348 L1429.51283,157.619025 Z M1420.44087,193.459533 L1425.43139,162.93748 C1425.57559,162.950249 1425.69784,163.023673 1425.84831,163.023673 C1428.02696,163.023673 1429.78869,161.219996 1429.78869,159.007697 C1429.78869,158.864042 1429.726,158.745925 1429.71032,158.605461 L1448.55331,154.129787 L1421.37502,193.775576 C1421.08349,193.619151 1420.77002,193.53615 1420.44087,193.459533 L1420.44087,193.459533 Z M1400.35025,182.49062 L1416.29359,195.22171 C1416.01773,195.671831 1415.84219,196.169838 1415.75755,196.718922 L1386.00877,195.307903 L1400.35025,182.49062 Z M1288.75001,190.701343 C1288.74374,190.618342 1288.71239,190.551303 1288.70612,190.471494 L1383.48529,169.022098 L1399.52895,181.832996 L1384.5323,195.237672 L1288.75001,190.701343 Z M1181.46944,284.358493 L1237.23979,234.24499 L1270.03868,293.028914 C1269.24245,293.619498 1268.70328,294.47824 1268.51833,295.499792 L1182.24373,286.714446 C1182.24373,286.688908 1182.2594,286.666561 1182.2594,286.644215 C1182.2594,285.775896 1181.93025,285.016116 1181.46944,284.358493 L1181.46944,284.358493 Z M1014.36844,331.203029 L1049.60304,259.311318 L1174.4476,286.289864 C1174.43506,286.411173 1174.3755,286.516521 1174.3755,286.644215 C1174.3755,286.861295 1174.46641,287.049643 1174.49776,287.257146 L1015.89193,332.971591 C1015.58473,332.224581 1015.02674,331.643573 1014.36844,331.203029 L1014.36844,331.203029 Z M897.01593,276.508505 L1002.18994,250.663244 C1002.72285,252.240264 1004.14916,253.38951 1005.8764,253.392702 L1011.65375,330.615637 C1010.49076,330.803985 1009.52525,331.480763 1008.93592,332.470392 L896.862327,278.404761 C897.009661,277.986563 897.125647,277.542826 897.125647,277.067166 C897.125647,276.869241 897.041008,276.696854 897.01593,276.508505 L897.01593,276.508505 Z M470.188325,371.972524 C469.968893,371.972524 469.771404,372.065102 469.558241,372.103411 L422.819113,216.795608 L529.52288,167.400384 C530.206255,168.578361 531.413134,169.401987 532.851984,169.401987 C533.569842,169.401987 534.199927,169.159369 534.779856,168.817787 L608.61263,274.088704 C607.791326,274.822945 607.249014,275.870035 607.249014,277.067166 C607.249014,277.747137 607.455908,278.360068 607.747439,278.921921 L473.119317,373.370773 C472.398324,372.527993 471.370126,371.972524 470.188325,371.972524 L470.188325,371.972524 Z M398.932316,229.207463 C398.932316,228.766918 398.813195,228.36149 398.68467,227.968831 L421.881823,217.229767 L468.18522,371.107398 L397.158047,232.470044 C398.205054,231.745381 398.932316,230.586558 398.932316,229.207463 L398.932316,229.207463 Z M286.557786,369.035563 L317.228183,210.260869 L391.139326,228.74138 C391.120518,228.900997 391.048419,229.041461 391.048419,229.207463 C391.048419,230.321593 391.499823,231.327183 392.220815,232.058231 L287.313261,369.41226 C287.06875,369.26222 286.830509,369.128141 286.557786,369.035563 L286.557786,369.035563 Z M134.102338,340.914156 L218.8942,189.261594 C219.364412,189.459519 219.878512,189.571251 220.420823,189.571251 C220.706086,189.571251 220.956866,189.465904 221.226454,189.411634 L283.567234,369.24945 C282.617405,369.744264 281.918355,370.599814 281.608015,371.656482 L135.675983,344.361894 C135.682252,344.262931 135.732408,344.176737 135.732408,344.077774 C135.732408,342.759334 135.064707,341.645204 134.102338,340.914156 L134.102338,340.914156 Z M218.110512,188.725279 L133.318651,340.381034 C132.848438,340.176723 132.334339,340.064991 131.792027,340.064991 C131.334354,340.064991 130.911162,340.183108 130.503645,340.329956 L92.9399317,255.001647 C94.1468106,254.315291 94.9963279,253.051121 94.9963279,251.54114 C94.9963279,251.046326 94.8803421,250.583435 94.7236046,250.139698 L217.163818,187.687765 C217.420867,188.093194 217.731208,188.437967 218.110512,188.725279 L218.110512,188.725279 Z M358.293412,-6.14211867 C358.494036,-6.14211867 358.669582,-6.23150446 358.860802,-6.25704325 L395.810104,127.492823 L325.873824,175.56003 C325.406747,175.010945 324.814279,174.615094 324.121499,174.382053 L358.042632,-6.19638861 C358.13354,-6.19000391 358.205639,-6.14211867 358.293412,-6.14211867 L358.293412,-6.14211867 Z M463.458016,81.00583 L396.669026,126.902239 L359.826305,-6.45816127 C360.302787,-6.66247164 360.729113,-6.96255249 361.08961,-7.33286503 L463.674314,77.0473167 C463.273066,77.6762095 462.981534,78.3849111 462.981534,79.1925755 C462.981534,79.8533919 463.179024,80.4567459 463.458016,81.00583 L463.458016,81.00583 Z M742.07776,124.22705 L710.44813,63.3808685 C711.056271,62.9722478 711.564101,62.4455101 711.877576,61.768732 L818.468491,95.7991776 L742.07776,124.22705 Z M845.355245,104.383405 L818.825853,125.318833 L744.541674,128.964496 L742.513491,125.060253 L819.913611,96.2620682 L845.355245,104.383405 Z M886.749623,71.7129007 L846.339556,103.607664 L821.490391,95.6714836 L886.577212,71.4543204 C886.621098,71.5500908 886.693197,71.6235149 886.749623,71.7129007 L886.749623,71.7129007 Z M905.141203,120.587771 C904.652182,118.943711 903.207062,117.724234 901.429659,117.724234 C901.216496,117.724234 901.037815,117.816812 900.837191,117.848735 L891.138273,73.4527311 C891.401592,73.3761148 891.646103,73.286729 891.884344,73.1558426 L922.993606,117.018725 L905.141203,120.587771 Z M933.977771,132.50162 L905.213302,122.519143 C905.269728,122.25737 905.37004,122.014752 905.37004,121.74021 C905.37004,121.609323 905.313614,121.500783 905.301075,121.373089 L923.501436,117.730619 L933.977771,132.50162 Z M1033.06096,98.9691806 L1021.33386,162.832132 L935.68621,133.098589 L924.629946,117.507154 L1030.47166,96.3386846 C1030.8541,97.6124321 1031.80392,98.5829063 1033.06096,98.9691806 L1033.06096,98.9691806 Z M1103.18219,120.87189 L1037.9449,96.1216049 C1038.02013,95.811947 1038.12985,95.5182508 1038.12985,95.1894388 C1038.12985,94.8382804 1038.01387,94.5286225 1037.93236,94.2061952 L1119.70546,62.745591 L1103.18219,120.87189 Z M1144.68001,53.136619 L1154.3852,73.5389246 L1120.79635,127.553478 L1104.01917,121.187933 L1120.7462,62.3465473 L1144.68001,53.136619 Z M1131.21626,27.8947116 C1131.68647,27.8947116 1132.1222,27.7765947 1132.54226,27.6233619 L1144.31325,52.3640704 L1121.04086,61.3186107 L1130.57991,27.7638253 C1130.79307,27.7989411 1130.99056,27.8947116 1131.21626,27.8947116 L1131.21626,27.8947116 Z M1171.40376,41.7622778 L1142.54212,28.5363738 L1171.479,39.7670593 C1171.36301,40.1437566 1171.24702,40.5268385 1171.24702,40.9450363 C1171.24702,41.2323478 1171.35047,41.4909281 1171.40376,41.7622778 L1171.40376,41.7622778 Z M1287.20771,47.4797757 C1287.24219,48.4342882 1287.61523,49.2962226 1288.19829,49.9698083 L1259.9824,81.4846825 L1178.86133,42.276246 C1178.94911,42.0368198 1178.97105,41.7782395 1179.0118,41.5196592 L1287.20771,47.4797757 Z M1320.90627,81.325065 L1295.18565,51.3042104 L1326.17579,76.9930467 L1320.90627,81.325065 Z M1420.99572,155.591884 L1420.96124,156.313354 L1361.92135,129.207115 L1321.49561,82.0178048 L1326.89051,77.5836314 L1420.99572,155.591884 Z M1428.00188,155.735539 C1427.51286,155.400343 1426.97369,155.186455 1426.36554,155.097069 L1429.34669,-2.97850033 C1430.13038,-3.06150141 1430.82629,-3.35838992 1431.40622,-3.83404999 L1500.45537,69.2994845 L1428.00188,155.735539 Z M285.322694,368.783367 C285.034297,368.783367 284.783517,368.891907 284.513929,368.949369 L222.179418,189.105168 C223.050879,188.655047 223.734254,187.908037 224.082212,186.969487 L316.259545,210.01825 L285.579744,368.837637 C285.488836,368.831252 285.416737,368.783367 285.322694,368.783367 L285.322694,368.783367 Z M706.48267,63.5787942 L685.000226,113.286868 L646.082301,98.0433993 L705.269522,62.5253188 C705.601806,62.9594784 705.999919,63.3138292 706.48267,63.5787942 L706.48267,63.5787942 Z M889.602246,73.5804251 L890.263678,117.628463 L847.345811,103.926899 L887.232374,72.4471411 C887.843651,73.0919957 888.680629,73.4686929 889.602246,73.5804251 L889.602246,73.5804251 Z M1145.0844,52.0671819 L1133.26012,27.2275105 C1133.78049,26.8923138 1134.20368,26.464539 1134.52342,25.9314166 L1170.34735,42.3464777 L1145.0844,52.0671819 Z M1320.12886,81.9635349 L1301.09152,97.6092397 C1300.38306,96.8941534 1299.40816,96.4504169 1298.33921,96.4504169 C1298.23262,96.4504169 1298.14799,96.5014945 1298.05081,96.5110715 L1291.89416,51.1829011 C1292.39885,51.0743612 1292.85339,50.8860126 1293.26091,50.6050859 L1320.12886,81.9635349 Z M1421.64775,163.457833 L1423.28095,161.998929 C1423.7637,162.423511 1424.35303,162.694861 1424.99566,162.844902 L1420.37817,191.052502 L1421.64775,163.457833 Z M1403.68876,179.508966 L1415.99579,193.880923 L1401.00228,181.90642 L1403.68876,179.508966 Z M1392.88328,166.895993 L1403.00852,178.723648 L1400.18098,181.248796 L1384.56051,168.779479 L1392.88328,166.895993 Z M1420.80763,159.719591 L1393.3723,165.928711 L1363.18779,130.688365 L1420.92362,157.194443 L1420.80763,159.719591 Z M1422.15557,157.759489 C1422.02705,158.158532 1421.90793,158.563961 1421.90793,159.007697 C1421.90793,159.164123 1421.97689,159.301394 1421.9957,159.451434 L1421.82956,159.48655 L1421.9142,157.647757 L1422.15557,157.759489 Z M1422.57563,156.900747 C1422.55055,156.942247 1422.52234,156.977363 1422.49726,157.018864 L1421.95809,156.76986 L1421.97689,156.40274 L1422.57563,156.900747 Z M1425.47841,155.071531 C1424.5662,155.160916 1423.73235,155.518459 1423.11481,156.134583 L1422.02705,155.23434 L1427.87963,28.0543291 L1425.47841,155.071531 Z M1421.79194,160.354869 L1422.15871,160.271868 C1422.27156,160.607065 1422.43457,160.897568 1422.62579,161.191265 L1421.71671,162.008506 L1421.79194,160.354869 Z M1403.76086,178.053255 L1393.98984,166.64699 L1420.76375,160.584718 L1420.65716,162.950249 L1403.76086,178.053255 Z M1417.44091,194.021387 L1404.43483,178.841765 L1420.59133,164.402768 L1419.25907,193.350993 C1418.57882,193.408456 1417.97382,193.657459 1417.44091,194.021387 L1417.44091,194.021387 Z M1301.62442,102.544612 C1301.64323,102.512689 1301.66831,102.480765 1301.68712,102.448842 L1361.00914,129.685967 L1392.26573,166.177714 L1383.72981,168.112278 L1301.62442,102.544612 Z M1287.22965,187.796305 L1298.30472,104.472791 C1298.31413,104.472791 1298.32667,104.479176 1298.33921,104.479176 C1299.4395,104.479176 1300.43008,104.0099 1301.14794,103.262891 L1382.65145,168.354897 L1288.54311,189.654253 C1288.2892,188.897666 1287.83466,188.275158 1287.22965,187.796305 L1287.22965,187.796305 Z M1284.71872,194.902475 C1284.7626,194.902475 1284.80335,194.928014 1284.85038,194.928014 C1285.01025,194.928014 1285.13877,194.857782 1285.28924,194.84182 L1279.8818,235.544276 L1284.71872,194.902475 Z M1282.19838,193.845807 C1282.70621,194.32466 1283.34883,194.611971 1284.05415,194.765204 L1273.33644,284.783075 L1272.34586,292.20848 C1272.33645,292.20848 1272.33018,292.202095 1272.31764,292.202095 C1271.76593,292.202095 1271.23929,292.323404 1270.76281,292.530907 L1237.90749,233.648021 L1282.19838,193.845807 Z M1213.28403,189.510597 L1280.9915,191.327044 C1281.06673,192.029361 1281.31751,192.651869 1281.69682,193.19776 L1237.49684,232.910588 L1213.28403,189.510597 Z M1052.55284,253.29374 L1160.07164,282.216426 L1050.0325,258.439807 L1052.55284,253.29374 Z M1012.56596,250.340816 L1012.56596,245.919412 C1014.09259,245.788526 1015.36529,244.821244 1015.90447,243.432572 L1051.67824,253.057506 L1049.13596,258.245074 L1012.56596,250.340816 Z M1012.56596,330.558174 L1012.56596,251.311291 L1048.70963,259.116585 L1013.59103,330.768869 C1013.27128,330.64756 1012.92332,330.586905 1012.56596,330.558174 L1012.56596,330.558174 Z M1009.56601,250.660051 L1011.93588,251.17402 L1011.93588,326.226156 L1006.47514,253.268201 C1007.92653,253.038352 1009.10206,252.048723 1009.56601,250.660051 L1009.56601,250.660051 Z M1002.03007,245.383098 L1003.03946,246.615344 C1002.36548,247.340008 1001.93916,248.30729 1001.93916,249.379919 C1001.93916,249.581037 1002.02066,249.753424 1002.04887,249.944965 L908.937386,272.821341 L1002.03007,245.383098 Z M536.7955,165.389204 C536.7955,165.325357 536.764153,165.267895 536.757883,165.200855 L670.157184,141.101809 C670.45812,142.018013 671.056857,142.745869 671.853084,143.240683 L612.443295,273.316156 C612.042047,273.178885 611.631395,273.057575 611.18626,273.057575 C610.474672,273.057575 609.844587,273.303386 609.264658,273.638583 L535.428749,168.374051 C536.250054,167.636618 536.7955,166.589527 536.7955,165.389204 L536.7955,165.389204 Z M414.57472,189.39248 L420.264292,177.526517 L529.068341,166.164945 C529.099688,166.32137 529.112227,166.477795 529.159249,166.627836 L422.571468,215.965597 L414.57472,189.39248 Z M397.076543,225.884227 L413.916422,190.76519 L421.631043,216.402949 L398.321039,227.189898 C398.010699,226.656775 397.587508,226.222616 397.076543,225.884227 L397.076543,225.884227 Z M322.66384,182.110731 C322.754748,182.117115 322.829982,182.165001 322.92089,182.165001 C324.146577,182.165001 325.199853,181.561647 325.920846,180.661404 L391.640886,227.218629 C391.53117,227.413362 391.408915,227.585749 391.330546,227.796444 L317.413133,209.315933 L322.66384,182.110731 Z M408.693928,174.113895 C408.085787,174.37886 407.603035,174.825789 407.192383,175.34295 C406.480794,174.602325 405.490213,174.136242 404.389916,174.136242 C402.320981,174.136242 400.675237,175.773917 400.509095,177.839367 L326.801711,177.839367 C326.757824,177.296668 326.619895,176.795469 326.387923,176.33577 L396.073423,128.444143 L408.693928,174.113895 Z M464.683704,82.4072715 L412.320834,174.503362 C411.706423,174.097933 411.013643,173.801045 410.223686,173.801045 C410.023062,173.801045 409.850651,173.887238 409.656296,173.91597 L396.932345,127.853559 L463.972115,81.7847633 C464.182144,82.0305742 464.42352,82.2157305 464.683704,82.4072715 L464.683704,82.4072715 Z M560.766936,68.3513567 L495.4262,115.882248 L469.589588,82.110383 C470.367006,81.3793349 470.862297,80.3513984 470.862297,79.1925755 C470.862297,79.1319209 470.830949,79.0808433 470.830949,79.0169963 L560.412709,67.304266 C560.494213,67.6777709 560.594525,68.025737 560.766936,68.3513567 L560.766936,68.3513567 Z M627.2017,108.166339 L567.701004,68.3513567 L643.847224,98.1742856 L627.2017,108.166339 Z M684.630326,114.148802 L675.141437,136.112167 C674.730784,135.965319 674.310728,135.847202 673.856189,135.847202 C672.617963,135.847202 671.558417,136.463325 670.837424,137.373145 L628.154664,108.801617 L645.066642,98.653138 L684.630326,114.148802 Z M730.598305,128.495221 C729.949411,127.192742 728.65476,126.276538 727.121867,126.276538 C726.858548,126.276538 726.626576,126.378693 726.378931,126.429771 L709.617421,63.8373745 C709.683251,63.8118357 709.764754,63.8214127 709.830584,63.7926816 L741.381846,124.48563 L730.598305,128.495221 Z M730.933723,129.631697 C730.918049,129.551889 730.90551,129.468888 730.883567,129.389079 L741.814441,125.318833 L743.732909,129.005997 L730.933723,129.631697 Z M762.594701,165.290241 C762.441099,165.392396 762.284361,165.475398 762.146432,165.599899 L730.046589,132.913433 C730.598305,132.274963 730.943127,131.467298 731.008957,130.570248 L744.209391,129.922201 L762.594701,165.290241 Z M767.541337,165.794632 C766.826614,165.04443 765.829764,164.565578 764.720062,164.565578 C764.187155,164.565578 763.679325,164.680502 763.212247,164.875236 L745.021291,129.883893 L817.550009,126.324423 L767.541337,165.794632 Z M890.342047,122.755377 L890.379664,125.088984 L768.290543,166.921532 C768.221578,166.777876 768.111862,166.666144 768.030358,166.528873 L819.064094,126.247807 L890.342047,122.755377 Z M890.282487,118.723439 L890.329508,121.816826 L820.336802,125.245409 L846.364634,104.70264 L890.282487,118.723439 Z M897.874852,120.057841 L891.298146,117.960468 L890.624174,73.5548863 C890.636713,73.5548863 890.642983,73.5548863 890.649252,73.5548863 L900.34817,117.950891 C899.251007,118.273318 898.351334,119.02352 897.874852,120.057841 L897.874852,120.057841 Z M1007.44378,236.099745 L904.398267,124.303666 C904.605161,124.054663 904.793246,123.786506 904.93431,123.489617 L934.980891,133.922215 L1007.44378,236.099745 Z M1008.05819,235.145233 L936.68933,134.515992 L1021.15204,163.837722 L1008.05819,235.145233 Z M1023.39339,164.616656 L1012.43117,237.992809 C1012.37161,237.989616 1012.31518,237.957693 1012.25562,237.957693 C1011.58165,237.957693 1010.97664,238.174772 1010.41866,238.478046 L1008.74784,236.115707 L1021.96394,164.121841 L1023.39339,164.616656 Z M1023.54386,163.604681 L1022.14889,163.116251 L1030.05473,120.051457 L1023.54386,163.604681 Z M1085.89718,181.679764 C1085.68401,181.641455 1085.48652,181.548877 1085.26082,181.548877 C1084.65895,181.548877 1084.11037,181.70211 1083.60254,181.947921 L1036.39947,98.4232889 C1036.92297,98.0465916 1037.3587,97.5805086 1037.65023,96.999501 L1102.93141,121.765748 L1085.89718,181.679764 Z M1086.95672,181.97346 C1086.88776,181.941536 1086.84387,181.887266 1086.77491,181.858535 L1103.76839,122.084983 L1120.30106,128.35795 L1086.95672,181.97346 Z M1190.2248,154.886374 C1190.1527,155.19284 1190.04299,155.486536 1190.04299,155.815348 C1190.04299,156.051582 1190.14016,156.259085 1190.17778,156.482549 L1088.92848,184.185758 C1088.68083,183.499403 1088.24824,182.937549 1087.70279,182.49062 L1121.16312,128.680377 L1190.2248,154.886374 Z M1191.93951,152.469766 C1191.34077,152.852848 1190.84235,153.363624 1190.51947,154.008478 L1121.65841,127.88229 L1154.84914,74.5093988 L1191.93951,152.469766 Z M1173.48524,44.5332371 C1174.0056,44.7886251 1174.56986,44.9578196 1175.18427,44.9578196 C1175.28772,44.9578196 1175.37236,44.906742 1175.46953,44.9003573 L1192.99906,152.006875 C1192.88934,152.035606 1192.76708,152.035606 1192.6605,152.073914 L1155.36324,73.6825803 L1173.48524,44.5332371 Z M1171.43511,42.8444842 L1171.92413,43.0711411 C1172.1561,43.4286842 1172.41629,43.7479191 1172.73916,44.0192689 L1154.8993,72.7089137 L1145.45116,52.8429228 L1171.43511,42.8444842 Z M1178.88641,45.1940535 L1177.89583,43.8341126 C1178.14661,43.5946864 1178.31589,43.2914132 1178.49457,42.9913323 L1259.22693,82.0082278 L1178.88641,45.1940535 Z M1290.54308,51.2212093 L1288.62148,95.3235175 L1260.75668,81.854995 L1288.82524,50.506123 C1289.3268,50.8796279 1289.90046,51.1222465 1290.54308,51.2212093 L1290.54308,51.2212093 Z M1302.02881,101.714601 C1302.15733,101.315557 1302.27332,100.910129 1302.27332,100.466393 C1302.27332,99.6746899 1301.99433,98.98195 1301.60562,98.3658266 L1320.72132,82.6562747 L1359.73956,128.20791 L1302.02881,101.714601 Z M1285.73751,187.084411 L1291.11047,151.055555 L1286.30803,187.202528 C1286.12935,187.129104 1285.92873,187.129104 1285.73751,187.084411 L1285.73751,187.084411 Z M1178.31589,282.631431 C1177.41621,282.631431 1176.63252,282.988975 1175.96482,283.502943 L1099.97221,200.95517 L1128.89028,187.247221 L1189.6386,188.875319 L1178.40993,282.650586 C1178.37858,282.650586 1178.34723,282.631431 1178.31589,282.631431 L1178.31589,282.631431 Z M1071.61839,214.398153 L1099.21987,201.312713 L1175.37862,284.036065 C1175.08396,284.380839 1174.83318,284.751151 1174.66704,285.182119 L1052.96976,252.444575 L1071.61839,214.398153 Z M893.81535,273.185269 L901.645956,125.7083 C902.35441,125.669992 902.984495,125.414604 903.54875,125.031522 L1001.50343,244.744628 L896.83098,275.598686 C896.332555,274.312169 895.191506,273.421503 893.81535,273.185269 L893.81535,273.185269 Z M420.643596,176.728429 L424.502474,168.690093 L495.460683,117.072995 L530.184312,162.471397 C529.410029,163.205637 528.914738,164.230381 528.914738,165.389204 C528.914738,165.398781 528.921008,165.411551 528.921008,165.421128 L420.643596,176.728429 Z M326.271938,180.137859 C326.56347,179.633468 326.74842,179.081191 326.801711,178.46826 L400.509095,178.46826 C400.678372,180.527325 402.320981,182.165001 404.389916,182.165001 C405.631277,182.165001 406.697092,181.542493 407.418085,180.623096 C407.537205,180.744405 407.687673,180.808252 407.816198,180.910407 C408.214311,181.338182 408.706467,181.660609 409.248779,181.877689 L395.904147,225.379836 C395.603211,225.306412 395.314814,225.191487 394.991934,225.191487 C393.759978,225.191487 392.709836,225.798033 391.988844,226.695084 L326.271938,180.137859 Z M414.44306,177.376476 C414.361557,176.983817 414.25811,176.616697 414.076294,176.271923 L422.98212,169.794646 L419.605994,176.836969 L414.44306,177.376476 Z M412.283217,181.785111 C413.640564,181.149834 414.596663,179.770739 414.596663,178.149025 C414.596663,178.139448 414.590394,178.129871 414.590394,178.117101 L419.223555,177.635057 L414.19228,188.125117 L412.283217,181.785111 Z M409.740935,181.976652 C410.041871,182.053268 410.333403,182.165001 410.656282,182.165001 C410.878849,182.165001 411.073204,182.072423 411.289501,182.034114 L413.537117,189.50102 L396.593792,224.830752 L409.740935,181.976652 Z M423.881793,167.92393 L413.530848,175.448297 C413.392919,175.295065 413.223642,175.18014 413.060635,175.049254 C413.013614,175.001368 412.960323,174.956676 412.910167,174.90879 L461.574031,89.3187081 L423.881793,167.92393 Z M466.921916,83.2053588 C467.708738,83.2053588 468.401518,82.9084703 469.019063,82.5030419 L494.861945,116.290869 L425.395878,166.819377 L465.620994,82.9372015 C466.031646,83.0872419 466.457972,83.2053588 466.921916,83.2053588 L466.921916,83.2053588 Z M562.66346,70.1709959 L533.717176,161.552 C533.435048,161.484961 533.15919,161.376421 532.851984,161.376421 C532.065162,161.376421 531.372382,161.670117 530.757971,162.075545 L496.021803,116.664374 L561.309248,69.1717905 C561.691687,69.5931806 562.139957,69.9475314 562.66346,70.1709959 L562.66346,70.1709959 Z M626.455629,108.610076 L535.908366,162.950249 C535.497714,162.417127 535.002423,161.957428 534.375473,161.689271 L563.324892,70.3082669 C563.613289,70.3753062 563.882878,70.4870385 564.186949,70.4870385 C565.425175,70.4870385 566.484721,69.8677227 567.205713,68.9610954 L626.455629,108.610076 Z M723.372705,129.32204 C723.291202,129.641275 723.178351,129.94774 723.178351,130.289321 C723.178351,130.353168 723.215968,130.410631 723.215968,130.47767 L677.570868,138.723509 C677.266797,137.701957 676.605365,136.871946 675.699422,136.37394 L685.20085,114.375459 L723.372705,129.32204 Z M897.620937,121.066624 C897.598994,121.19751 897.555107,121.322012 897.542568,121.459283 L891.351436,121.762556 L891.316954,119.052251 L897.620937,121.066624 Z M1034.18634,99.2022221 C1034.78194,99.2022221 1035.33679,99.045797 1035.84148,98.8031784 L1083.04455,182.32781 C1082.50538,182.714085 1082.0477,183.199322 1081.75304,183.812253 L1024.34008,163.87603 L1034.00765,99.1639139 C1034.07035,99.1702986 1034.12364,99.2022221 1034.18634,99.2022221 L1034.18634,99.2022221 Z M1295.02578,98.4169042 L1294.76873,98.2955949 L1289.41144,95.7065994 L1291.35185,51.291441 C1291.37066,51.291441 1291.3832,51.2850563 1291.40514,51.2818639 L1297.55865,96.6100343 C1296.47716,96.8366912 1295.59003,97.4879304 1295.02578,98.4169042 L1295.02578,98.4169042 Z M1196.26233,159.001313 C1196.78583,158.615038 1197.23097,158.136186 1197.50996,157.536024 L1281.12316,189.833024 C1281.08554,189.983065 1281.06046,190.13949 1281.03225,190.295915 L1212.69783,188.463506 L1196.26233,159.001313 Z M1193.89246,159.81217 C1193.92381,159.81217 1193.95516,159.831324 1193.98337,159.831324 C1194.53508,159.831324 1195.06172,159.710014 1195.54134,159.499319 L1211.6853,188.437967 L1190.53201,187.869729 L1193.89246,159.81217 Z M1130.94667,186.270362 L1190.72009,157.935068 C1191.27181,158.809772 1192.11192,159.419511 1193.14012,159.655744 L1189.76086,187.847383 L1130.94667,186.270362 Z M1016.11763,241.581009 L1018.76336,239.451712 L1070.33314,215.007892 L1052.0983,252.208341 L1016.08629,242.51956 C1016.11136,242.334404 1016.196,242.165209 1016.196,241.970476 C1016.196,241.833205 1016.13017,241.715088 1016.11763,241.581009 L1016.11763,241.581009 Z M1009.10833,247.215506 L1010.97037,245.718294 C1011.27445,245.830027 1011.60046,245.890681 1011.93588,245.919412 L1011.93588,250.206738 L1009.75096,249.73427 C1009.7635,249.609768 1009.81679,249.504421 1009.81679,249.379919 C1009.81679,248.56587 1009.52212,247.850784 1009.10833,247.215506 L1009.10833,247.215506 Z M1006.41558,244.087004 L1006.16794,245.424598 C1006.07076,245.418213 1005.97985,245.367136 1005.87954,245.367136 C1005.08018,245.367136 1004.37799,245.670409 1003.75731,246.085414 L1002.95795,245.108556 L1006.41558,244.087004 Z M1081.47404,184.776343 C1081.42075,185.038115 1081.31731,185.283926 1081.31731,185.558468 C1081.31731,186.353363 1081.6057,187.052488 1081.99755,187.678188 L1015.16467,239.314441 C1014.65371,238.743011 1013.99227,238.359929 1013.23993,238.158811 L1024.18648,164.891198 L1081.47404,184.776343 Z M1088.19808,188.166618 C1088.67143,187.614341 1088.95983,186.931178 1089.07895,186.177784 L1126.61758,187.183374 L1099.24494,200.160275 L1088.19808,188.166618 Z M1083.91915,189.296709 C1084.34234,189.453135 1084.78434,189.571251 1085.26082,189.571251 C1086.15423,189.571251 1086.94418,189.213708 1087.60562,188.69974 L1098.48947,200.52101 L1072.34879,212.910519 L1083.91915,189.296709 Z M1022.22099,236.674368 L1082.40193,188.291119 C1082.61509,188.524161 1082.88468,188.686971 1083.148,188.86255 L1071.0604,213.520257 L1022.22099,236.674368 Z M1008.7353,246.65046 C1008.68514,246.599383 1008.64125,246.54192 1008.59423,246.490843 L1009.82933,245.057478 C1009.97666,245.178787 1010.1428,245.284135 1010.30894,245.38629 L1008.7353,246.65046 Z M1007.33093,243.815654 L1008.60677,243.442149 C1008.81367,243.984849 1009.13341,244.463701 1009.53779,244.859552 L1008.3027,246.292917 C1007.92026,245.980067 1007.4908,245.750218 1007.00805,245.600177 L1007.33093,243.815654 Z M1009.28701,239.407019 C1008.70395,240.106144 1008.31211,240.980848 1008.31211,241.970476 C1008.31211,242.225864 1008.40928,242.452521 1008.4563,242.695139 L1007.48453,242.982451 L1008.33405,238.372698 L1009.28701,239.407019 Z M1015.5189,239.850756 L1015.5189,239.850756 L1058.46811,206.666283 L1019.59407,237.922577 L1015.5189,239.850756 Z M1128.67084,186.2129 L1089.11657,185.149847 C1089.1103,185.057269 1089.08208,184.977461 1089.06954,184.888075 L1189.27811,157.478562 L1128.67084,186.2129 Z M1229.95463,115.026699 L1180.06194,46.7998053 L1258.75358,82.8605851 L1229.95463,115.026699 Z M1288.17635,105.436881 L1241.17076,130.36913 L1230.44992,115.706669 L1259.5404,83.2213206 L1288.56505,96.5238409 L1288.17635,105.436881 Z M1288.96944,105.851886 L1295.08534,102.605267 C1295.6057,103.422508 1296.37999,104.0099 1297.32668,104.271673 L1296.32356,111.834349 L1285.55256,184.074026 L1288.96944,105.851886 Z M1197.71372,156.900747 C1197.8109,156.546396 1197.92688,156.19843 1197.92688,155.815348 C1197.92688,155.279033 1197.81403,154.768257 1197.62908,154.298982 L1240.75071,131.422606 L1282.14195,188.026154 C1281.80026,188.354966 1281.53068,188.75401 1281.32378,189.197747 L1197.71372,156.900747 Z M1196.89869,153.175275 L1229.79476,116.437717 L1240.31498,130.825636 L1197.23724,153.676474 C1197.12439,153.507279 1197.03348,153.328508 1196.89869,153.175275 L1196.89869,153.175275 Z M1282.93191,187.480263 L1241.61276,130.969292 L1288.14186,106.289238 L1284.6184,186.950333 C1283.99772,186.988641 1283.44287,187.183374 1282.93191,187.480263 L1282.93191,187.480263 Z M1294.62766,99.301185 C1294.51168,99.6746899 1294.39569,100.051387 1294.39569,100.466393 C1294.39569,101.002707 1294.50541,101.510291 1294.69349,101.982759 L1289.00705,104.999529 L1289.35815,96.8845764 L1294.62766,99.301185 Z M1178.26886,45.9761791 L1229.29633,115.757747 L1196.27487,152.63896 C1195.62284,152.150531 1194.85796,151.802565 1193.98337,151.802565 C1193.88306,151.802565 1193.80155,151.856835 1193.69811,151.863219 L1176.2156,45.0376283 L1178.26886,45.9761791 Z M911.338605,133.146474 L1007.60679,237.58738 L1006.56918,243.250608 L1002.43445,244.470086 L911.338605,133.146474 Z M897.862313,123.400231 C898.088015,123.891853 898.404625,124.319628 898.790199,124.680363 L891.555195,135.157654 L891.414131,125.612529 L897.862313,123.400231 Z M897.614668,122.394641 C897.627207,122.464873 897.639746,122.525527 897.658554,122.592567 L891.401592,124.737826 L891.370245,122.701107 L897.614668,122.394641 Z M891.583408,136.878331 L899.611504,125.245409 C899.978269,125.443335 900.376383,125.551875 900.799574,125.625299 L893.489336,263.30814 L891.583408,136.878331 Z M767.964529,170.726812 C768.368911,170.09792 768.663578,169.389218 768.663578,168.578361 C768.663578,168.27828 768.556996,168.010123 768.491167,167.729196 L890.392203,125.963688 L890.552075,136.616558 L830.527876,223.560196 L767.964529,170.726812 Z M789.785526,279.439082 C789.613114,279.439082 789.465781,279.515698 789.302774,279.538045 L765.908132,172.351718 C766.481792,172.160177 767.00843,171.882443 767.437891,171.464245 L830.010642,224.310399 L791.600546,279.946666 C791.051965,279.649777 790.453228,279.439082 789.785526,279.439082 L789.785526,279.439082 Z M747.529091,181.328605 L787.895271,279.997743 C787.832576,280.036051 787.776151,280.083937 787.716591,280.125437 L722.328833,199.135531 L747.529091,181.328605 Z M697.57371,168.479398 L710.705179,151.853642 L739.143634,160.840106 L747.143517,180.399631 L721.711288,198.369367 L697.57371,168.479398 Z M614.007536,274.280245 L696.968703,169.251947 L720.924465,198.924835 L614.095309,274.414324 C614.060826,274.376016 614.045153,274.318553 614.007536,274.280245 L614.007536,274.280245 Z M673.856189,143.875961 C674.633607,143.875961 675.313848,143.588649 675.925124,143.189606 L696.341753,168.479398 L613.220713,273.715199 C613.211309,273.708815 613.19877,273.70243 613.186231,273.696045 L672.599154,143.617381 C672.997267,143.757844 673.40792,143.875961 673.856189,143.875961 L673.856189,143.875961 Z M669.959694,140.096219 L536.563529,164.20165 C536.522777,164.077148 536.532181,163.936685 536.482025,163.818568 L627.408593,109.251738 L670.407964,138.024384 C670.116432,138.583045 669.912673,139.186399 669.912673,139.859985 C669.912673,139.946179 669.953425,140.01641 669.959694,140.096219 L669.959694,140.096219 Z M761.077482,167.081149 L739.917917,160.399562 L729.012121,133.743444 C729.253497,133.60298 729.491738,133.456132 729.698631,133.274168 L761.792205,165.957442 C761.500673,166.292639 761.243624,166.659759 761.077482,167.081149 L761.077482,167.081149 Z M761.811014,171.234396 C762.535141,172.05483 763.55707,172.594337 764.720062,172.594337 C764.892473,172.594337 765.039807,172.51772 765.209083,172.495374 L788.450122,279.020884 L748.268892,180.80506 L761.811014,171.234396 Z M761.271837,170.417155 L747.889588,179.876086 L740.240797,161.191265 L760.948957,167.729196 C760.886262,168.013315 760.779681,168.27828 760.779681,168.578361 C760.779681,169.251947 760.986574,169.858493 761.271837,170.417155 L761.271837,170.417155 Z M725.087414,133.644481 C725.689286,134.02437 726.363257,134.305297 727.121867,134.305297 C727.501171,134.305297 727.845994,134.18718 728.193951,134.07864 L738.81762,160.048403 L711.140909,151.301366 L725.087414,133.644481 Z M677.627294,140.70915 C677.686854,140.428223 677.79657,140.163258 677.79657,139.859985 C677.79657,139.8121 677.774627,139.773792 677.768357,139.725907 L723.416592,131.480068 C723.601542,132.08023 723.88367,132.635698 724.303726,133.079435 L710.156598,150.988516 L677.627294,140.70915 Z M677.498769,141.357197 L709.720868,151.540792 L696.956164,167.70685 L676.696273,142.614983 C677.037961,142.254247 677.313819,141.829665 677.498769,141.357197 L677.498769,141.357197 Z M831.29589,224.208243 L890.574018,138.334042 L892.614741,273.1725 C891.793436,273.303386 891.041096,273.625814 890.470572,274.181282 L831.29589,224.208243 Z M708.319634,64.1055318 C708.582953,64.1055318 708.814925,63.996992 709.06257,63.9491067 L725.827215,126.541503 C724.889924,126.879892 724.140719,127.559863 723.679911,128.437759 L685.573886,113.510333 L707.037521,63.8405668 C707.441904,63.9810302 707.865095,64.1055318 708.319634,64.1055318 L708.319634,64.1055318 Z M224.270297,186.027744 C224.289105,185.88728 224.348666,185.762779 224.348666,185.619123 L319.102764,178.768341 C319.341005,180.252783 320.319047,181.44353 321.688933,181.909613 L316.444495,209.073314 L224.270297,186.027744 Z M615.060812,276.728777 C615.013791,276.18927 614.872727,275.691264 614.637621,275.231565 L721.545146,199.690999 L786.945442,280.696868 C786.412534,281.271491 786.095925,282.0185 785.9674,282.835742 L615.060812,276.728777 Z M793.613056,282.870858 C793.475127,281.941884 793.073879,281.115065 792.424985,280.511711 L830.775521,224.958446 L889.937664,274.9251 C889.55209,275.525261 889.282501,276.20204 889.263693,276.965011 L793.613056,282.870858 Z M1180.96788,283.713638 C1180.47259,283.247555 1179.84878,282.960243 1179.16227,282.803818 L1190.40975,188.894473 L1212.26523,189.485058 L1236.82914,233.51075 L1180.96788,283.713638 Z M1504.07287,73.1366885 L1491.14829,91.993897 L1432.87329,151.339674 L1501.08545,69.9634932 L1504.07287,73.1366885 Z M1504.48979,72.5301421 L1501.54626,69.4176014 L1529.42046,36.1597044 L1504.48979,72.5301421 Z M1679.17375,25.2546386 C1678.46844,24.5938222 1677.54682,24.1692397 1676.51549,24.1692397 C1674.48417,24.1692397 1672.86664,25.7558374 1672.65347,27.77021 L1542.55507,27.77021 L1697.92583,7.35194262 L1679.17375,25.2546386 Z M1703.95396,6.56023995 L1692.41494,20.2681887 L1679.90729,26.263421 C1679.79757,26.0591106 1679.67531,25.8675697 1679.52798,25.6887981 L1698.86312,7.23063334 L1703.95396,6.56023995 Z M1704.92573,5.40780178 L1700.11075,6.03988698 L1721.91294,-14.7742317 L1704.92573,5.40780178 Z M1725.83765,2.65599652 L1725.83765,2.65918887 L1706.28308,5.22583786 L1724.49911,-16.4087146 C1725.12292,-15.9777474 1725.83451,-15.6680895 1726.64641,-15.6680895 C1726.77494,-15.6680895 1726.88152,-15.7287442 1727.00378,-15.7415136 L1729.04136,-1.20674636 C1727.23261,-0.846010867 1725.83765,0.705470985 1725.83765,2.65599652 L1725.83765,2.65599652 Z M1726.12918,4.11490024 L1694.44312,19.2977144 L1705.31444,6.38146838 L1726.04141,3.66158661 C1726.07902,3.80843469 1726.07589,3.97443686 1726.12918,4.11490024 L1726.12918,4.11490024 Z M1509.51793,72.8046842 L1533.73074,31.7063769 C1534.27619,31.9936883 1534.86552,32.191614 1535.51755,32.191614 C1536.42036,32.191614 1537.21032,31.8308785 1537.87802,31.3137179 L1563.61745,59.6266655 L1510.95678,74.5221682 C1510.66525,73.8070819 1510.13861,73.2452284 1509.51793,72.8046842 L1509.51793,72.8046842 Z M1503.39576,75.9491484 C1503.39576,75.9810719 1503.37696,76.0129954 1503.37696,76.0449189 C1503.37696,77.0153932 1503.75626,77.8773275 1504.32365,78.5764521 L1495.28303,87.7863804 L1503.39576,75.9491484 Z M1509.10101,72.5173727 C1508.55556,72.2300613 1507.96937,72.0289433 1507.3142,72.0289433 C1506.80324,72.0289433 1506.32676,72.1470602 1505.88162,72.3290241 L1529.61168,37.7079939 L1509.10101,72.5173727 Z M1680.2333,27.0647007 C1680.20195,26.9561608 1680.20822,26.8316592 1680.16434,26.7231193 L1691.59677,21.2450476 L1688.08898,25.4078713 L1680.2333,27.0647007 Z M1674.49357,31.5435671 C1675.09231,31.9202643 1675.75688,32.191614 1676.51549,32.191614 C1678.68787,32.191614 1680.45587,30.3975136 1680.45587,28.182023 C1680.45587,28.0096362 1680.38063,27.8659804 1680.36182,27.7031706 L1687.41188,26.2155358 L1620.82665,105.328341 L1674.49357,31.5435671 Z M1672.87291,29.698389 C1673.10488,30.273012 1673.47791,30.7518644 1673.92618,31.1541004 L1615.87061,110.972415 C1615.27187,110.595717 1614.60417,110.321175 1613.85183,110.321175 C1612.94588,110.321175 1612.15593,110.681911 1611.48823,111.202264 L1565.10332,60.188519 L1672.87291,29.698389 Z M1538.42033,30.8412502 C1538.95951,30.2283191 1539.28552,29.4493858 1539.37643,28.5938361 L1672.65347,28.5938361 C1672.65974,28.6544908 1672.68169,28.7119531 1672.68796,28.7726077 L1564.39801,59.4063934 L1538.42033,30.8412502 Z M1426.22448,-4.0607068 C1426.7762,-3.50843034 1427.50659,-3.19558009 1428.29655,-3.04873201 L1421.05214,154.426676 L1327.62091,76.9834697 L1426.22448,-4.0607068 Z M704.495239,60.6737561 C704.54853,61.0121452 704.564203,61.3569189 704.695863,61.6601921 L644.862883,97.5677392 L567.94238,67.4351524 C567.99567,67.1989185 568.06777,66.965877 568.080309,66.7168737 L704.495239,60.6737561 Z M554.654173,-69.9444156 L563.528651,62.5955505 C561.679148,62.9243625 560.246568,64.4949985 560.246568,66.4710628 C560.246568,66.5317175 560.28105,66.5859874 560.28105,66.6434497 L470.696155,78.3593723 C470.495531,77.4112445 469.993971,76.6131571 469.260439,76.0449189 L553.215323,-70.2540735 C553.657322,-70.0625325 554.146343,-69.9635697 554.654173,-69.9444156 L554.654173,-69.9444156 Z M209.9727,100.922899 L319.494608,176.284693 C319.20621,176.833777 319.002452,177.430746 318.989913,178.094755 L224.238949,184.939152 C223.938013,183.030127 222.380042,181.548877 220.420823,181.548877 C220.314242,181.548877 220.229604,181.596762 220.123022,181.606339 L207.891226,102.206223 C208.72507,102.005105 209.439793,101.570945 209.9727,100.922899 L209.9727,100.922899 Z M5.68729102,398.382832 L89.4572241,255.19638 C89.9462451,255.419844 90.4854222,255.557115 91.0590815,255.557115 C91.5136203,255.557115 91.9368116,255.438998 92.3474639,255.29215 L129.908042,340.62046 C128.701163,341.306815 127.851646,342.570985 127.851646,344.077774 C127.851646,344.505549 127.967632,344.901401 128.089887,345.287675 L6.69668062,399.560809 C6.4333616,399.097918 6.09794331,398.708451 5.68729102,398.382832 L5.68729102,398.382832 Z M711.454384,410.264756 C710.736527,410.264756 710.093903,410.51376 709.517109,410.858533 L613.872741,279.978589 C614.493422,279.38162 614.863323,278.577148 615.004386,277.686482 L785.914109,283.793447 C786.014421,284.936308 786.575541,285.913167 787.421924,286.577175 L713.122072,410.673377 C712.611107,410.424374 712.056257,410.264756 711.454384,410.264756 L711.454384,410.264756 Z M868.116667,448.553796 C867.690341,448.553796 867.292228,448.675105 866.906653,448.802799 L791.854461,286.781486 C792.926546,286.088746 793.672616,284.933115 793.710233,283.557213 L889.357735,277.648174 C889.595976,279.228387 890.686869,280.463826 892.172741,280.878832 L868.223248,448.576143 C868.185631,448.576143 868.154284,448.553796 868.116667,448.553796 L868.116667,448.553796 Z M1274.88187,293.226839 C1274.43674,292.830988 1273.9101,292.569215 1273.32076,292.409598 L1286.32057,194.627933 C1287.59015,194.104388 1288.46788,192.913641 1288.67477,191.499431 L1383.67965,195.997451 L1274.88187,293.226839 Z M-80.6719458,323.905318 L87.6798206,253.494858 C87.9431397,253.957748 88.2816927,254.347215 88.6954797,254.672835 L4.92868144,397.862479 C4.43652564,397.639014 3.90048333,397.498551 3.32368927,397.498551 C2.25787416,397.498551 1.29864056,397.942287 0.587052233,398.641412 L-81.2518746,327.212592 C-80.7942011,326.551776 -80.468187,325.795189 -80.468187,324.936447 C-80.468187,324.569327 -80.5810381,324.243707 -80.6719458,323.905318 L-80.6719458,323.905318 Z M1767.37936,5.02152749 C1766.12546,5.02152749 1765.05964,5.65680504 1764.33865,6.58577874 L1729.96611,-17.6473462 C1730.32661,-18.2507003 1730.58993,-18.9210937 1730.58993,-19.6840652 C1730.58993,-21.8995557 1728.82506,-23.6968485 1726.64641,-23.6968485 C1724.4709,-23.6968485 1722.70603,-21.8995557 1722.70603,-19.6840652 C1722.70603,-19.5276401 1722.77813,-19.3967537 1722.79381,-19.243521 L1539.17267,26.7390811 C1538.59901,25.2418692 1537.19151,24.1692397 1535.51755,24.1692397 C1533.88748,24.1692397 1532.49252,25.1716375 1531.88751,26.6081947 L1432.75103,-6.05273288 C1432.81686,-6.34004434 1432.92344,-6.61458639 1432.92344,-6.92105195 C1432.92344,-9.13335014 1431.16171,-10.9306429 1428.97993,-10.9306429 C1426.80754,-10.9306429 1425.03955,-9.13335014 1425.03955,-6.92105195 C1425.03955,-6.5571241 1425.15553,-6.23469681 1425.2433,-5.90269246 L1294.58064,45.5100961 C1293.92234,44.2203869 1292.64337,43.3137596 1291.11988,43.3137596 C1289.28918,43.3137596 1287.81898,44.6066612 1287.37072,46.3273375 L1135.1347,24.0032376 C1135.1347,23.9585447 1135.15978,23.9266212 1135.15978,23.8819283 C1135.15978,21.6664377 1133.39178,19.8659526 1131.21626,19.8659526 C1129.04388,19.8659526 1127.27275,21.6664377 1127.27275,23.8819283 C1127.27275,24.6225534 1127.52666,25.2801774 1127.87462,25.8771467 L1037.11733,92.5749046 C1036.39633,91.7321243 1035.36814,91.1766555 1034.18634,91.1766555 C1032.38699,91.1766555 1030.9356,92.4280565 1030.45912,94.1008476 L893.943875,69.925185 C893.950144,69.8326068 893.997166,69.7559904 893.997166,69.6634123 C893.997166,67.4447294 892.229166,65.650629 890.05365,65.650629 C888.113239,65.650629 886.577212,67.0999557 886.248063,68.9802495 L712.206725,59.8086294 C712.059391,57.7304099 710.401108,56.0735805 708.319634,56.0735805 C707.30711,56.0735805 706.407436,56.4917783 705.714657,57.1270559 L558.033434,-71.7832089 C558.437817,-72.4121017 558.732483,-73.1208033 558.732483,-73.9284677 C558.732483,-76.1439583 556.964484,-77.9444434 554.788967,-77.9444434 C552.610316,-77.9444434 550.845451,-76.1439583 550.845451,-73.9284677 C550.845451,-73.6890415 550.945763,-73.4783464 550.980246,-73.2484973 L361.832545,-11.8564243 C361.199326,-13.2163651 359.867057,-14.1708776 358.293412,-14.1708776 C356.117896,-14.1708776 354.353031,-12.3735849 354.353031,-10.154902 C354.353031,-9.47173919 354.563059,-8.85880809 354.863995,-8.29376223 L209.888062,95.7034071 C209.163935,94.8957427 208.148276,94.3658126 206.991553,94.3658126 C204.812901,94.3658126 203.048037,96.1662978 203.048037,98.378596 C203.048037,99.4927259 203.496306,100.498316 204.217299,101.226172 L93.0183005,248.138095 C92.4321021,247.786937 91.7863436,247.531549 91.0590815,247.531549 C88.88043,247.531549 87.1187003,249.328842 87.1187003,251.54114 C87.1187003,251.90826 87.2315513,252.23388 87.3193244,252.572269 L-81.0324421,322.982729 C-81.7126829,321.772829 -82.9415051,320.920471 -84.4085682,320.920471 C-86.5840849,320.920471 -88.3489494,322.714572 -88.3489494,324.936447 C-88.3489494,327.148745 -86.5840849,328.946038 -84.4085682,328.946038 C-83.3396183,328.946038 -82.3803847,328.508686 -81.6687964,327.803177 L0.163860938,399.238381 C-0.29067786,399.892813 -0.619826644,400.6494 -0.619826644,401.514526 C-0.619826644,403.730017 1.14817254,405.530502 3.32368927,405.530502 C4.79388717,405.530502 6.02584405,404.674952 6.69981538,403.458667 L146.873311,464.202693 C146.76673,464.569814 146.650744,464.930549 146.650744,465.329593 C146.650744,467.545083 148.415608,469.345568 150.591125,469.345568 C152.766642,469.345568 154.534641,467.545083 154.534641,465.329593 C154.534641,464.659199 154.330882,464.059038 154.042485,463.500376 L282.360355,375.369184 C283.081348,376.234311 284.122085,376.812126 285.322694,376.812126 C287.306991,376.812126 288.880636,375.292568 289.156494,373.354812 L466.329448,376.413082 C466.552015,378.42107 468.160142,380.004476 470.188325,380.004476 C471.595828,380.004476 472.77136,379.209581 473.470409,378.076296 L635.687469,454.555413 C635.565214,454.941687 635.449228,455.334346 635.449228,455.758929 C635.449228,457.974419 637.210958,459.774905 639.386474,459.774905 C641.565126,459.774905 643.326856,457.974419 643.326856,455.758929 C643.326856,455.152383 643.176388,454.587337 642.935012,454.070176 L708.2444,416.477068 C708.952854,417.543313 710.093903,418.293515 711.454384,418.293515 C713.156554,418.293515 714.576596,417.176193 715.128312,415.637481 L864.273463,452.087727 C864.254655,452.253729 864.179421,452.397385 864.179421,452.566579 C864.179421,454.785262 865.944285,456.582555 868.116667,456.582555 C870.298453,456.582555 872.060183,454.785262 872.060183,452.566579 C872.060183,451.794031 871.78746,451.11406 871.414424,450.497937 L1009.51272,337.377033 C1010.22117,338.07935 1011.18354,338.519894 1012.25562,338.519894 C1013.83554,338.519894 1015.18348,337.555804 1015.81356,336.179902 L1171.39749,387.978965 C1171.3442,388.237545 1171.24702,388.476971 1171.24702,388.751513 C1171.24702,390.963811 1173.00875,392.764296 1175.18427,392.764296 C1177.36292,392.764296 1179.12465,390.963811 1179.12465,388.751513 C1179.12465,387.835309 1178.77356,387.034029 1178.26886,386.357251 L1269.75028,299.202918 C1270.44306,299.819041 1271.32393,300.230854 1272.31764,300.230854 C1274.49003,300.230854 1276.26116,298.430369 1276.26116,296.218071 C1276.26116,295.566832 1276.07621,294.982632 1275.80662,294.439932 L1416.61334,199.860194 C1417.33433,200.725321 1418.37507,201.312713 1419.58194,201.312713 C1421.7606,201.312713 1423.52546,199.51542 1423.52546,197.296737 C1423.52546,196.125145 1423.01136,195.097208 1422.22767,194.359776 L1451.91063,153.3317 L1610.18417,115.722631 C1610.74215,117.248574 1612.15593,118.349934 1613.85183,118.349934 C1616.02421,118.349934 1617.78907,116.549449 1617.78907,114.333959 C1617.78907,113.679527 1617.59785,113.08575 1617.32513,112.536666 L1764.4421,11.6424603 C1765.16309,12.4884329 1766.19442,13.0470941 1767.37936,13.0470941 C1769.55488,13.0470941 1771.32288,11.2498013 1771.32288,9.03750315 C1771.32288,6.81882026 1769.55488,5.02152749 1767.37936,5.02152749 L1767.37936,5.02152749 Z" id="Fill-10"></path>
            </g>
        </g>
    </g>
</svg>