<?xml version="1.0" encoding="UTF-8"?>
<svg width="30px" height="70px" viewBox="0 0 30 70" version="1.1" xmlns="http://www.w3.org/2000/svg" xmlns:xlink="http://www.w3.org/1999/xlink">
    <!-- Generator: Sketch 53 (72520) - https://sketchapp.com -->
    <title>Group</title>
    <desc>Created with Sketch.</desc>
    <defs>
        <polygon id="path-1" points="0 0.885 29.5016 0.885 29.5016 53.9997029 0 53.9997029"></polygon>
    </defs>
    <g id="Page-1" stroke="none" stroke-width="1" fill="none" fill-rule="evenodd">
        <g id="Amministrazioni_1.0" transform="translate(-803.000000, -1511.000000)">
            <g id="Group-15" transform="translate(113.000000, 1064.000000)">
                <g id="Group-16" transform="translate(652.000000, 1.000000)">
                    <g id="Group-13" transform="translate(0.000000, 446.000000)">
                        <g id="Group" transform="translate(38.000000, 0.000000)">
                            <path d="M21.8642,8.0242 C21.8642,11.9302 18.6972,15.0972 14.7912,15.0972 C10.8852,15.0972 7.7182,11.9302 7.7182,8.0242 C7.7182,4.1182 10.8852,0.9512 14.7912,0.9512 C18.6972,0.9512 21.8642,4.1182 21.8642,8.0242" id="Fill-16" fill="#337AB7"></path>
                            <g id="Group-20" transform="translate(0.000000, 15.942000)">
                                <mask id="mask-2" fill="white">
                                    <use xlink:href="#path-1"></use>
                                </mask>
                                <g id="Clip-19"></g>
                                <path d="M6.0796,20.739 L6.0796,9.575 C6.0796,9.299 6.3036,9.074 6.5806,9.074 C6.8566,9.074 7.0816,9.299 7.0816,9.575 L7.0816,18.175 L6.0796,20.739 Z M23.0176,9.074 L23.0176,9.074 C23.2946,9.074 23.5186,9.299 23.5186,9.575 L23.5186,20.988 L22.5166,18.423 L22.5166,9.575 C22.5166,9.299 22.7416,9.074 23.0176,9.074 L23.0176,9.074 Z M29.5016,36.301 L25.5986,26.311 C27.2696,24.849 28.3346,22.713 28.3346,20.318 L28.3346,8.867 C28.3346,4.459 24.7616,0.885 20.3526,0.885 L9.1486,0.885 C4.7406,0.885 1.1666,4.459 1.1666,8.867 L1.1666,20.318 C1.1666,22.713 2.2326,24.848 3.9026,26.311 L-0.0004,36.301 L7.0816,36.301 L7.0816,50.24 C7.0816,52.216 8.6036,53.939 10.5786,53.998 C12.6226,54.06 14.2986,52.421 14.2986,50.391 L14.2986,36.301 L15.3006,36.301 L15.3006,50.24 C15.3006,52.216 16.8226,53.939 18.7976,53.998 C20.8416,54.06 22.5166,52.421 22.5166,50.391 L22.5166,36.301 L29.5016,36.301 Z" id="Fill-18" fill="#337AB7" mask="url(#mask-2)"></path>
                            </g>
                        </g>
                    </g>
                </g>
            </g>
        </g>
    </g>
</svg>