<?xml version="1.0" encoding="UTF-8"?>
<svg width="11px" height="3px" viewBox="0 0 11 3" version="1.1" xmlns="http://www.w3.org/2000/svg" xmlns:xlink="http://www.w3.org/1999/xlink">
    <!-- Generator: sketchtool 52.5 (67469) - http://www.bohemiancoding.com/sketch -->
    <title>00F7EECE-013A-4555-B55F-08743A2F6F06</title>
    <desc>Created with sketchtool.</desc>
    <g id="Symbols" stroke="none" stroke-width="1" fill="none" fill-rule="evenodd">
        <g id="modulo_news_medium" transform="translate(-322.000000, -336.000000)" fill="#337AB7" fill-rule="nonzero">
            <g id="item_news_-2">
                <g id="item_news_">
                    <g id="item_news_small" transform="translate(19.000000, 10.000000)">
                        <g id="tag_more" transform="translate(296.000000, 315.000000)">
                            <g id="Shape">
                                <path d="M9.85714283,11.7142857 L9.85714283,13.1428572 C9.85714283,13.3412708 9.78769917,13.50992 9.6488095,13.6488095 C9.50992,13.7876992 9.34127083,13.8571428 9.14285717,13.8571428 L7.71428567,13.8571428 C7.515872,13.8571428 7.34722283,13.7876992 7.20833333,13.6488095 C7.06944367,13.50992 7,13.3412708 7,13.1428572 L7,11.7142857 C7,11.515872 7.06944367,11.3472228 7.20833333,11.2083333 C7.34722283,11.0694438 7.515872,11 7.71428567,11 L9.14285717,11 C9.34127083,11 9.50992,11.0694438 9.6488095,11.2083333 C9.78769917,11.3472228 9.85714283,11.515872 9.85714283,11.7142857 Z M13.6666667,11.7142857 L13.6666667,13.1428572 C13.6666667,13.3412708 13.5972228,13.50992 13.4583333,13.6488095 C13.3194437,13.7876992 13.1507947,13.8571428 12.952381,13.8571428 L11.5238095,13.8571428 C11.3253958,13.8571428 11.1567467,13.7876992 11.0178572,13.6488095 C10.8789675,13.50992 10.8095238,13.3412708 10.8095238,13.1428572 L10.8095238,11.7142857 C10.8095238,11.515872 10.8789675,11.3472228 11.0178572,11.2083333 C11.1567467,11.0694438 11.3253958,11 11.5238095,11 L12.952381,11 C13.1507947,11 13.3194437,11.0694438 13.4583333,11.2083333 C13.5972228,11.3472228 13.6666667,11.515872 13.6666667,11.7142857 Z M17.4761905,11.7142857 L17.4761905,13.1428572 C17.4761905,13.3412708 17.4067467,13.50992 17.2678572,13.6488095 C17.1289675,13.7876992 16.9603185,13.8571428 16.7619048,13.8571428 L15.3333333,13.8571428 C15.1349197,13.8571428 14.9662705,13.7876992 14.827381,13.6488095 C14.6884913,13.50992 14.6190477,13.3412708 14.6190477,13.1428572 L14.6190477,11.7142857 C14.6190477,11.515872 14.6884913,11.3472228 14.827381,11.2083333 C14.9662705,11.0694438 15.1349197,11 15.3333333,11 L16.7619048,11 C16.9603185,11 17.1289675,11.0694438 17.2678572,11.2083333 C17.4067467,11.3472228 17.4761905,11.515872 17.4761905,11.7142857 Z"></path>
                            </g>
                        </g>
                    </g>
                </g>
            </g>
        </g>
    </g>
</svg>