<?xml version="1.0" encoding="UTF-8"?>
<svg width="70px" height="70px" viewBox="0 0 70 70" version="1.1" xmlns="http://www.w3.org/2000/svg" xmlns:xlink="http://www.w3.org/1999/xlink">
    <!-- Generator: sketchtool 52.5 (67469) - http://www.bohemiancoding.com/sketch -->
    <title>B7C7FF2E-06CD-481C-A545-7C0ABB08E4E1</title>
    <desc>Created with sketchtool.</desc>
    <g id="Page-1" stroke="none" stroke-width="1" fill="none" fill-rule="evenodd" opacity="0.2">
        <g id="storia_timeline" transform="translate(-275.000000, -873.000000)" fill="#145491">
            <g id="Group-18" transform="translate(16.000000, 865.000000)">
                <g id="Group-17" transform="translate(0.000000, 8.000000)">
                    <g id="icona-1949" transform="translate(259.000000, 0.000000)">
                        <path d="M69.7164453,67.7996484 L62.3426563,58.2069141 C62.1129688,57.9073633 61.769668,57.7166406 61.3936914,57.6793164 C56.3911523,57.1831641 53.7203516,56.1208594 51.573457,55.2669141 C49.6742969,54.5118164 47.7111523,53.7310156 45.1774805,53.7310156 C41.318457,53.7310156 38.3683398,55.7887695 36.3671875,58.120918 L36.3671875,58.0701953 C37.4817188,55.500293 40.4527539,51.4452148 45.0681055,51.4452148 C47.0536719,51.4452148 48.5998242,52.0604492 50.3915234,52.7728906 C51.8864063,53.3673437 56.7470117,55.1075391 59.4670312,55.6790234 C60.2061328,55.8343359 60.9308789,55.3611523 61.0861914,54.6220508 C61.2410938,53.8834961 60.7679102,53.1582031 60.0293555,53.0033008 C57.5390234,52.4799414 52.872832,50.8171289 51.4014648,50.2318359 C49.521582,49.4841211 47.5775781,48.7108398 45.0681055,48.7108398 C40.263125,48.7108398 36.8815234,51.9307031 35,54.8631836 C33.1184766,51.9307031 29.736875,48.7108398 24.9313477,48.7108398 C22.4224219,48.7108398 20.4778711,49.4841211 18.5974414,50.2323828 C16.4757031,51.0762109 13.834707,52.1267578 8.88835938,52.6168945 C8.13695313,52.6916797 7.5884375,53.360918 7.66267578,54.1123242 C7.73746094,54.8637305 8.40710938,55.4122461 9.15851563,55.3380078 C14.4874023,54.8093164 17.4470898,53.632168 19.6084766,52.7728906 C21.3992188,52.0604492 22.9457813,51.4452148 24.9313477,51.4452148 C29.5472461,51.4452148 32.5188281,55.5008398 33.6328125,58.0707422 L33.6328125,58.120918 C31.6311133,55.7887695 28.681543,53.7304687 24.8219727,53.7304687 C22.2888477,53.7304687 20.3251563,54.5118164 18.4250391,55.2674609 C16.2791016,56.1208594 13.6088477,57.1831641 8.60576172,57.6793164 C8.23033203,57.7166406 7.88703125,57.9073633 7.65679688,58.2069141 L0.283554688,67.7996484 C-0.0341796875,68.2125391 -0.089140625,68.7700781 0.140957031,69.2373828 C0.371191406,69.7041406 0.846425781,70 1.3671875,70 L68.6328125,70 C69.1535742,70 69.6288086,69.7041406 69.859043,69.2373828 C70.0891406,68.7700781 70.0341797,68.2125391 69.7164453,67.7996484 Z M45.1774805,56.4648437 C47.1872461,56.4648437 48.7514453,57.0870508 50.5640625,57.8079687 C52.6661133,58.6442773 55.5162891,59.7775391 60.5322266,60.3378125 L65.8429297,67.2468945 C56.7057422,67.0498828 52.3691602,65.3249023 49.4420117,64.1606055 C47.7431445,63.4850781 46.6210938,63.0385547 45.1774805,63.0385547 C42.650918,63.0385547 40.9189648,64.9349805 40.2011914,66.5638477 C40.1947656,66.5766992 40.1883398,66.5895508 40.1819141,66.6028125 L39.8706055,67.265625 L36.3671875,67.265625 L36.3671875,63.1741797 C37.4940234,60.5733789 40.5023828,56.4648437 45.1774805,56.4648437 Z M9.46777344,60.3378125 C14.4837109,59.7775391 17.3333398,58.6438672 19.4370312,57.8074219 C21.2480078,57.0870508 22.8127539,56.4648437 24.8219727,56.4648437 C29.4970703,56.4648437 32.5059766,60.5733789 33.6328125,63.1741797 L33.6328125,67.265625 L30.1288477,67.265625 L29.8180859,66.6028125 C29.8116602,66.5895508 29.8052344,66.5766992 29.7988086,66.5638477 C29.0804883,64.9349805 27.349082,63.0385547 24.8225195,63.0385547 C23.3789062,63.0385547 22.2568555,63.4850781 20.5579883,64.1606055 C17.6308398,65.3249023 13.2937109,67.0498828 4.15707031,67.2468945 L9.46777344,60.3378125 Z M21.5690234,66.7011133 C23.0740234,66.1024219 23.9028125,65.7729297 24.8219727,65.7729297 C26.0017188,65.7729297 26.7424609,66.7011133 27.0842578,67.265625 L20.1222656,67.265625 C20.6423438,67.0695703 21.1208594,66.8795312 21.5690234,66.7011133 Z M42.9157422,67.265625 C43.2575391,66.7011133 43.9982813,65.7729297 45.1774805,65.7729297 C46.0971875,65.7729297 46.9259766,66.1024219 48.4315234,66.7016602 C48.8791406,66.8795312 49.3582031,67.0695703 49.8777344,67.265625 L42.9157422,67.265625 Z" id="Fill-1"></path>
                        <path d="M30.3851953,33.6381445 C30.03,33.6686328 29.698457,33.8367969 29.4645313,34.1096875 C29.2043555,34.4125195 29.0900586,34.8136523 29.1504883,35.2078125 C29.7170508,38.8986719 31.6814258,41.4204492 34.5492383,42.2850586 C34.4836133,42.8019922 34.4226367,43.3196094 34.3682227,43.8385937 L33.640332,50.7808984 C33.5617187,51.5317578 34.106543,52.2046875 34.8574023,52.2831641 C34.9059375,52.2884961 34.9540625,52.2906836 35.0016406,52.2906836 C35.6926172,52.2906836 36.2859766,51.7688281 36.359668,51.0660937 L37.0876953,44.1237891 C37.1404687,43.6191602 37.1998047,43.116582 37.262832,42.6150977 C43.6223047,42.5366211 47.5049805,38.481543 49.4484375,29.9072266 C49.6647266,28.9533398 49.9269531,27.8425 50.2286914,26.6051953 C50.3242578,26.2130859 50.2419531,25.7992383 50.0032422,25.4734375 C49.9146484,25.3528516 49.8078711,25.2486719 49.6882422,25.1643164 L50.225957,24.8566992 C50.5490234,24.6724023 50.7829492,24.3636914 50.8733203,24.0026172 C53.2620703,14.4964258 56.7590625,1.85910156 56.7943359,1.7325 C56.9123242,1.30730469 56.8178516,0.851757812 56.5407227,0.509003906 C56.2640039,0.165566406 55.8367578,-0.0240625 55.3983008,0.002734375 C54.9352344,0.0288476562 43.9519336,0.8225 34.9235742,15.5106055 C34.8114648,15.6927148 34.7025,15.8733203 34.5946289,16.0543359 C34.4285156,16.330918 34.3660352,16.6578125 34.4173047,16.9760937 L35.1019922,21.1914062 L32.7805078,21.1914062 C32.2325391,21.1914062 31.7380273,21.5183008 31.5226953,22.0218359 C30.0588477,25.4521094 29.2177539,28.6719727 29.0222461,31.5932422 C28.9961328,31.9815234 29.1370898,32.362832 29.4094336,32.6410547 L30.3851953,33.6381445 Z M48.3637109,22.7717383 L44.7123633,24.8582031 C44.1890039,25.1573438 43.9230859,25.7639648 44.0581641,26.3514453 C44.1932422,26.9389258 44.6974609,27.3689062 45.29875,27.409375 L47.1920312,27.5365234 C47.0413672,28.1710352 46.9041016,28.7611133 46.7813281,29.3026562 C44.8079297,38.01 41.1635547,39.7291016 37.6632812,39.8742969 C39.6692187,27.7785156 44.7454492,16.5457031 52.5123047,7.02707031 C51.3191602,11.4277734 49.6908398,17.5170898 48.3637109,22.7717383 Z M33.6941992,23.9263281 L36.7089844,23.9263281 C37.1095703,23.9263281 37.490332,23.7500977 37.7503711,23.4445313 C38.01,23.1391016 38.1226562,22.7353711 38.0585352,22.3395703 L37.1970703,17.0337891 C37.2152539,17.0033008 37.2339844,16.9733594 37.2527148,16.9430078 C41.5630469,9.93029297 46.3151172,6.44013672 49.5423633,4.74728516 C50.3066211,4.34615234 51.0233008,4.02513672 51.6775,3.76673828 C46.9730078,9.2290625 43.1128906,15.3349219 40.1980469,21.9363867 C37.7097656,27.5707031 35.9516992,33.4709375 34.9503711,39.5282617 C33.4613672,38.9183594 32.6629297,37.6131055 32.2345898,36.3671875 L33.6328125,36.3671875 C34.1833789,36.3671875 34.6800781,36.0371484 34.8932227,35.5297852 C35.1062305,35.0229688 34.994668,34.4371289 34.609668,34.0435156 L31.8005078,31.1746094 C32.021582,28.9529297 32.6570508,26.5207031 33.6941992,23.9263281 Z" id="Fill-4"></path>
                    </g>
                </g>
            </g>
        </g>
    </g>
</svg>