<?xml version="1.0" encoding="UTF-8"?>
<svg width="70px" height="64px" viewBox="0 0 70 64" version="1.1" xmlns="http://www.w3.org/2000/svg" xmlns:xlink="http://www.w3.org/1999/xlink">
    <!-- Generator: sketchtool 52.5 (67469) - http://www.bohemiancoding.com/sketch -->
    <title>CAF0FA55-005B-4C1A-93BA-5856E8C68E46</title>
    <desc>Created with sketchtool.</desc>
    <g id="Page-1" stroke="none" stroke-width="1" fill="none" fill-rule="evenodd" opacity="0.2">
        <g id="storia_timeline" transform="translate(-275.000000, -2852.000000)" fill="#145491">
            <g id="Group-26" transform="translate(16.000000, 2844.000000)">
                <g id="Group-14" transform="translate(0.000000, 8.000000)">
                    <g id="icona-2017" transform="translate(259.000000, 0.400000)">
                        <path d="M63.3397674,-4.91435952e-14 L17.2580719,-4.91435952e-14 C16.68396,-4.91435952e-14 16.2182617,0.461399489 16.2182617,1.03021197 C16.2182617,1.59902444 16.68396,2.0598947 17.2580719,2.0598947 L63.3397674,2.0598947 C65.86586,2.0598947 67.9209137,4.09597869 67.9209137,6.59822441 L67.9209137,43.2514399 C67.9209137,45.7542147 65.86586,47.7897696 63.3397674,47.7897696 L6.65969855,47.7897696 C4.13413998,47.7897696 2.07908627,45.7542147 2.07908627,43.2514399 L2.07908627,6.59822441 C2.07908627,4.09597869 4.13413998,2.0598947 6.65969855,2.0598947 L20.0993652,2.0598947 C20.6734772,2.0598947 21.1391754,1.59902444 21.1391754,1.03021197 C21.1391754,0.461399489 20.6734772,-5.68434189e-14 20.0993652,-5.68434189e-14 L6.65969855,-5.68434189e-14 C2.98751824,-5.68434189e-14 0,2.95994115 0,6.59822441 L0,43.2514399 C0,46.8897231 2.98751824,49.8496643 6.65969855,49.8496643 L23.37677,49.8496643 L21.3404084,56.4420683 L17.5229645,56.4420683 C15.5736541,56.4420683 13.9885711,58.0130489 13.9885711,59.9438364 C13.9885711,61.875153 15.5736541,63.4456045 17.5229645,63.4456045 L52.4770355,63.4456045 C54.4258118,63.4456045 56.0114289,61.875153 56.0114289,59.9438364 C56.0114289,58.0130489 54.4258118,56.4420683 52.4770355,56.4420683 L48.6595916,56.4420683 L46.62323,49.8496643 L63.3397674,49.8496643 C67.0124818,49.8496643 70,46.8897231 70,43.2514399 L70,6.59822441 C70,2.95994115 67.0124818,-4.91435952e-14 63.3397674,-4.91435952e-14 Z M53.9323425,59.9443655 C53.9323425,60.7391156 53.2791901,61.386239 52.4770355,61.386239 L17.5229645,61.386239 C16.7202759,61.386239 16.0676575,60.7391156 16.0676575,59.9443655 C16.0676575,59.1490863 16.7202759,58.5024921 17.5229645,58.5024921 L52.4770355,58.5024921 C53.2791901,58.5024921 53.9323425,59.1490863 53.9323425,59.9443655 Z M46.484909,56.4420683 L23.515091,56.4420683 L25.5509186,49.8501934 L44.4490814,49.8501934 L46.484909,56.4420683 Z" id="Shape" fill-rule="nonzero"></path>
                        <path d="M64.4559479,34.6383421 L64.4559479,6.59875351 C64.4559479,5.98866913 63.9555358,5.49287622 63.3397674,5.49287622 L6.65916439,5.49287622 C6.0449982,5.49287622 5.54512027,5.98866913 5.54512027,6.59875351 L5.54512027,40.1687411 C5.54512027,40.7375536 6.01028449,41.1984239 6.58439633,41.1984239 L63.4161377,41.1984239 C63.9907837,41.1984239 64.4559479,40.7375536 64.4559479,40.1687411 L64.4559479,34.6383421 C64.4559479,34.6383421 62.3768616,34.6383421 62.3768616,34.6383421 L62.3768616,39.1385291 L7.62420654,39.1385291 L7.62420654,7.55277093 L62.3768616,7.55277093 L62.3768616,34.6383421 C62.3768616,34.6383421 64.4559479,34.6383421 64.4559479,34.6383421 Z" id="Path"></path>
                        <path d="M35.8641052,43.7382376 C35.6365967,43.3953627 35.2018737,43.2196923 34.7965241,43.3001197 C34.3532562,43.387955 34.0087891,43.7636357 33.9660645,44.2102196 C33.8763428,45.1414846 35.0384521,45.7018311 35.7204437,45.0531202 C36.0803986,44.7102454 36.1380768,44.1498991 35.8641052,43.7382376 Z" id="Path"></path>
                        <path d="M30.272746,29.9527643 C31.2280773,28.2743706 33.0108044,27.224688 35.0000543,27.224688 C36.9893043,27.224688 38.7720314,28.2743706 39.7273626,29.9527643 C38.412899,30.9431082 36.7749553,31.5324037 35.0000543,31.5324037 C33.2251534,31.5324037 31.587101,30.9431082 30.272746,29.9527643 Z M33.2609145,23.3477438 L33.2609145,22.64774 C33.2609145,21.6976733 34.0411361,20.9246537 35.0000543,20.9246537 C35.9589726,20.9246537 36.7391942,21.6976733 36.7391942,22.64774 L36.7391942,23.3477438 C36.7391942,24.2978105 35.9589726,25.0708301 35.0000543,25.0708301 C34.0411361,25.0708301 33.2609145,24.2978105 33.2609145,23.3477438 Z M35.0000543,16.0246271 C39.3154039,16.0246271 42.8261838,19.5029998 42.8261838,23.7785154 C42.8261838,25.4980478 42.2575938,27.087918 41.2979147,28.3751711 C40.4962799,27.1972263 39.3852956,26.2810828 38.0953973,25.7154798 C38.6073566,25.0599531 38.9131191,24.2387948 38.9131191,23.3477438 L38.9131191,22.64774 C38.9131191,20.5099284 37.1577835,18.7707959 35.0000543,18.7707959 C32.8423252,18.7707959 31.0869896,20.5099284 31.0869896,22.64774 L31.0869896,23.3477438 C31.0869896,24.2387948 31.3927521,25.0599531 31.9047114,25.7154798 C30.6148131,26.2810828 29.5038288,27.1972263 28.702194,28.3751711 C27.7425149,27.087918 27.1739249,25.4980478 27.1739249,23.7785154 C27.1739249,19.5029998 30.6847048,16.0246271 35.0000543,16.0246271 Z M45.0001087,23.7785154 C45.0001087,18.3153626 40.5141061,13.8707692 35.0000543,13.8707692 C29.4860026,13.8707692 25,18.3153626 25,23.7785154 C25,26.6126692 26.2076153,29.1723139 28.1393649,30.9798314 C28.1755607,31.0181701 28.2140392,31.0544626 28.2561047,31.0875243 C30.0355708,32.7006562 32.4037359,33.6861538 34.9999457,33.6861538 C37.5961554,33.6861538 39.9643205,32.7005485 41.7437867,31.0875243 C41.7858521,31.0544626 41.8243306,31.0180624 41.8605264,30.9798314 C43.7924934,29.1723139 45.0001087,26.6126692 45.0001087,23.7785154 Z" id="Fill-4"></path>
                    </g>
                </g>
            </g>
        </g>
    </g>
</svg>