<?xml version="1.0" encoding="UTF-8"?>
<svg width="70px" height="70px" viewBox="0 0 70 70" version="1.1" xmlns="http://www.w3.org/2000/svg" xmlns:xlink="http://www.w3.org/1999/xlink">
    <!-- Generator: sketchtool 52.5 (67469) - http://www.bohemiancoding.com/sketch -->
    <title>F53E35AA-4923-4F7A-B020-8374CB9B1055</title>
    <desc>Created with sketchtool.</desc>
    <g id="Page-1" stroke="none" stroke-width="1" fill="none" fill-rule="evenodd" opacity="0.2">
        <g id="storia_timeline" transform="translate(-275.000000, -2636.000000)" fill="#145491">
            <g id="Group-25" transform="translate(16.000000, 2628.000000)">
                <g id="Group-13" transform="translate(0.000000, 8.000000)">
                    <g id="icona-2014" transform="translate(259.000000, 0.000000)">
                        <path d="M52.6705653,5.45808967 C47.102768,5.45808967 42.5730994,9.98775828 42.5730994,15.5555556 C42.5730994,18.4276023 43.7804288,21.021423 45.7119103,22.8618908 C45.761306,22.9167446 45.814386,22.9687329 45.872924,23.0153996 C47.6683626,24.652963 50.0547758,25.6530214 52.6705653,25.6530214 C55.2863548,25.6530214 57.672768,24.652963 59.4683431,23.0153996 C59.5268811,22.9685965 59.579961,22.9167446 59.6293567,22.8618908 C61.5607018,21.021423 62.7680312,18.4276023 62.7680312,15.5555556 C62.7680312,9.98775828 58.2383626,5.45808967 52.6705653,5.45808967 Z M52.6705653,22.9239766 C51.0964522,22.9239766 49.637232,22.4261988 48.4386355,21.5819688 C49.3490448,20.1496296 50.9224756,19.2630994 52.6705653,19.2630994 C54.418655,19.2630994 55.9920858,20.1497661 56.9024951,21.5819688 C55.7038986,22.4261988 54.2446784,22.9239766 52.6705653,22.9239766 Z M51.2661988,15.1295517 L51.2661988,14.4373294 C51.2661988,13.662963 51.8961988,13.032963 52.6705653,13.032963 C53.4449318,13.032963 54.0749318,13.662963 54.0749318,14.4373294 L54.0749318,15.1295517 C54.0749318,15.9040546 53.4449318,16.5340546 52.6705653,16.5340546 C51.8961988,16.5340546 51.2661988,15.9040546 51.2661988,15.1295517 Z M58.8372515,19.5815789 C58.119922,18.6361014 57.2009162,17.8766082 56.1528265,17.3522222 C56.5643665,16.7098051 56.8039766,15.9473099 56.8039766,15.1295517 L56.8039766,14.4373294 C56.8039766,12.1581676 54.9497271,10.3039181 52.6705653,10.3039181 C50.3914035,10.3039181 48.537154,12.1581676 48.537154,14.4373294 L48.537154,15.1295517 C48.537154,15.9474464 48.7769006,16.7098051 49.1883041,17.3522222 C48.1402144,17.8766082 47.2212086,18.6359649 46.5038791,19.5815789 C45.7452047,18.4233723 45.3021442,17.0405653 45.3021442,15.5555556 C45.3021442,11.4925536 48.6075634,8.1871345 52.6705653,8.1871345 C56.7335673,8.1871345 60.0389864,11.4925536 60.0389864,15.5555556 C60.0389864,17.0405653 59.5959259,18.4233723 58.8372515,19.5815789 Z" id="Shape" fill-rule="nonzero"></path>
                        <path d="M68.4077388,52.8766082 C66.6072515,51.0761209 63.7790058,50.8183626 61.6828265,52.2640741 C61.6674074,52.2747173 61.6522612,52.2856335 61.6373879,52.2968226 L53.9884211,58.0491033 C53.3861209,58.5019883 53.2650877,59.3575439 53.7179727,59.9598441 C54.1708577,60.5620078 55.0262768,60.6833138 55.628577,60.2301559 L63.2529825,54.4962963 C64.2624561,53.814308 65.6148343,53.942846 66.4780312,54.8061793 C66.9330994,55.2612476 67.1652047,55.8658674 67.1316374,56.5085575 C67.0980702,57.1512476 66.8040156,57.7284405 66.3039181,58.1335673 L59.3220663,63.7884211 C56.6581092,65.9461404 53.3030214,67.1345029 49.8747953,67.1345029 L29.6791813,67.1345029 C26.9374464,67.1345029 24.248655,66.3837427 21.9035867,64.9634113 L16.4085185,61.6352047 L16.4085185,44.3653996 L26.9311696,44.3653996 C28.3890253,44.3653996 29.7596881,44.9331774 30.7884016,45.9618908 L38.0476608,53.2551267 C39.0785575,54.2860234 40.4492203,54.8538012 41.907076,54.8538012 L47.2609162,54.8538012 C48.3880117,54.8538012 49.3048343,55.7707602 49.3048343,56.8977193 C49.3048343,58.0246784 48.3878752,58.9416374 47.2609162,58.9416374 L36.9785575,58.9416374 C36.0355361,58.9416374 35.1193957,58.669961 34.3290643,58.155809 L29.9501754,55.3077778 L29.9342105,55.2974074 C29.3031189,54.885731 28.4576608,55.0631189 28.0457115,55.6942105 C27.6337622,56.3253021 27.811423,57.1707602 28.4425146,57.5827096 L32.8410526,60.4435673 C34.0752632,61.2464522 35.5059649,61.6706823 36.9785575,61.6706823 L47.2607797,61.6706823 C49.8926706,61.6706823 52.0337427,59.5296101 52.0337427,56.8977193 C52.0337427,54.2658285 49.8925341,52.1247563 47.2607797,52.1247563 L41.9937232,52.1247563 L53.3380897,45.5750487 L67.1345029,45.5750487 C68.6392982,45.5750487 69.8635478,44.3507992 69.8635478,42.8460039 L69.8635478,2.72904483 C69.8635478,1.22424951 68.6392982,0 67.1345029,0 L38.2066277,0 C36.7018324,0 35.4775828,1.22424951 35.4775828,2.72904483 L35.4775828,42.8460039 C35.4775828,44.3507992 36.7018324,45.5750487 38.2066277,45.5750487 L47.88,45.5750487 L39.2267446,50.5709747 C39.2266082,50.5709747 39.2266082,50.5711111 39.2264717,50.5711111 L32.7201559,44.03423 C31.1737427,42.4878168 29.1178168,41.6362183 26.9308967,41.6362183 L16.4083821,41.6362183 L16.4083821,39.2300195 C16.4083821,37.7252242 15.1841326,36.5009747 13.6793372,36.5009747 L1.36452242,36.5009747 C0.610896686,36.5009747 0,37.1120078 0,37.8654971 L0,68.4990253 C0,69.2525146 0.610896686,69.8635478 1.36452242,69.8635478 L13.6793372,69.8635478 C15.1841326,69.8635478 16.4083821,68.6392982 16.4083821,67.1345029 L16.4083821,64.8258674 L20.4896686,67.2976998 C23.2612865,68.9763353 26.4388499,69.8635478 29.6791813,69.8635478 L49.8747953,69.8635478 C53.9263353,69.8635478 57.891501,68.4591813 61.0397271,65.9091618 L68.0215789,60.254308 C69.114425,59.3690058 69.7834503,58.0557895 69.8568616,56.6512865 C69.9304094,55.2467836 69.4020663,53.8709357 68.4077388,52.8766082 Z M38.2066277,42.8460039 L38.2066277,2.72904483 L67.1345029,2.72904483 L67.1362768,42.8460039 C67.1362768,42.8460039 67.135731,42.8460039 67.1345029,42.8460039 L38.2066277,42.8460039 Z M13.6793372,67.1345029 L2.72904483,67.1345029 L2.72904483,39.2300195 L13.6793372,39.2300195 L13.6796101,42.9962378 C13.6796101,42.9977388 13.6793372,42.9992398 13.6793372,43.0008772 C13.6793372,43.0025146 13.6796101,43.0038791 13.6796101,43.0055166 L13.6808382,62.3375244 C13.6792008,62.3720468 13.679883,62.4064327 13.6808382,62.4406823 L13.6811111,67.1345029 C13.6811111,67.1345029 13.6805653,67.1345029 13.6793372,67.1345029 Z" id="Shape" fill-rule="nonzero"></path>
                        <path d="M61.1306043,28.9278752 L45.3021442,28.9278752 C44.5485185,28.9278752 43.9376218,29.5387719 43.9376218,30.2923977 C43.9376218,31.0460234 44.5485185,31.6569201 45.3021442,31.6569201 L61.1306043,31.6569201 C61.88423,31.6569201 62.4951267,31.0460234 62.4951267,30.2923977 C62.4951267,29.5387719 61.88423,28.9278752 61.1306043,28.9278752 Z" id="Path"></path>
                        <path d="M55.4394542,34.9317739 L45.3021442,34.9317739 C44.5485185,34.9317739 43.9376218,35.542807 43.9376218,36.2962963 C43.9376218,37.0497856 44.5485185,37.6608187 45.3021442,37.6608187 L55.4394542,37.6608187 C56.1930799,37.6608187 56.8039766,37.0497856 56.8039766,36.2962963 C56.8039766,35.542807 56.1930799,34.9317739 55.4394542,34.9317739 Z" id="Path"></path>
                        <path d="M8.20419103,50.2890643 C7.4505653,50.2890643 6.83966862,50.9000975 6.83966862,51.6535867 L6.83966862,56.9915984 C6.83966862,57.7450877 7.4505653,58.3561209 8.20419103,58.3561209 C8.95781676,58.3561209 9.56871345,57.7450877 9.56871345,56.9915984 L9.56871345,51.6535867 C9.56871345,50.899961 8.95781676,50.2890643 8.20419103,50.2890643 Z" id="Path"></path>
                    </g>
                </g>
            </g>
        </g>
    </g>
</svg>