<?xml version="1.0" encoding="UTF-8"?>
<svg width="65px" height="65px" viewBox="0 0 65 65" version="1.1" xmlns="http://www.w3.org/2000/svg" xmlns:xlink="http://www.w3.org/1999/xlink">
    <!-- Generator: sketchtool 52.5 (67469) - http://www.bohemiancoding.com/sketch -->
    <title>D258F702-4BAD-4681-9DA9-BFDFF6E40CD6</title>
    <desc>Created with sketchtool.</desc>
    <g id="Page-1" stroke="none" stroke-width="1" fill="none" fill-rule="evenodd" opacity="0.2">
        <g id="storia_timeline" transform="translate(-280.000000, -1887.000000)" fill="#145491">
            <g id="Group-23" transform="translate(16.000000, 1879.000000)">
                <g id="Group-11" transform="translate(0.000000, 8.000000)">
                    <g id="icona-anni-2000" transform="translate(264.000000, 0.000000)">
                        <path d="M61.7497461,0 L3.25025391,0 C1.45500977,0 0,1.45500977 0,3.25025391 L0,52.0002539 C0,53.7948633 1.45500977,55.249873 3.25025391,55.249873 L19.5002539,55.249873 C19.5140918,55.249873 19.5260254,55.2425098 19.5398633,55.2425098 C20.5297168,58.1211719 21.2462402,61.0862891 21.6816895,64.0983789 C21.7704297,64.6191406 22.221748,65 22.749873,65 C22.8114453,64.9994922 22.8723828,64.994541 22.9329395,64.9846387 C23.2165527,64.9365234 23.4689355,64.777832 23.6351172,64.5432227 C23.8011719,64.3087402 23.8676953,64.0181445 23.8190723,63.7344043 C23.1694531,59.9094336 22.1855664,54.128623 19.4089746,50.282832 C18.7721777,49.400127 17.853291,47.791377 18.8673926,46.924541 C20.2391211,46.0855078 22.0011035,46.2570215 23.1853223,47.3451367 C25.8156641,49.984873 28.166709,55.7795215 28.166709,58.500127 C28.166709,59.0982031 28.6517969,59.5831641 29.2497461,59.5831641 C29.8483301,59.5831641 30.333418,59.0982031 30.333418,58.500127 L30.333418,37.9426074 C30.333418,37.9342285 30.333418,37.9262305 30.333418,37.9168359 C30.333418,37.9069336 30.333418,37.8994434 30.333418,37.8905566 L30.333418,33.6093164 C30.333418,33.6004297 30.333418,33.5929395 30.333418,33.5835449 C30.333418,33.5736426 30.333418,33.5661523 30.333418,33.5572656 L30.333418,31.4164551 C30.3477637,29.788916 31.5408691,28.4122363 33.150127,28.166709 C34.6090723,28.166709 35.7402246,29.9128223 35.7402246,31.4164551 L35.7402246,52.0002539 C35.7402246,52.5982031 36.2253125,53.083291 36.8233887,53.083291 C37.4219727,53.083291 37.9069336,52.5982031 37.9069336,52.0002539 L37.9069336,42.250127 C37.9217871,40.6190332 39.1203516,39.2414648 40.7331641,38.999873 C42.1926172,38.999873 43.3237695,40.7464941 43.3237695,42.250127 L43.3237695,53.083291 C43.3237695,53.681875 43.8087305,54.1668359 44.4068066,54.1668359 C45.0053906,54.1668359 45.4903516,53.681875 45.4903516,53.083291 L45.4903516,46.583418 C45.5251367,44.9543555 46.7172266,43.5821191 48.3254687,43.3202148 C49.7835254,43.3202148 50.916582,45.0743262 50.916582,46.583418 L50.916582,55.249873 C50.916582,55.848457 51.4016699,56.333418 52.0002539,56.333418 C52.5982031,56.333418 53.083291,55.848457 53.083291,55.249873 L53.083291,50.916582 C53.0976367,49.289043 54.2908691,47.9123633 55.9,47.6664551 C57.3635156,47.6664551 58.500127,49.4130762 58.500127,50.916582 L58.500127,63.9164551 C58.500127,64.5150391 58.9850879,65 59.5831641,65 C60.181748,65 60.666709,64.5150391 60.666709,63.9164551 L60.666709,55.249873 L61.7497461,55.249873 C63.5449902,55.249873 65,53.7948633 65,52.0002539 L65,3.25025391 C65,1.45500977 63.5449902,0 61.7497461,0 Z M17.4570703,45.2830371 C16.4716602,46.1435254 16.0407813,47.4760254 16.3358203,48.75 L6.49987305,48.75 L6.49987305,38.999873 L19.5002539,38.999873 L19.5002539,44.3472656 C18.7503418,44.4812012 18.0476562,44.8030273 17.4570703,45.2830371 Z M26.000127,47.3535156 L26.000127,38.999873 L28.166709,38.999873 L28.166709,50.9667285 C27.5582227,49.6971973 26.8331934,48.4877148 26.000127,47.3535156 Z M33.150127,26.000127 C30.2976172,26.000127 28.166709,28.86 28.166709,31.4164551 L28.166709,32.5 L26.000127,32.5 L26.000127,22.749873 L38.999873,22.749873 L38.999873,32.5 L37.911377,32.5 L37.911377,31.4164551 C37.911377,28.854541 35.9579492,26.000127 33.150127,26.000127 Z M55.9,45.4997461 C54.8705371,45.5126953 53.876748,45.8766699 53.083291,46.5322559 C53.0585352,43.977832 51.1150098,41.1536328 48.3348633,41.1536328 C47.295498,41.1689941 46.2932031,41.5449023 45.4997461,42.217373 L45.4997461,38.999873 L58.500127,38.999873 L58.500127,46.4305664 C57.7641797,45.8340137 56.8471973,45.5057129 55.9,45.4997461 Z M62.833418,52.0002539 C62.833418,52.5982031 62.3483301,53.083291 61.7497461,53.083291 L60.666709,53.083291 L60.666709,50.916582 C60.6648047,50.6626758 60.6443652,50.4092773 60.6062793,50.158418 C60.6429688,50.0538086 60.6637891,49.9441211 60.666709,49.8335449 L60.666709,38.999873 C60.666709,37.8032129 59.6967871,36.833291 58.500127,36.833291 L45.4997461,36.833291 C44.7013379,36.8362109 43.9699609,37.2795313 43.5974805,37.9857715 C42.8224316,37.2547754 41.7993164,36.8431934 40.7331641,36.833291 C39.7006543,36.8437012 38.7028027,37.2081836 37.9069336,37.8658008 L37.9069336,34.666582 L38.999873,34.666582 C40.1965332,34.666582 41.166582,33.6966602 41.166582,32.5 L41.166582,22.749873 C41.166582,21.5532129 40.1965332,20.583291 38.999873,20.583291 L26.000127,20.583291 C24.8034668,20.583291 23.833418,21.5532129 23.833418,22.749873 L23.833418,32.5 C23.833418,33.6966602 24.8034668,34.666582 26.000127,34.666582 L28.166709,34.666582 L28.166709,36.833291 L26.000127,36.833291 C24.8034668,36.833291 23.833418,37.8032129 23.833418,38.999873 L23.833418,45.1292969 C23.1714844,44.7202539 22.4350293,44.4455273 21.6668359,44.3225098 L21.6668359,38.999873 C21.6668359,37.8032129 20.6967871,36.833291 19.5002539,36.833291 L6.49987305,36.833291 C5.30321289,36.833291 4.33329102,37.8032129 4.33329102,38.999873 L4.33329102,48.75 C4.33329102,49.9466602 5.30321289,50.916582 6.49987305,50.916582 L17.225,50.916582 C17.3519531,51.1225 17.490332,51.3327344 17.6475,51.550459 C17.9950977,52.0393555 18.3090527,52.5516113 18.5866992,53.083291 L3.25025391,53.083291 C2.65166992,53.083291 2.16658203,52.5982031 2.16658203,52.0002539 L2.16658203,3.25025391 C2.16658203,2.65166992 2.65166992,2.16658203 3.25025391,2.16658203 L61.7497461,2.16658203 C62.3483301,2.16658203 62.833418,2.65166992 62.833418,3.25025391 L62.833418,52.0002539 Z" id="Fill-1"></path>
                        <path d="M19.5002539,20.583291 L6.49987305,20.583291 C5.30321289,20.583291 4.33329102,21.5532129 4.33329102,22.749873 L4.33329102,32.5 C4.33329102,33.6966602 5.30321289,34.666582 6.49987305,34.666582 L19.5002539,34.666582 C20.6967871,34.666582 21.6668359,33.6966602 21.6668359,32.5 L21.6668359,22.749873 C21.6668359,21.5532129 20.6967871,20.583291 19.5002539,20.583291 Z M6.49987305,32.5 L19.5002539,32.5 L19.5002539,22.749873 L6.49987305,22.749873 L6.49987305,32.5 Z" id="Fill-4"></path>
                        <path d="M58.500127,20.583291 L45.4997461,20.583291 C44.3032129,20.583291 43.3331641,21.5532129 43.3331641,22.749873 L43.3331641,32.5 C43.3331641,33.6966602 44.3032129,34.666582 45.4997461,34.666582 L58.500127,34.666582 C59.6967871,34.666582 60.666709,33.6966602 60.666709,32.5 L60.666709,22.749873 C60.666709,21.5532129 59.6967871,20.583291 58.500127,20.583291 Z M45.4997461,32.5 L58.500127,32.5 L58.500127,22.749873 L45.4997461,22.749873 L45.4997461,32.5 Z" id="Fill-5"></path>
                        <path d="M58.500127,4.33329102 L45.4997461,4.33329102 C44.3032129,4.33329102 43.3331641,5.30321289 43.3331641,6.49987305 L43.3331641,16.25 C43.3331641,17.4466602 44.3032129,18.416582 45.4997461,18.416582 L58.500127,18.416582 C59.6967871,18.416582 60.666709,17.4466602 60.666709,16.25 L60.666709,6.49987305 C60.666709,5.30321289 59.6967871,4.33329102 58.500127,4.33329102 Z M45.4997461,16.25 L58.500127,16.25 L58.500127,6.49987305 L45.4997461,6.49987305 L45.4997461,16.25 Z" id="Fill-6"></path>
                        <path d="M38.999873,4.33329102 L26.000127,4.33329102 C24.8034668,4.33329102 23.833418,5.30321289 23.833418,6.49987305 L23.833418,16.25 C23.833418,17.4466602 24.8034668,18.416582 26.000127,18.416582 L38.999873,18.416582 C40.1965332,18.416582 41.166582,17.4466602 41.166582,16.25 L41.166582,6.49987305 C41.166582,5.30321289 40.1965332,4.33329102 38.999873,4.33329102 Z M26.000127,16.25 L38.999873,16.25 L38.999873,6.49987305 L26.000127,6.49987305 L26.000127,16.25 Z" id="Fill-7"></path>
                        <path d="M19.5002539,4.33329102 L6.49987305,4.33329102 C5.30321289,4.33329102 4.33329102,5.30321289 4.33329102,6.49987305 L4.33329102,16.25 C4.33329102,17.4466602 5.30321289,18.416582 6.49987305,18.416582 L19.5002539,18.416582 C20.6967871,18.416582 21.6668359,17.4466602 21.6668359,16.25 L21.6668359,6.49987305 C21.6668359,5.30321289 20.6967871,4.33329102 19.5002539,4.33329102 Z M6.49987305,16.25 L19.5002539,16.25 L19.5002539,6.49987305 L6.49987305,6.49987305 L6.49987305,16.25 Z" id="Fill-8"></path>
                    </g>
                </g>
            </g>
        </g>
    </g>
</svg>