<?xml version="1.0" encoding="UTF-8"?>
<svg width="49px" height="70px" viewBox="0 0 49 70" version="1.1" xmlns="http://www.w3.org/2000/svg" xmlns:xlink="http://www.w3.org/1999/xlink">
    <!-- Generator: sketchtool 52.5 (67469) - http://www.bohemiancoding.com/sketch -->
    <title>63A1CF60-EFE4-4F2D-9ED1-229FD2AD9A7C</title>
    <desc>Created with sketchtool.</desc>
    <g id="Page-1" stroke="none" stroke-width="1" fill="none" fill-rule="evenodd" opacity="0.2">
        <g id="storia_timeline" transform="translate(-296.000000, -2183.000000)" fill="#145491">
            <g id="Group-24" transform="translate(16.000000, 2174.000000)">
                <g id="icona-2011" transform="translate(280.000000, 9.000000)">
                    <path d="M45.4644444,69.0140845 C47.3959722,69.0140845 48.9618056,67.4703052 48.9618056,65.565982 L48.9618056,10.3763498 C48.9618056,10.3763498 46.6302778,10.3978482 46.6302778,10.3763498 L46.6302778,65.565982 C46.6302778,66.200802 46.1083333,66.7153951 45.4644444,66.7153951 L3.49722222,66.7153951 C2.85347222,66.7153951 2.33152778,66.200802 2.33152778,65.565982 L2.33152778,3.50178013 C2.33152778,2.86709703 2.85347222,2.35250391 3.49722222,2.35250391 L45.4644444,2.35250391 C46.1083333,2.35250391 46.6302778,2.86709703 46.6302778,3.50178013 L46.6302778,10.3978482 C46.6302778,10.3763498 48.9618056,10.3763498 48.9618056,10.3978482 L48.9618056,3.50178013 C48.9618056,1.5975939 47.3959722,0.053814554 45.4644444,0.053814554 L3.49722222,0.053814554 C1.56583333,0.053814554 0,1.5975939 0,3.50178013 L0,65.565982 C0,67.4703052 1.56583333,69.0140845 3.49722222,69.0140845 L45.4644444,69.0140845 Z" id="Fill-1"></path>
                    <path d="M38.47,10.3978482 L10.4918056,10.3978482 C9.84791667,10.3978482 9.32611111,10.9124413 9.32611111,11.5471244 C9.32611111,12.1819444 9.84791667,12.6965376 10.4918056,12.6965376 L38.47,12.6965376 C39.11375,12.6965376 39.6356944,12.1819444 39.6356944,11.5471244 C39.6356944,10.9124413 39.11375,10.3978482 38.47,10.3978482" id="Fill-5"></path>
                    <path d="M39.6356944,18.4431925 C39.6356944,17.8085094 39.11375,17.2939163 38.47,17.2939163 L10.4918056,17.2939163 C9.84791667,17.2939163 9.32611111,17.8085094 9.32611111,18.4431925 C9.32611111,19.0780125 9.84791667,19.5926056 10.4918056,19.5926056 L38.47,19.5926056 C39.11375,19.5926056 39.6356944,19.0780125 39.6356944,18.4431925" id="Fill-6"></path>
                    <path d="M10.4918056,31.0912559 C9.84791667,31.0912559 9.32611111,31.605849 9.32611111,32.240669 C9.32611111,32.8753521 9.84791667,33.3899452 10.4918056,33.3899452 L31.4754167,33.3899452 C32.1191667,33.3899452 32.6411111,32.8753521 32.6411111,32.240669 C32.6411111,31.605849 32.1191667,31.0912559 31.4754167,31.0912559 L10.4918056,31.0912559" id="Fill-7"></path>
                    <path d="M39.4390244,24.9151836 C39.4390244,24.2600156 38.9245112,23.7288136 38.2899266,23.7288136 L10.7100734,23.7288136 C10.0753519,23.7288136 9.56097561,24.2600156 9.56097561,24.9151836 C9.56097561,25.5704929 10.0753519,26.1016949 10.7100734,26.1016949 L38.2899266,26.1016949 C38.9245112,26.1016949 39.4390244,25.5704929 39.4390244,24.9151836" id="Fill-6"></path>
                    <path d="M38.046177,53.8268106 L34.8391183,56.7582979 L32.9176473,54.9975161 C32.5645298,54.6755902 31.9936736,54.6755902 31.640103,54.9975161 C31.468359,55.1536517 31.3719512,55.3657428 31.3719512,55.5871771 C31.3719512,55.8086114 31.468359,56.0211178 31.640103,56.1768381 L33.5611208,57.9372046 C33.9009836,58.2461538 34.3603649,58.4193148 34.8391183,58.4188996 C35.3205906,58.4213911 35.7834837,58.2482301 36.1256123,57.9372046 L39.3241744,54.9975161 C39.6322034,54.667908 39.6113585,54.1771813 39.2768202,53.8706199 C38.9418288,53.5636432 38.4059784,53.5445415 38.046177,53.8268106 Z" id="Fill-3"></path>
                    <path d="M27.4878049,55.702027 C27.4878049,59.6002261 30.9360529,62.7601032 35.1900023,62.7601032 C39.4436119,62.7601032 42.8923131,59.6002261 42.8923131,55.702027 C42.8923131,55.2433787 42.4865169,54.8715185 41.9860123,54.8715185 C41.4855076,54.8715185 41.0797115,55.2433787 41.0797115,55.702027 C41.0797115,58.6829295 38.4426027,61.0995015 35.1900023,61.0995015 C31.9370621,61.0995015 29.2999534,58.6829295 29.2999534,55.702027 C29.2999534,52.7210206 31.9370621,50.3044486 35.1900023,50.3044486 C36.464941,50.3012304 37.7062333,50.6804613 38.7236692,51.384421 C39.1241409,51.6597346 39.6923915,51.5850926 39.9923771,51.2181117 C40.2928158,50.8511308 40.2118151,50.3308172 39.8113435,50.0555037 C37.4775056,48.451688 34.3545063,48.1937113 31.7453795,49.3892282 C29.1357996,50.5847452 27.4878049,53.0288278 27.4878049,55.702027 Z" id="Fill-4"></path>
                </g>
            </g>
        </g>
    </g>
</svg>