<?xml version="1.0" encoding="UTF-8"?>
<svg width="70px" height="64px" viewBox="0 0 70 64" version="1.1" xmlns="http://www.w3.org/2000/svg" xmlns:xlink="http://www.w3.org/1999/xlink">
    <!-- Generator: sketchtool 52.5 (67469) - http://www.bohemiancoding.com/sketch -->
    <title>71CA547A-A933-42E2-BEEB-20E4815F07C5</title>
    <desc>Created with sketchtool.</desc>
    <g id="Page-1" stroke="none" stroke-width="1" fill="none" fill-rule="evenodd" opacity="0.2">
        <g id="storia_timeline" transform="translate(-276.000000, -2396.000000)" fill="#145491">
            <g id="Group-24" transform="translate(16.000000, 2388.000000)">
                <g id="Group-12" transform="translate(0.000000, 8.000000)">
                    <g id="icona-2012" transform="translate(260.000000, 0.000000)">
                        <path d="M4.60081621,54.6775598 L6.9013348,54.6775598 L6.9013348,52.4010352 L4.60081621,52.4010352 C3.33027944,52.4010352 2.30051859,51.3815924 2.30051859,50.124146 L2.30051859,4.58869526 C2.30051859,3.33124886 3.33027944,2.31187898 4.60081621,2.31187898 L55.2114149,2.31187898 C56.4819517,2.31187898 57.5116389,3.33124886 57.5116389,4.58869526 L57.5116389,6.86558442 L59.8121575,6.86558442 L59.8121575,4.58869526 C59.8121575,2.07409405 57.7521938,0.0352813945 55.2114149,0.0352813945 L4.60081621,0.0352813945 C2.06003728,0.0352813945 0,2.07409405 0,4.58869526 L0,50.124146 C0,52.6387472 2.06003728,54.6775598 4.60081621,54.6775598 Z" id="Fill-1"></path>
                        <polygon id="Fill-2" points="4.60081621 6.86551153 6.9013348 6.86551153 6.9013348 4.58869526 4.60081621 4.58869526"></polygon>
                        <polygon id="Fill-3" points="9.20192704 6.86551153 11.5024456 6.86551153 11.5024456 4.58869526 9.20192704 4.58869526"></polygon>
                        <polygon id="Fill-4" points="13.8026696 6.86551153 16.1031882 6.86551153 16.1031882 4.58869526 13.8026696 4.58869526"></polygon>
                        <path d="M66.7135659,18.24952 L66.7135659,13.6958146 C66.7135659,12.4380766 65.6838051,11.4189254 64.4132683,11.4189254 L13.8026696,11.4189254 C12.5321328,11.4189254 11.5024456,12.4380766 11.5024456,13.6958146 L11.5024456,18.24952 L66.7135659,18.24952 Z M66.7135659,20.5260447 L11.5024456,20.5260447 L11.5024456,59.2312653 C11.5024456,60.4887117 12.5321328,61.5080816 13.8026696,61.5080816 L64.4132683,61.5080816 C65.6838051,61.5080816 66.7135659,60.4887117 66.7135659,59.2312653 L66.7135659,20.5260447 Z M9.20192704,59.2312653 L9.20192704,13.6958146 C9.20192704,11.1812134 11.2618907,9.1424007 13.8026696,9.1424007 L64.4132683,9.1424007 C66.9540472,9.1424007 69.0140845,11.1812134 69.0140845,13.6958146 L69.0140845,59.2312653 C69.0140845,61.7458665 66.9540472,63.7846792 64.4132683,63.7846792 L13.8026696,63.7846792 C11.2618907,63.7846792 9.20192704,61.7458665 9.20192704,59.2312653 Z" id="Combined-Shape"></path>
                        <polygon id="Fill-8" points="13.8026696 15.9726308 16.1031882 15.9726308 16.1031882 13.6958146 13.8026696 13.6958146"></polygon>
                        <polygon id="Fill-9" points="18.4037804 15.9726308 20.704299 15.9726308 20.704299 13.6958146 18.4037804 13.6958146"></polygon>
                        <polygon id="Fill-10" points="23.0045966 15.9726308 25.3051152 15.9726308 25.3051152 13.6958146 23.0045966 13.6958146"></polygon>
                        <path d="M39.1078585,33.0483884 C34.6609798,33.0483884 31.0561907,36.6157456 31.0561907,41.0170996 C31.0561907,45.4183806 34.6609798,48.9857378 39.1078585,48.9857378 C43.5550318,48.9857378 47.1597472,45.4183806 47.1597472,41.0170996 C47.1545914,36.618297 43.5524539,33.053564 39.1078585,33.0483884 Z M39.1078585,46.7089216 C35.9318111,46.7089216 33.356783,44.160424 33.356783,41.0170996 C33.356783,37.8737023 35.9318111,35.3252776 39.1078585,35.3252776 C42.2842004,35.3252776 44.8592286,37.8737023 44.8592286,41.0170996 C44.8551776,44.1589661 42.2827273,46.7049123 39.1078585,46.7089216 Z" id="Fill-14"></path>
                        <path d="M57.5116389,37.6018023 C57.5116389,36.9727875 56.9969426,36.4633941 56.3613796,36.4633941 L53.3213718,36.4633941 C53.0780179,35.7156327 52.7741939,34.9878446 52.4116674,34.2893604 L54.5614157,32.1628546 C55.0099704,31.7180466 55.0099704,30.9979125 54.5614157,30.5531774 L49.6810077,25.7229795 C49.2315691,25.2787547 48.5036436,25.2787547 48.0542787,25.7229795 L45.9059299,27.8494854 C45.1987013,27.4918604 44.4642205,27.1914582 43.7089693,26.9499556 L43.7089693,23.941342 C43.7089693,23.3123272 43.1941993,22.802861 42.5586363,22.802861 L35.6573015,22.802861 C35.0217385,22.802861 34.5070423,23.3123272 34.5070423,23.941342 L34.5070423,26.9499556 C33.751791,27.1914582 33.0172366,27.4918604 32.3100816,27.8494854 L30.1617328,25.7229795 C29.7122943,25.2787547 28.9844424,25.2787547 28.5350038,25.7229795 L23.6545222,30.5531774 C23.2059675,30.9979125 23.2059675,31.7180466 23.6545222,32.1628546 L25.8031656,34.2893604 C25.7070468,34.4755354 25.6144633,34.662658 25.5272566,34.8514572 C25.2844184,35.3762315 25.0732515,35.914127 24.8945661,36.4633941 L21.8543373,36.4633941 C21.2190689,36.4633941 20.7043727,36.9727875 20.7043727,37.6018023 L20.7043727,44.432324 C20.7043727,45.0610472 21.2190689,45.5704405 21.8543373,45.5704405 L24.8945661,45.5704405 C25.1379936,46.3184936 25.4418176,47.0463546 25.8043441,47.7448387 L23.6545222,49.871053 C23.2059675,50.3157881 23.2059675,51.0362138 23.6545222,51.4809489 L28.5350038,56.3111467 C28.9844424,56.75508 29.7122943,56.75508 30.1617328,56.3111467 L32.3100816,54.1846409 C33.0172366,54.5423388 33.751791,54.8427409 34.5070423,55.0841706 L34.5070423,58.0928572 C34.5070423,58.721799 35.0217385,59.2312653 35.6573015,59.2312653 L42.5586363,59.2312653 C43.1941993,59.2312653 43.7089693,58.721799 43.7089693,58.0928572 L43.7089693,55.0841706 C44.4642205,54.8427409 45.1987013,54.5423388 45.9059299,54.1846409 L48.0542787,56.3111467 C48.5036436,56.75508 49.2315691,56.75508 49.6810077,56.3111467 L54.5614157,51.4809489 C55.0099704,51.0362138 55.0099704,50.3157881 54.5614157,49.871053 L52.4116674,47.7448387 C52.7741939,47.0463546 53.0780179,46.3184936 53.3213718,45.5704405 L56.3613796,45.5704405 C56.9969426,45.5704405 57.5116389,45.0610472 57.5116389,44.432324 L57.5116389,37.6018023 Z M55.2114149,43.2939159 L52.4577014,43.2939159 C51.9332091,43.2939159 51.4754476,43.6452719 51.3442692,44.1475944 C51.0501676,45.2774738 50.5973409,46.3617935 49.9983105,47.3669487 C49.7319028,47.8137249 49.8052625,48.3828925 50.1755227,48.749994 L52.1202174,50.6760374 L48.8673486,53.8967768 L46.9215491,51.9704418 C46.5504051,51.6034132 45.9752386,51.5311009 45.5235168,51.7953469 C44.5076029,52.3882056 43.4125844,52.8366583 42.2712372,53.1270738 C41.7636854,53.2569734 41.408377,53.7100186 41.408377,54.2291071 L41.408377,56.9543761 L36.8075608,56.9543761 L36.8075608,54.2291071 C36.8075608,53.7100186 36.4522525,53.2569734 35.9447743,53.1270738 C34.8031326,52.8366583 33.7080403,52.3882056 32.6924211,51.7953469 C32.2406993,51.5311009 31.6656064,51.6034132 31.2944624,51.9704418 L29.3486629,53.8967768 L26.0957942,50.6760374 L28.0404152,48.749994 C28.4106754,48.3828925 28.4841087,47.8137249 28.2176274,47.3669487 C27.6186706,46.3617935 27.1657703,45.2774738 26.8717423,44.1475944 C26.740564,43.6452719 26.2828025,43.2939159 25.7583102,43.2939159 L23.0045966,43.2939159 L23.0045966,38.7402104 L25.7583102,38.7402104 C26.2828025,38.7402104 26.740564,38.3888544 26.8717423,37.8865319 C27.0575721,37.1698239 27.3079231,36.4719229 27.6197754,35.8001914 C27.7993446,35.4104195 27.9990214,35.0305613 28.2176274,34.6617833 C28.4832249,34.2147155 28.4104544,33.6463497 28.0404152,33.2793212 L26.0957942,31.3535694 L29.3486629,28.13283 L31.2944624,30.0593837 C31.6656064,30.4267038 32.2406993,30.4985058 32.6924211,30.2339682 C33.7080403,29.6416928 34.8031326,29.1926568 35.9447743,28.9021685 C36.4522525,28.7726333 36.8075608,28.3190049 36.8075608,27.8007912 L36.8075608,25.0797501 L41.408377,25.0797501 L41.408377,27.8050921 C41.408377,28.3241805 41.7636854,28.7771528 42.2712372,28.9070525 C43.4125844,29.1974679 44.5076029,29.6459207 45.5235168,30.2387793 C45.9752386,30.5030253 46.5504051,30.430713 46.9215491,30.0633929 L48.8673486,28.1373495 L52.1202174,31.3581618 L50.1755227,33.2839136 C49.8052625,33.6512337 49.7319028,34.2204013 49.9983105,34.6671775 C50.5973409,35.6723328 51.0501676,36.7566525 51.3442692,37.8865319 C51.4754476,38.3888544 51.9332091,38.7402104 52.4577014,38.7402104 L55.2114149,38.7402104 L55.2114149,43.2939159 Z" id="Fill-15"></path>
                    </g>
                </g>
            </g>
        </g>
    </g>
</svg>