<?xml version="1.0" encoding="UTF-8"?>
<svg width="62px" height="70px" viewBox="0 0 62 70" version="1.1" xmlns="http://www.w3.org/2000/svg" xmlns:xlink="http://www.w3.org/1999/xlink">
    <!-- Generator: sketchtool 52.5 (67469) - http://www.bohemiancoding.com/sketch -->
    <title>1B347502-6803-42E1-B471-4A794D09E883</title>
    <desc>Created with sketchtool.</desc>
    <g id="Page-1" stroke="none" stroke-width="1" fill="none" fill-rule="evenodd" opacity="0.2">
        <g id="storia_timeline" transform="translate(-283.000000, -1072.000000)" fill="#145491">
            <g id="Group-21" transform="translate(16.000000, 1064.000000)">
                <g id="Group-2" transform="translate(0.000000, 8.000000)">
                    <g id="icona-anni-50" transform="translate(267.000000, 0.000000)">
                        <path d="M0.57704918,62.8571429 C0.57704918,63.6460714 1.22298361,64.2857143 2.01967213,64.2857143 L15.0032787,64.2857143 L15.0032787,68.5714286 C15.0032787,69.3603571 15.6492131,70 16.4459016,70 L22.2163934,70 C23.013082,70 23.6590164,69.3603571 23.6590164,68.5714286 L23.6590164,64.2857143 L40.9704918,64.2857143 L40.9704918,68.5714286 C40.9704918,69.3603571 41.6164262,70 42.4131148,70 L48.1836066,70 C48.9802951,70 49.6262295,69.3603571 49.6262295,68.5714286 L49.6262295,64.2857143 L51.0688525,64.2857143 C51.865541,64.2857143 52.5114754,63.6460714 52.5114754,62.8571429 L52.5114754,61.4285714 L59.7245902,61.4285714 C60.5212787,61.4285714 61.1672131,60.7889286 61.1672131,60 C61.1672131,59.2110714 60.5212787,58.5714286 59.7245902,58.5714286 L52.5114754,58.5714286 L52.5114754,52.8571429 L59.7245902,52.8571429 C60.5212787,52.8571429 61.1672131,52.2175 61.1672131,51.4285714 C61.1672131,50.6396429 60.5212787,50 59.7245902,50 L52.5114754,50 L52.5114754,44.2857143 L59.7245902,44.2857143 C60.5212787,44.2857143 61.1672131,43.6460714 61.1672131,42.8571429 C61.1672131,42.0682143 60.5212787,41.4285714 59.7245902,41.4285714 L52.5114754,41.4285714 L52.5114754,36.47875 L60.5254262,31.1928571 C60.9277377,30.9269643 61.1686557,30.4792857 61.1672131,30 L61.1672131,10 C61.1672131,9.21107143 60.5212787,8.57142857 59.7245902,8.57142857 L35.2,8.57142857 L35.2,1.42857143 C35.2,0.639642857 34.5540656,0 33.757377,0 L22.2163934,0 C16.6417377,0.00625 12.1243443,4.47964286 12.1180328,10 L12.1180328,21.4285714 L2.01967213,21.4285714 C1.22298361,21.4285714 0.57704918,22.0682143 0.57704918,22.8571429 L0.57704918,62.8571429 Z M27.9868852,30 L36.642623,30 L36.642623,31.4285714 C36.642623,32.2175 35.9966885,32.8571429 35.2,32.8571429 L29.4295082,32.8571429 C28.6328197,32.8571429 27.9868852,32.2175 27.9868852,31.4285714 L27.9868852,30 Z M29.4295082,35.7142857 L35.2,35.7142857 C37.5900656,35.7142857 39.5278689,33.7953571 39.5278689,31.4285714 L39.5278689,30 L49.6262295,30 L49.6262295,38.5714286 L15.0032787,38.5714286 L15.0032787,30 L25.1016393,30 L25.1016393,31.4285714 C25.1016393,33.7953571 27.0394426,35.7142857 29.4295082,35.7142857 Z M15.0032787,50 L49.6262295,50 L49.6262295,41.4285714 L15.0032787,41.4285714 L15.0032787,50 Z M17.8885246,67.1428571 L20.7737705,67.1428571 L20.7737705,64.2857143 L17.8885246,64.2857143 L17.8885246,67.1428571 Z M43.8557377,67.1428571 L46.7409836,67.1428571 L46.7409836,64.2857143 L43.8557377,64.2857143 L43.8557377,67.1428571 Z M15.0032787,61.4285714 L49.6262295,61.4285714 L49.6262295,52.8571429 L15.0032787,52.8571429 L15.0032787,61.4285714 Z M58.2819672,29.2355357 L52.5114754,33.0455357 L52.5114754,11.4285714 L58.2819672,11.4285714 L58.2819672,29.2355357 Z M15.0032787,27.1428571 L49.6262295,27.1428571 L49.6262295,11.4285714 L15.0032787,11.4285714 L15.0032787,27.1428571 Z M22.2163934,2.85714286 L32.3147541,2.85714286 L32.3147541,8.57142857 L15.1477213,8.57142857 C15.8372951,5.24767857 18.7901639,2.86071429 22.2163934,2.85714286 Z M3.46229508,61.4285714 L12.1180328,61.4285714 L12.1180328,24.2857143 L3.46229508,24.2857143 L3.46229508,61.4285714 Z" id="Fill-4"></path>
                        <path d="M36.642623,14.2857143 L29.4295082,14.2857143 C28.6328197,14.2857143 27.9868852,14.9253571 27.9868852,15.7142857 L27.9868852,22.8571429 C27.9868852,23.6460714 28.6328197,24.2857143 29.4295082,24.2857143 L36.642623,24.2857143 C37.4393115,24.2857143 38.0852459,23.6460714 38.0852459,22.8571429 L38.0852459,15.7142857 C38.0852459,14.9253571 37.4393115,14.2857143 36.642623,14.2857143 Z M30.8721311,21.4285714 L35.2,21.4285714 L35.2,17.1428571 L30.8721311,17.1428571 L30.8721311,21.4285714 Z" id="Fill-6"></path>
                        <polygon id="Fill-7" points="40.9704918 18.5714286 43.8557377 18.5714286 43.8557377 15.7142857 40.9704918 15.7142857"></polygon>
                        <polygon id="Fill-8" points="46.7409836 18.5714286 49.6262295 18.5714286 49.6262295 15.7142857 46.7409836 15.7142857"></polygon>
                        <polygon id="Fill-9" points="52.5114754 18.5714286 55.3967213 18.5714286 55.3967213 15.7142857 52.5114754 15.7142857"></polygon>
                        <polygon id="Fill-10" points="40.9704918 24.2857143 55.3967213 24.2857143 55.3967213 21.4285714 40.9704918 21.4285714"></polygon>
                    </g>
                </g>
            </g>
        </g>
    </g>
</svg>