<?xml version="1.0" encoding="UTF-8"?>
<svg width="70px" height="53px" viewBox="0 0 70 53" version="1.1" xmlns="http://www.w3.org/2000/svg" xmlns:xlink="http://www.w3.org/1999/xlink">
    <!-- Generator: sketchtool 52.5 (67469) - http://www.bohemiancoding.com/sketch -->
    <title>5393B09A-34D7-4FED-9750-325B06AD4DCE</title>
    <desc>Created with sketchtool.</desc>
    <g id="Page-1" stroke="none" stroke-width="1" fill="none" fill-rule="evenodd" opacity="0.2">
        <g id="storia_timeline" transform="translate(-275.000000, -1695.000000)" fill="#145491">
            <g id="Group-22" transform="translate(16.000000, 1688.000000)">
                <g id="Group-8" transform="translate(0.000000, 7.000000)">
                    <g id="icona-anni-80" transform="translate(259.000000, 0.000000)">
                        <path d="M68.4143738,39.0755851 L64.0559772,39.0755851 L64.0559772,2.27134725 C64.0559772,1.45906631 63.4047714,0.799177736 62.6031784,0.799177736 L7.39682163,0.799177736 C6.5952286,0.799177736 5.94402277,1.45906631 5.94402277,2.27134725 L5.94402277,39.0755851 L1.58562619,39.0755851 C0.784033155,39.0755851 0.132827324,39.7354736 0.132827324,40.5477546 L0.132827324,51.4670462 C0.132827324,52.2793271 0.784033155,52.9392157 1.58562619,52.9392157 L68.4143738,52.9392157 C69.2159668,52.9392157 69.8671727,52.2793271 69.8671727,51.4670462 L69.8671727,40.5477546 C69.8671727,39.7354736 69.2159668,39.0755851 68.4143738,39.0755851 Z M8.84962049,3.74351676 L61.1503795,3.74351676 L61.1503795,39.0755851 L8.84962049,39.0755851 L8.84962049,3.74351676 Z M66.961575,49.9948767 L3.03842505,49.9948767 L3.03842505,42.0199241 L66.961575,42.0199241 L66.961575,49.9948767 Z" id="Shape" fill-rule="nonzero"></path>
                        <path d="M56.7919829,6.68785579 L13.2080171,6.68785579 C12.406424,6.68785579 11.7552182,7.34774436 11.7552182,8.1600253 L11.7552182,34.6590765 C11.7552182,35.4713575 12.406424,36.131246 13.2080171,36.131246 L56.7919829,36.131246 C57.593576,36.131246 58.2447818,35.4713575 58.2447818,34.6590765 L58.2447818,8.1600253 C58.2447818,7.34774436 57.593576,6.68785579 56.7919829,6.68785579 Z M55.3391841,33.186907 L14.6608159,33.186907 L14.6608159,9.63219481 L55.3391841,9.63219481 L55.3391841,33.186907 Z" id="Shape" fill-rule="nonzero"></path>
                        <polygon id="Fill-7" points="48.3823529 47.8352941 51.3235294 47.8352941 51.3235294 44.854902 48.3823529 44.854902"></polygon>
                        <polygon id="Fill-8" points="54.5588235 47.8352941 57.5 47.8352941 57.5 44.854902 54.5588235 44.854902"></polygon>
                        <polygon id="Fill-9" points="60.7352941 47.8352941 63.6764706 47.8352941 63.6764706 44.854902 60.7352941 44.854902"></polygon>
                    </g>
                </g>
            </g>
        </g>
    </g>
</svg>