<?xml version="1.0" encoding="UTF-8"?>
<svg width="70px" height="70px" viewBox="0 0 70 70" version="1.1" xmlns="http://www.w3.org/2000/svg" xmlns:xlink="http://www.w3.org/1999/xlink">
    <!-- Generator: sketchtool 52.5 (67469) - http://www.bohemiancoding.com/sketch -->
    <title>B5779F09-5061-45E5-A590-E9CF4690B20E</title>
    <desc>Created with sketchtool.</desc>
    <defs>
        <rect id="path-1" x="0" y="0" width="70" height="70"></rect>
    </defs>
    <g id="Page-1" stroke="none" stroke-width="1" fill="none" fill-rule="evenodd" opacity="0.2">
        <g id="storia_timeline" transform="translate(-275.000000, -1264.000000)">
            <g id="icona-anni-60" transform="translate(275.000000, 1264.000000)">
                <g id="Path-+-Shape-+-Shape-Mask">
                    <mask id="mask-2" fill="white">
                        <use xlink:href="#path-1"></use>
                    </mask>
                    <use id="Mask" fill-rule="nonzero" xlink:href="#path-1"></use>
                    <path d="M41.2281573,42.5169717 C40.9464213,41.784458 40.1434737,41.432288 39.41096,41.6999372 C39.41096,41.6858504 39.41096,41.6858504 39.41096,41.6858504 C36.7485547,42.7001001 33.7480661,42.0521073 31.7477404,40.0376947 C31.3392232,39.6714379 31.00114,39.2347471 30.7475776,38.7557959 L37.9881932,38.7557959 C38.7629672,38.7557959 39.3968732,38.1218898 39.3968732,37.3471158 C39.3968732,36.5723418 38.7629672,35.9384357 37.9881932,35.9384357 L29.7192411,35.9384357 C29.6347203,35.4313109 29.6206335,34.9100993 29.6769807,34.3888876 L38.7207068,34.3888876 C39.4954808,34.3888876 40.1293869,33.7549816 40.1293869,32.9802076 C40.1293869,32.2054335 39.4954808,31.5715275 38.7207068,31.5715275 L30.508102,31.5715275 C30.8461852,30.9657951 31.2547024,30.4164098 31.7336536,29.909285 C33.7480661,27.9089593 36.7485547,27.2609665 39.3968732,28.2893029 C40.1293869,28.5710389 40.9323345,28.2047821 41.2140705,27.4863553 C41.4958066,26.7538416 41.1295497,25.950894 40.4111229,25.669158 C36.7203811,24.2463911 32.5366013,25.1338595 29.7333279,27.9371329 C28.6909047,28.9654693 27.9020438,30.2051078 27.4090058,31.5856143 L25.4086801,31.5856143 C24.633906,31.5856143 24,32.2195203 24,32.9942944 C24,33.7690684 24.633906,34.4029744 25.4086801,34.4029744 L26.8173602,34.4029744 C26.7891866,34.9241861 26.7891866,35.4313109 26.8455338,35.9525225 L25.4086801,35.9525225 C24.633906,35.9525225 24,36.5864286 24,37.3612026 C24,38.1359766 24.633906,38.7698827 25.4086801,38.7698827 L27.5639606,38.7698827 C28.0429118,39.9954343 28.7895123,41.1223784 29.7333279,42.0521073 C32.5225145,44.8553806 36.7062943,45.7569359 40.4111229,44.334169 C41.1436365,44.052433 41.4958066,43.2494853 41.2281573,42.5169717 Z" id="Path" fill="#145491" mask="url(#mask-2)"></path>
                    <path d="M67.0833789,26.245625 L61.2792578,26.245625 C60.8665039,24.9958789 60.3646094,23.7775781 59.7771289,22.5997461 L63.875,18.501875 C63.8752734,18.5016016 63.8755469,18.5013281 63.8758203,18.5010547 C65.0146875,17.3617773 65.0142773,15.5151172 63.875,14.37625 L55.62375,6.125 C54.469707,5.02345703 52.6536719,5.02345703 51.4996289,6.125 L47.3958789,10.2258789 C46.2181836,9.63853516 44.9997461,9.13650391 43.75,8.72375 L43.75,2.91662109 C43.75,1.30580078 42.4441992,4.26325641e-14 40.8333789,4.26325641e-14 L29.1667578,4.26325641e-14 C27.5558008,4.26325641e-14 26.25,1.30580078 26.25,2.91662109 L26.25,8.72375 C24.9988867,9.13527344 23.7789453,9.63634766 22.5997461,10.2228711 L18.501875,6.125 C17.3479687,5.02181641 15.530293,5.02181641 14.37625,6.125 L6.125,14.37625 C4.98640625,15.5152539 4.98640625,17.3615039 6.125,18.5003711 L10.2258789,22.6041211 C9.63853516,23.7818164 9.13650391,25.0002539 8.72375,26.25 L2.91662109,26.25 C1.30580078,26.25 -2.98427949e-13,27.5558008 -2.98427949e-13,29.1666211 L-2.98427949e-13,40.8332422 C-2.98427949e-13,42.4441992 1.30580078,43.75 2.91662109,43.75 L8.72375,43.75 C9.13677734,44.9996094 9.63867187,46.2180469 10.2258789,47.3958789 L6.125,51.498125 C6.12472656,51.4983984 6.12445312,51.4986719 6.12417969,51.4989453 C4.98544922,52.6382227 4.98572266,54.4848828 6.125,55.62375 L14.37625,63.875 C15.5300195,64.9772266 17.3466016,64.9772266 18.5003711,63.875 L22.6041211,59.7741211 C23.7820898,60.3613281 25.0005273,60.8639063 26.25,61.2776172 L26.25,67.0832422 C26.25,68.6940625 27.5558008,69.9998633 29.1666211,69.9998633 L40.8332422,69.9998633 C42.4440625,69.9998633 43.7498633,68.6940625 43.7498633,67.0832422 L43.7498633,61.2776172 C44.9993359,60.8637695 46.2177734,60.3613281 47.3957422,59.7741211 L51.4979883,63.875 C52.6523047,64.9773633 54.4692969,64.9773633 55.6236133,63.875 L63.8733594,55.6165039 C63.8741797,55.6156836 63.8748633,55.615 63.8756836,55.6141797 C65.0141406,54.4744922 65.0130469,52.627832 63.8733594,51.489375 L59.7739844,47.3915039 C60.3611914,46.2136719 60.8630859,44.9952344 61.2761133,43.745625 L67.0832422,43.745625 C68.6940625,43.745625 69.9998633,42.4398242 69.9998633,40.8290039 L69.9998633,29.1623828 C70,27.5514258 68.6941992,26.245625 67.0833789,26.245625 Z M67.0833789,40.8333789 L60.2015039,40.8333789 C59.5499023,40.8340625 58.9778711,41.2667773 58.8,41.8936328 C58.2933203,43.659082 57.5919531,45.3625977 56.70875,46.9730078 C56.3949805,47.5414844 56.4947852,48.2490039 56.95375,48.7083789 L61.8115039,53.5617578 L53.5617578,61.8115039 L48.7026367,56.95375 C48.2432617,56.4947852 47.5357422,56.3949805 46.9672656,56.70875 C45.3572656,57.5929102 43.6536133,58.2942773 41.8878906,58.8 C41.2633594,58.9800586 40.8333789,59.551543 40.8335156,60.2015039 L40.8335156,67.0833789 L29.1668945,67.0833789 L29.1668945,60.2015039 C29.1670312,59.551543 28.7370508,58.9800586 28.1125195,58.8 C26.3467969,58.2942773 24.6431445,57.5929102 23.0331445,56.70875 C22.8176758,56.5891211 22.5752734,56.5263672 22.3287695,56.5265039 C21.9399414,56.525 21.5666992,56.6788086 21.2918945,56.95375 L16.4385156,61.8115039 L8.18876953,53.5617578 L13.0465234,48.7026367 C13.5054883,48.2432617 13.605293,47.5357422 13.2915234,46.9672656 C12.4083203,45.3568555 11.7069531,43.6533398 11.2002734,41.8878906 C11.0202148,41.2633594 10.4487305,40.8333789 9.79876953,40.8335156 L2.91662109,40.8335156 L2.91662109,29.1668945 L9.79849609,29.1668945 C10.448457,29.1670313 11.0199414,28.7370508 11.2,28.1125195 C11.7058594,26.3454297 12.4072266,24.6402734 13.29125,23.0287695 C13.6058398,22.4598828 13.5058984,21.751543 13.04625,21.2918945 L8.18849609,16.4385156 L16.4382422,8.18876953 L21.2973633,13.0465234 C21.7567383,13.5054883 22.4642578,13.605293 23.0327344,13.2915234 C24.6430078,12.4080469 26.3466602,11.7066797 28.1121094,11.2002734 C28.7366406,11.0202148 29.1666211,10.4487305 29.1664844,9.79876953 L29.1664844,2.91662109 L40.8331055,2.91662109 L40.8331055,9.79849609 C40.8329687,10.448457 41.2629492,11.0199414 41.8874805,11.2 C43.6549805,11.7059961 45.3605469,12.4073633 46.9727344,13.29125 C47.5412109,13.6050195 48.2487305,13.5052148 48.7081055,13.04625 L53.5614844,8.18849609 L61.8112305,16.4382422 L56.9534766,21.2959961 C56.4938281,21.7556445 56.3938867,22.4639844 56.7084766,23.0328711 C57.5922266,24.6430078 58.2935937,26.3466602 58.7997266,28.1122461 C58.9797852,28.7367773 59.5512695,29.1667578 60.2012305,29.1666211 L67.0831055,29.1666211 L67.0831055,40.8333789 L67.0833789,40.8333789 Z" id="Shape" fill="#145491" fill-rule="nonzero" mask="url(#mask-2)"></path>
                    <path d="M35,14.5833789 C23.7241211,14.5833789 14.5833789,23.7242578 14.5833789,35 C14.5833789,46.2757422 23.7241211,55.4166211 35,55.4166211 C46.2708203,55.4045898 55.4045898,46.2708203 55.4166211,35 C55.4166211,23.7241211 46.2758789,14.5833789 35,14.5833789 Z M35,52.5 C25.3350781,52.5 17.5,44.6649219 17.5,35 C17.5,25.3350781 25.3350781,17.5 35,17.5 C44.6606836,17.5103906 52.4896094,25.3393164 52.5,35 C52.5,44.6649219 44.6649219,52.5 35,52.5 Z" id="Shape" fill="#145491" fill-rule="nonzero" mask="url(#mask-2)"></path>
                </g>
            </g>
        </g>
    </g>
</svg>