<?xml version="1.0" encoding="UTF-8"?>
<svg width="65px" height="65px" viewBox="0 0 65 65" version="1.1" xmlns="http://www.w3.org/2000/svg" xmlns:xlink="http://www.w3.org/1999/xlink">
    <!-- Generator: sketchtool 52.5 (67469) - http://www.bohemiancoding.com/sketch -->
    <title>1CFF1FD2-095A-4C13-85FB-360A63B4DCD1</title>
    <desc>Created with sketchtool.</desc>
    <g id="Page-1" stroke="none" stroke-width="1" fill="none" fill-rule="evenodd" opacity="0.2">
        <g id="storia_timeline" transform="translate(-280.000000, -1480.000000)" fill="#145491">
            <g id="Group-19" transform="translate(16.000000, 1472.000000)">
                <g id="Group-6" transform="translate(0.000000, 8.000000)">
                    <g id="icona-anni-60" transform="translate(264.000000, 0.000000)">
                        <path d="M61.75,0 L3.25,0 C1.45520023,0 0,1.45520023 0,3.25 L0,61.75 C0,63.5447998 1.45520023,65 3.25,65 L61.75,65 C63.5447998,65 65,63.5447998 65,61.75 L65,3.25 C65,1.45520023 63.5447998,0 61.75,0 Z M62.3690476,61.1309524 C62.3690476,61.729219 61.8839809,62.2142857 61.2857143,62.2142857 L3.86904762,62.2142857 C3.27078098,62.2142857 2.78571429,61.729219 2.78571429,61.1309524 L2.63095238,3.86904762 C2.63095238,3.27078098 3.11601908,2.78571429 3.71428571,2.78571429 L61.2857143,2.78571429 C61.8839809,2.78571429 62.3690476,3.27078098 62.3690476,3.86904762 L62.3690476,61.1309524 Z" id="Shape" fill-rule="nonzero"></path>
                        <path d="M32.5,20.5833333 C27.7133383,20.5833333 23.8333333,24.4633383 23.8333333,29.25 C23.8333333,34.0366618 27.7133383,37.9166667 32.5,37.9166667 C37.2866618,37.9166667 41.1666667,34.0366618 41.1666667,29.25 C41.161377,24.4659831 37.2840169,20.588623 32.5,20.5833333 Z M32.5,35.75 C29.3314615,35.7441813 26.628418,33.4569091 26.0973307,30.3333333 L28.1666667,30.3333333 L28.1666667,28.1666667 L26.0973307,28.1666667 C26.2602539,27.2018229 26.6400553,26.2867025 27.2081706,25.4895427 L28.6691895,26.9521484 L30.2010906,25.4202474 L28.7395427,23.9581706 C29.5367025,23.3900553 30.4518229,23.0102539 31.4166667,22.8473307 L31.4166667,24.9166667 L33.5833333,24.9166667 L33.5833333,22.8473307 C34.5481771,23.0102539 35.4632975,23.3900553 36.2604573,23.9581706 L34.7989094,25.4202474 L36.3308105,26.9521484 L37.7918294,25.4895427 C38.3599447,26.2867025 38.7397461,27.2018229 38.9026693,28.1666667 L36.8333333,28.1666667 L36.8333333,30.3333333 L38.9026693,30.3333333 C38.371582,33.4569091 35.6685385,35.7441813 32.5,35.75 Z" id="Shape" fill-rule="nonzero"></path>
                        <polygon id="Path" points="31.4166667 28.1666667 33.5833333 28.1666667 33.5833333 33.5833333 31.4166667 33.5833333"></polygon>
                        <path d="M52,20.5833333 C47.2133383,20.5833333 43.3333333,24.4633383 43.3333333,29.25 C43.3333333,34.0366618 47.2133383,37.9166667 52,37.9166667 C56.7866618,37.9166667 60.6666667,34.0366618 60.6666667,29.25 C60.661377,24.4659831 56.7840169,20.588623 52,20.5833333 Z M52,35.75 C48.8314615,35.7441813 46.128418,33.4569091 45.5973307,30.3333333 L47.6666667,30.3333333 L47.6666667,28.1666667 L45.5973307,28.1666667 C45.7602539,27.2018229 46.1400553,26.2867025 46.7081706,25.4895427 L48.1691895,26.9521484 L49.7010906,25.4202474 L48.2395427,23.9581706 C49.0367025,23.3900553 49.9518229,23.0102539 50.9166667,22.8473307 L50.9166667,24.9166667 L53.0833333,24.9166667 L53.0833333,22.8473307 C54.0481771,23.0102539 54.9632975,23.3900553 55.7604573,23.9581706 L54.2989094,25.4202474 L55.8308105,26.9521484 L57.2918294,25.4895427 C57.8599447,26.2867025 58.2397461,27.2018229 58.4026693,28.1666667 L56.3333333,28.1666667 L56.3333333,30.3333333 L58.4026693,30.3333333 C57.871582,33.4569091 55.1685385,35.7441813 52,35.75 Z" id="Shape" fill-rule="nonzero"></path>
                        <polygon id="Path" points="50.9166667 28.1666667 53.0833333 28.1666667 53.0833333 33.5833333 50.9166667 33.5833333"></polygon>
                        <path d="M21.6666667,29.25 C21.6666667,24.4633383 17.7866618,20.5833333 13,20.5833333 C8.21333825,20.5833333 4.33333333,24.4633383 4.33333333,29.25 C4.33333333,34.0366618 8.21333825,37.9166667 13,37.9166667 C17.7840169,37.911377 21.661377,34.0340169 21.6666667,29.25 Z M6.59733073,30.3333333 L8.66666667,30.3333333 L8.66666667,28.1666667 L6.59733073,28.1666667 C6.76025391,27.2018229 7.14005527,26.2867025 7.70817057,25.4895427 L9.16918952,26.9521484 L10.7010906,25.4202474 L9.23954268,23.9581706 C10.0367025,23.3900553 10.9518229,23.0102539 11.9166667,22.8473307 L11.9166667,24.9166667 L14.0833333,24.9166667 L14.0833333,22.8473307 C15.0481771,23.0102539 15.9632975,23.3900553 16.7604573,23.9581706 L15.2989094,25.4202474 L16.8308105,26.9521484 L18.2918294,25.4895427 C18.8599447,26.2867025 19.2397461,27.2018229 19.4026693,28.1666667 L17.3333333,28.1666667 L17.3333333,30.3333333 L19.4026693,30.3333333 C18.8768718,33.4595541 16.1701253,35.7489421 13,35.7489421 C9.82987471,35.7489421 7.12312819,33.4595541 6.59733073,30.3333333 Z" id="Shape" fill-rule="nonzero"></path>
                        <polygon id="Path" points="11.9166667 28.1666667 14.0833333 28.1666667 14.0833333 33.5833333 11.9166667 33.5833333"></polygon>
                        <path d="M5.41666667,17.3333333 L20.5833333,17.3333333 C21.1816,17.3333333 21.6666667,16.8482666 21.6666667,16.25 L21.6666667,7.58333333 C21.6666667,6.9850667 21.1816,6.5 20.5833333,6.5 L5.41666667,6.5 C4.81840003,6.5 4.33333333,6.9850667 4.33333333,7.58333333 L4.33333333,16.25 C4.33333333,16.8482666 4.81840003,17.3333333 5.41666667,17.3333333 Z M6.5,8.66666667 L19.5,8.66666667 L19.5,15.1666667 L6.5,15.1666667 L6.5,8.66666667 Z" id="Shape" fill-rule="nonzero"></path>
                        <path d="M40.0833333,6.5 L24.9166667,6.5 C24.3184,6.5 23.8333333,6.9850667 23.8333333,7.58333333 L23.8333333,16.25 C23.8333333,16.8482666 24.3184,17.3333333 24.9166667,17.3333333 L40.0833333,17.3333333 C40.6816,17.3333333 41.1666667,16.8482666 41.1666667,16.25 L41.1666667,7.58333333 C41.1666667,6.9850667 40.6816,6.5 40.0833333,6.5 Z M39,15.1666667 L26,15.1666667 L26,8.66666667 L39,8.66666667 L39,15.1666667 Z" id="Shape" fill-rule="nonzero"></path>
                        <path d="M59.5833333,6.5 L44.4166667,6.5 C43.8184,6.5 43.3333333,6.9850667 43.3333333,7.58333333 L43.3333333,16.25 C43.3333333,16.8482666 43.8184,17.3333333 44.4166667,17.3333333 L59.5833333,17.3333333 C60.1816,17.3333333 60.6666667,16.8482666 60.6666667,16.25 L60.6666667,7.58333333 C60.6666667,6.9850667 60.1816,6.5 59.5833333,6.5 Z M58.5,15.1666667 L45.5,15.1666667 L45.5,8.66666667 L58.5,8.66666667 L58.5,15.1666667 Z" id="Shape" fill-rule="nonzero"></path>
                        <path d="M17.3333333,41.1666667 C17.3333333,40.5684 16.8482666,40.0833333 16.25,40.0833333 L9.75,40.0833333 C9.15173336,40.0833333 8.66666667,40.5684 8.66666667,41.1666667 L8.66666667,57.4166667 C8.66666667,58.0149333 9.15173336,58.5 9.75,58.5 L16.25,58.5 C16.8482666,58.5 17.3333333,58.0149333 17.3333333,57.4166667 L17.3333333,41.1666667 Z M15.1666667,56.3333333 L10.8333333,56.3333333 L10.8333333,42.25 L15.1666667,42.25 L15.1666667,56.3333333 Z" id="Shape" fill-rule="nonzero"></path>
                        <path d="M34.6666667,43.3333333 L30.3333333,43.3333333 C29.7350667,43.3333333 29.25,43.8184 29.25,44.4166667 L29.25,48.75 C29.25,49.3482666 29.7350667,49.8333333 30.3333333,49.8333333 L34.6666667,49.8333333 C35.2649333,49.8333333 35.75,49.3482666 35.75,48.75 L35.75,44.4166667 C35.75,43.8184 35.2649333,43.3333333 34.6666667,43.3333333 Z M33.5833333,47.6666667 L31.4166667,47.6666667 L31.4166667,45.5 L33.5833333,45.5 L33.5833333,47.6666667 Z" id="Shape" fill-rule="nonzero"></path>
                        <path d="M34.6666667,52 L30.3333333,52 C29.7350667,52 29.25,52.4850667 29.25,53.0833333 L29.25,57.4166667 C29.25,58.0149333 29.7350667,58.5 30.3333333,58.5 L34.6666667,58.5 C35.2649333,58.5 35.75,58.0149333 35.75,57.4166667 L35.75,53.0833333 C35.75,52.4850667 35.2649333,52 34.6666667,52 Z M33.5833333,56.3333333 L31.4166667,56.3333333 L31.4166667,54.1666667 L33.5833333,54.1666667 L33.5833333,56.3333333 Z" id="Shape" fill-rule="nonzero"></path>
                        <path d="M54.1666667,43.3333333 L49.8333333,43.3333333 C49.2350667,43.3333333 48.75,43.8184 48.75,44.4166667 L48.75,48.75 C48.75,49.3482666 49.2350667,49.8333333 49.8333333,49.8333333 L54.1666667,49.8333333 C54.7649333,49.8333333 55.25,49.3482666 55.25,48.75 L55.25,44.4166667 C55.25,43.8184 54.7649333,43.3333333 54.1666667,43.3333333 Z M53.0833333,47.6666667 L50.9166667,47.6666667 L50.9166667,45.5 L53.0833333,45.5 L53.0833333,47.6666667 Z" id="Shape" fill-rule="nonzero"></path>
                        <path d="M54.1666667,52 L49.8333333,52 C49.2350667,52 48.75,52.4850667 48.75,53.0833333 L48.75,57.4166667 C48.75,58.0149333 49.2350667,58.5 49.8333333,58.5 L54.1666667,58.5 C54.7649333,58.5 55.25,58.0149333 55.25,57.4166667 L55.25,53.0833333 C55.25,52.4850667 54.7649333,52 54.1666667,52 Z M53.0833333,56.3333333 L50.9166667,56.3333333 L50.9166667,54.1666667 L53.0833333,54.1666667 L53.0833333,56.3333333 Z" id="Shape" fill-rule="nonzero"></path>
                    </g>
                </g>
            </g>
        </g>
    </g>
</svg>