<?xml version="1.0" encoding="UTF-8"?>
<svg width="77px" height="70px" viewBox="0 0 77 70" version="1.1" xmlns="http://www.w3.org/2000/svg" xmlns:xlink="http://www.w3.org/1999/xlink">
    <!-- Generator: sketchtool 52.6 (67491) - http://www.bohemiancoding.com/sketch -->
    <title>DDDCCD69-9080-4EF1-BCE2-3CFB76D7A340</title>
    <desc>Created with sketchtool.</desc>
    <defs>
        <path d="M23.1628378,41.4986486 C23.1628378,42.3291892 23.8329151,43.0027027 24.658277,43.0027027 C25.4855212,43.0027027 26.1537162,42.3291892 26.1537162,41.4986486 C26.1537162,40.6690541 25.4855212,39.9964865 24.658277,39.9964865 C23.8329151,39.9964865 23.1628378,40.6690541 23.1628378,41.4986486 Z" id="path-1"></path>
        <path d="M44.1628378,41.4986486 C44.1628378,42.3291892 44.8329151,43.0027027 45.658277,43.0027027 C46.4855212,43.0027027 47.1537162,42.3291892 47.1537162,41.4986486 C47.1537162,40.6690541 46.4855212,39.9964865 45.658277,39.9964865 C44.8329151,39.9964865 44.1628378,40.6690541 44.1628378,41.4986486 Z" id="path-3"></path>
        <path d="M33.1628378,41.4986486 C33.1628378,42.3291892 33.8329151,43.0027027 34.658277,43.0027027 C35.4855212,43.0027027 36.1537162,42.3291892 36.1537162,41.4986486 C36.1537162,40.6690541 35.4855212,39.9964865 34.658277,39.9964865 C33.8329151,39.9964865 33.1628378,40.6690541 33.1628378,41.4986486 Z" id="path-5"></path>
        <path d="M54.1628378,41.4986486 C54.1628378,42.3291892 54.8329151,43.0027027 55.658277,43.0027027 C56.4855212,43.0027027 57.1537162,42.3291892 57.1537162,41.4986486 C57.1537162,40.6690541 56.4855212,39.9964865 55.658277,39.9964865 C54.8329151,39.9964865 54.1628378,40.6690541 54.1628378,41.4986486 Z" id="path-7"></path>
        <path d="M64.1628378,41.5021622 C64.1628378,42.3327027 64.8329151,43.0062162 65.658277,43.0062162 C66.4855212,43.0062162 67.1537162,42.3327027 67.1537162,41.5021622 C67.1537162,40.6725676 66.4855212,40 65.658277,40 C64.8329151,40 64.1628378,40.6725676 64.1628378,41.5021622 Z" id="path-9"></path>
        <path d="M23.1628378,35.4986486 C23.1628378,36.3291892 23.8329151,37.0027027 24.658277,37.0027027 C25.4855212,37.0027027 26.1537162,36.3291892 26.1537162,35.4986486 C26.1537162,34.6690541 25.4855212,33.9964865 24.658277,33.9964865 C23.8329151,33.9964865 23.1628378,34.6690541 23.1628378,35.4986486 Z" id="path-11"></path>
        <path d="M33.1628378,35.4986486 C33.1628378,36.3291892 33.8329151,37.0027027 34.658277,37.0027027 C35.4855212,37.0027027 36.1537162,36.3291892 36.1537162,35.4986486 C36.1537162,34.6690541 35.4855212,33.9964865 34.658277,33.9964865 C33.8329151,33.9964865 33.1628378,34.6690541 33.1628378,35.4986486 Z" id="path-13"></path>
        <path d="M44.1628378,35.4986486 C44.1628378,36.3291892 44.8329151,37.0027027 45.658277,37.0027027 C46.4855212,37.0027027 47.1537162,36.3291892 47.1537162,35.4986486 C47.1537162,34.6690541 46.4855212,33.9964865 45.658277,33.9964865 C44.8329151,33.9964865 44.1628378,34.6690541 44.1628378,35.4986486 Z" id="path-15"></path>
        <path d="M54.1628378,35.4986486 C54.1628378,36.3291892 54.8329151,37.0027027 55.658277,37.0027027 C56.4855212,37.0027027 57.1537162,36.3291892 57.1537162,35.4986486 C57.1537162,34.6690541 56.4855212,33.9964865 55.658277,33.9964865 C54.8329151,33.9964865 54.1628378,34.6690541 54.1628378,35.4986486 Z" id="path-17"></path>
        <path d="M64.1628378,35.5021622 C64.1628378,36.3327027 64.8329151,37.0062162 65.658277,37.0062162 C66.4855212,37.0062162 67.1537162,36.3327027 67.1537162,35.5021622 C67.1537162,34.6725676 66.4855212,34 65.658277,34 C64.8329151,34 64.1628378,34.6725676 64.1628378,35.5021622 Z" id="path-19"></path>
        <path d="M7.60707046,0.0595945946 C6.58219112,0.0595945946 5.75024131,0.896756757 5.75024131,1.92594595 L5.75024131,1.98743243 L2.814889,1.98743243 C1.26298263,1.98743243 0.000941119691,3.25689189 0.000941119691,4.81675676 L0.000941119691,52.9814865 C0.000941119691,54.5413514 1.26298263,55.8108108 2.814889,55.8108108 L16.7509894,55.8108108 L16.7509894,54.005 L2.814889,54.005 C2.25398166,54.005 1.79753861,53.5462162 1.79753861,52.9814865 L1.79753861,4.81675676 C1.79753861,4.25202703 2.25398166,3.79324324 2.814889,3.79324324 L5.75024131,3.79324324 L5.75024131,14.4493243 C5.75024131,14.7624324 5.9121139,15.0528378 6.17562741,15.2174324 C6.44196429,15.382027 6.77323842,15.3981081 7.05086873,15.2571622 L10.4821911,13.5327027 L13.9144546,15.2571622 C14.0405647,15.3214865 14.1789093,15.3536486 14.3163127,15.3536486 C14.4800676,15.3536486 14.6447635,15.3072973 14.7878137,15.2174324 C15.0522683,15.0528378 15.2141409,14.7624324 15.2141409,14.4493243 L15.2141409,3.79324324 L39.2343388,3.79324324 C39.7952461,3.79324324 40.2516892,4.25202703 40.2516892,4.81675676 L40.2516892,17.0081081 L42.0492278,17.1585135 L42.0492278,4.81675676 C42.0492278,3.25689189 40.7862452,1.98743243 39.2343388,1.98743243 L15.2141409,1.98743243 L15.2141409,1.92594595 C15.2141409,0.896756757 14.3821911,0.0595945946 13.3573118,0.0595945946 L7.60707046,0.0595945946 Z M7.5468388,1.92594595 C7.5468388,1.89378378 7.57413127,1.86635135 7.60707046,1.86635135 L13.3573118,1.86635135 C13.3911921,1.86635135 13.4175434,1.89378378 13.4175434,1.92594595 L13.4175434,12.9887838 L10.8840492,11.7155405 C10.7579392,11.6521622 10.6205357,11.6209459 10.4821911,11.6209459 C10.3447876,11.6209459 10.2064431,11.6521622 10.0812741,11.7155405 L7.5468388,12.9887838 L7.5468388,1.92594595 Z" id="path-21"></path>
        <path d="M51.0425676,47.1544595 L41.3415058,56.2932432 L39.3171573,54.3862162 C37.9986486,53.1441892 35.8538369,53.1441892 34.5343871,54.3862162 C33.2158784,55.6272973 33.2158784,57.6497297 34.5343871,58.8917568 L38.9501207,63.0510811 C39.5891409,63.6527027 40.4380309,63.9837838 41.3415058,63.9837838 C42.2449807,63.9837838 43.0938707,63.6527027 43.7328909,63.0510811 L55.8243967,51.66 C57.1429054,50.417973 57.1429054,48.3974324 55.8243967,47.1544595 C55.1656129,46.5339189 54.2988417,46.2236486 53.4330116,46.2236486 C52.5662403,46.2236486 51.7013514,46.5339189 51.0425676,47.1544595 Z M41.9475869,58.0091892 L52.256612,48.2981081 C52.9050434,47.687027 53.9609797,47.687027 54.6094112,48.2981081 C55.2587838,48.9101351 55.2587838,49.9043243 54.6094112,50.5163514 L42.5179054,61.9074324 C42.2035714,62.2025676 41.7857143,62.3662162 41.3415058,62.3662162 C40.8963562,62.3662162 40.4794402,62.2025676 40.1651062,61.9074324 L35.7493726,57.7471622 C35.1009411,57.1351351 35.1009411,56.1418919 35.7493726,55.5298649 C36.0740589,55.2243243 36.499445,55.072027 36.9267133,55.072027 C37.3520994,55.072027 37.7774855,55.2243243 38.1021718,55.5298649 L40.7344836,58.0091892 C40.9020029,58.1671622 41.1212838,58.2456757 41.3405647,58.2456757 C41.5607867,58.2456757 41.7800676,58.1671622 41.9475869,58.0091892 Z" id="path-23"></path>
    </defs>
    <g id="Page-1" stroke="none" stroke-width="1" fill="none" fill-rule="evenodd">
        <g id="Homepage_2.0" transform="translate(-351.000000, -404.000000)">
            <g id="icona_servizi-giuridici" transform="translate(351.000000, 404.000000)">
                <mask id="mask-2" fill="white">
                    <use xlink:href="#path-1"></use>
                </mask>
                <use id="Clip-36" fill="#145491" xlink:href="#path-1"></use>
                <mask id="mask-4" fill="white">
                    <use xlink:href="#path-3"></use>
                </mask>
                <use id="Clip-36" fill="#145491" xlink:href="#path-3"></use>
                <mask id="mask-6" fill="white">
                    <use xlink:href="#path-5"></use>
                </mask>
                <use id="Clip-36" fill="#145491" xlink:href="#path-5"></use>
                <mask id="mask-8" fill="white">
                    <use xlink:href="#path-7"></use>
                </mask>
                <use id="Clip-36" fill="#145491" xlink:href="#path-7"></use>
                <mask id="mask-10" fill="white">
                    <use xlink:href="#path-9"></use>
                </mask>
                <use id="Clip-36" fill="#145491" xlink:href="#path-9"></use>
                <mask id="mask-12" fill="white">
                    <use xlink:href="#path-11"></use>
                </mask>
                <use id="Clip-36" fill="#145491" xlink:href="#path-11"></use>
                <mask id="mask-14" fill="white">
                    <use xlink:href="#path-13"></use>
                </mask>
                <use id="Clip-36" fill="#145491" xlink:href="#path-13"></use>
                <mask id="mask-16" fill="white">
                    <use xlink:href="#path-15"></use>
                </mask>
                <use id="Clip-36" fill="#145491" xlink:href="#path-15"></use>
                <mask id="mask-18" fill="white">
                    <use xlink:href="#path-17"></use>
                </mask>
                <use id="Clip-36" fill="#145491" xlink:href="#path-17"></use>
                <mask id="mask-20" fill="white">
                    <use xlink:href="#path-19"></use>
                </mask>
                <use id="Clip-36" fill="#145491" xlink:href="#path-19"></use>
                <mask id="mask-22" fill="white">
                    <use xlink:href="#path-21"></use>
                </mask>
                <use id="Clip-2" fill="#145491" xlink:href="#path-21"></use>
                <path d="M15.3920125,58.1037838 L15.3920125,23.2201351 C15.5501207,20.2905405 18.1287886,17.9540541 21.2777751,17.9540541 L22.771332,17.9540541 L22.771332,16.8227027 C22.771332,15.5986486 23.8272683,14.6054054 25.1250724,14.6054054 L26.9263755,14.6054054 C28.2241795,14.6054054 29.2810569,15.5986486 29.2810569,16.8227027 L29.2810569,17.9540541 L35.7079633,17.9540541 L35.7079633,16.8227027 C35.7079633,15.5986486 36.7638996,14.6054054 38.0626448,14.6054054 L39.8620656,14.6054054 C41.1608108,14.6054054 42.215806,15.5986486 42.215806,16.8227027 L42.215806,17.9540541 L48.6445946,17.9540541 L48.6445946,16.8227027 C48.6445946,15.5986486 49.701472,14.6054054 50.9992761,14.6054054 L52.799638,14.6054054 C54.0974421,14.6054054 55.1533784,15.5986486 55.1533784,16.8227027 L55.1533784,17.9540541 L61.5812259,17.9540541 L61.5812259,16.8227027 C61.5812259,15.5986486 62.6371622,14.6054054 63.9349662,14.6054054 L65.7353282,14.6054054 C67.0331322,14.6054054 68.0900097,15.5986486 68.0900097,16.8227027 L68.0900097,17.9540541 L70.6310328,17.9540541 C73.879778,17.9540541 76.5233832,20.4428378 76.5233832,23.5048649 L76.5233832,46.2230811 L76.5343002,46.2230811 L76.5343002,66.9601081 C76.5343002,68.2692973 75.4030743,69.3353784 74.0130405,69.3353784 L22.1037017,69.3353784 L22.1037017,69.3340541 L17.9066844,69.3340541 C16.5815878,69.3340541 15.4927124,68.3682432 15.3920125,67.1451351 L15.3920125,58.1037838 Z M17.322249,58.1037838 L17.322249,66.9587838 C17.322249,67.2624324 17.5848214,67.5074324 17.9066844,67.5074324 L31.1435328,67.5074324 L31.1435328,67.5087568 L74.0130405,67.5087568 C74.3349035,67.5087568 74.5955936,67.2628108 74.5955936,66.9601081 L74.5955936,46.3589189 L74.5846766,46.3589189 L74.5846766,31.5132432 L17.322249,31.5132432 L17.322249,58.1037838 Z M63.5189913,21.2582432 C63.5189913,21.4739189 63.705333,21.6498649 63.9359073,21.6498649 L65.7362693,21.6498649 C65.9649614,21.6498649 66.1522442,21.4739189 66.1522442,21.2582432 L66.1522442,16.8227027 C66.1522442,16.607027 65.9649614,16.4310811 65.7362693,16.4310811 L63.9359073,16.4310811 C63.705333,16.4310811 63.5189913,16.607027 63.5189913,16.8227027 L63.5189913,21.2582432 Z M50.5842423,21.2582432 C50.5842423,21.4739189 50.7696429,21.6498649 50.9992761,21.6498649 L52.799638,21.6498649 C53.0283301,21.6498649 53.2146718,21.4739189 53.2146718,21.2582432 L53.2146718,16.8227027 C53.2146718,16.607027 53.0283301,16.4310811 52.799638,16.4310811 L50.9992761,16.4310811 C50.7696429,16.4310811 50.5842423,16.607027 50.5842423,16.8227027 L50.5842423,21.2582432 Z M37.6457288,21.2582432 C37.6457288,21.4739189 37.8339527,21.6498649 38.0626448,21.6498649 L39.8620656,21.6498649 C40.0916988,21.6498649 40.2789817,21.4739189 40.2789817,21.2582432 L40.2789817,16.8227027 C40.2789817,16.607027 40.0916988,16.4310811 39.8620656,16.4310811 L38.0626448,16.4310811 C37.8339527,16.4310811 37.6457288,16.607027 37.6457288,16.8227027 L37.6457288,21.2582432 Z M24.7100386,21.2582432 C24.7100386,21.4739189 24.8963803,21.6498649 25.1250724,21.6498649 L26.9263755,21.6498649 C27.1560087,21.6498649 27.3414093,21.4739189 27.3414093,21.2582432 L27.3414093,16.8227027 C27.3414093,16.607027 27.1560087,16.4310811 26.9263755,16.4310811 L25.1250724,16.4310811 C24.8963803,16.4310811 24.7100386,16.607027 24.7100386,16.8227027 L24.7100386,21.2582432 Z M65.7362693,23.4764865 L63.9359073,23.4764865 C62.6371622,23.4764865 61.5812259,22.4813514 61.5812259,21.2582432 L61.5812259,19.7787838 L55.1533784,19.7787838 L55.1533784,21.2582432 C55.1533784,22.4813514 54.0974421,23.4764865 52.799638,23.4764865 L50.9992761,23.4764865 C49.701472,23.4764865 48.6445946,22.4813514 48.6445946,21.2582432 L48.6445946,19.7787838 L42.2167471,19.7787838 L42.2167471,21.2582432 C42.2167471,22.4813514 41.1617519,23.4764865 39.8620656,23.4764865 L38.0626448,23.4764865 C36.7648407,23.4764865 35.7089044,22.4813514 35.7089044,21.2582432 L35.7089044,19.7787838 L29.2810569,19.7787838 L29.2810569,21.2582432 C29.2810569,22.4813514 28.2241795,23.4764865 26.9263755,23.4764865 L25.1250724,23.4764865 C23.8272683,23.4764865 22.771332,22.4813514 22.771332,21.2582432 L22.771332,19.7787838 L21.2777751,19.7787838 C19.0962597,19.7787838 17.322249,21.4502703 17.322249,23.5048649 L17.322249,29.6866216 L74.5856178,29.6866216 L74.5856178,23.5048649 C74.5856178,21.4502703 72.8116071,19.7787838 70.6310328,19.7787838 L68.0900097,19.7787838 L68.0900097,21.2582432 C68.0900097,22.4813514 67.0331322,23.4764865 65.7362693,23.4764865 Z" id="Combined-Shape" fill="#145491"></path>
                <mask id="mask-24" fill="white">
                    <use xlink:href="#path-23"></use>
                </mask>
                <use id="Clip-18" fill="#145491" xlink:href="#path-23"></use>
            </g>
        </g>
    </g>
</svg>