<?xml version="1.0" encoding="UTF-8"?>
<svg width="72px" height="70px" viewBox="0 0 72 70" version="1.1" xmlns="http://www.w3.org/2000/svg" xmlns:xlink="http://www.w3.org/1999/xlink">
    <!-- Generator: sketchtool 52.6 (67491) - http://www.bohemiancoding.com/sketch -->
    <title>1F892A00-1A04-4675-A7C6-92CCA8CFC4FC</title>
    <desc>Created with sketchtool.</desc>
    <g id="Page-1" stroke="none" stroke-width="1" fill="none" fill-rule="evenodd">
        <g id="Homepage_2.0" transform="translate(-530.000000, -403.000000)" fill="#145491">
            <g id="icona_servizi-stipendiali" transform="translate(530.000000, 403.000000)">
                <path d="M0,66.6044531 C0,68.4768164 1.62472917,70 3.62191667,70 L67.9457917,70 C69.9429792,70 71.5677083,68.4768164 71.5677083,66.6044531 L71.567125,44.1287109 C71.567125,44.1287109 69.379625,44.1287109 69.379625,44.1287109 L69.379625,64.4954297 L44.2900208,46.0288281 C47.08025,43.9749023 68.6185208,28.1218164 69.379625,27.5616797 L69.379625,44.1287109 C69.379625,44.1287109 71.567125,44.1287109 71.567125,44.1287109 L71.567125,25.4526563 C71.567125,25.2587891 71.5038333,25.0505664 71.3814792,24.8800781 C71.3814792,24.8497266 71.1792083,24.6681641 71.1490208,24.6462891 L62.8325833,18.5242969 L62.8325833,2.81873047 C62.8325833,1.26464844 61.483625,0 59.8257917,0 L38.3359375,0 C38.3359375,0 38.3359375,2.05078125 38.3359375,2.05078125 L59.8257917,2.05078125 C60.2775833,2.05078125 60.6445,2.3953125 60.6445,2.81873047 L60.6445,31.3833789 L50.3215417,38.9813867 L21.2455833,38.9813867 L10.922625,31.3833789 C10.922625,28.1256445 10.922625,6.46365234 10.922625,2.81873047 C10.922625,2.3953125 11.290125,2.05078125 11.7419167,2.05078125 L38.3359375,2.05078125 C38.3359375,2.05078125 38.3359375,0 38.3359375,0 L11.7419167,0 C10.0840833,0 8.735125,1.26464844 8.735125,2.81873047 L8.735125,18.5242969 L0.4186875,24.6462891 C0.145833333,24.8491797 0,25.1531055 0,25.4526563 L0,66.6044531 Z M2.1875,27.5611328 C3.29145833,28.3739258 25.86325,44.9879883 27.2776875,46.0288281 L2.1875,64.4959766 L2.1875,27.5611328 Z M8.735125,29.7732422 L4.2581875,26.4780469 L8.735125,26.4780469 L8.735125,29.7732422 Z M69.2992708,67.0440039 C69.0948125,67.5951172 68.5456042,67.9492188 67.9457917,67.9492188 L3.62191667,67.9492188 C3.0305625,67.9492188 2.47289583,67.5993555 2.26785417,67.0440039 L29.0486875,47.3324414 L33.5981042,50.680957 C34.8872708,51.6295117 36.6851042,51.6262305 37.9696042,50.680957 C42.9263333,47.0323438 41.2075417,48.2975391 42.5190208,47.3324414 L69.2992708,67.0440039 Z M62.8325833,29.7732422 L62.8325833,26.4780469 L67.3089375,26.4780469 L62.8325833,29.7732422 Z M67.3095208,24.4272656 L62.8325833,24.4272656 L62.8325833,21.1320703 L67.3095208,24.4272656 Z M47.5353958,41.032168 L36.6184583,49.0676758 C36.1272917,49.4291602 35.4404167,49.4291602 34.9486667,49.0676758 C34.92825,49.0526367 29.7243333,45.2219141 29.7243333,45.2219141 L24.0323125,41.0327148 L47.5353958,41.0327148 L47.5353958,41.032168 Z M8.735125,21.1320703 L8.735125,24.4272656 L4.2581875,24.4272656 L8.735125,21.1320703 Z" id="Fill-5"></path>
                <path d="M38.9175436,7.72848566 C40.0107947,7.72805357 41.0856099,7.98795708 42.0425503,8.48378299 L42.9364628,6.97232415 C40.8034248,5.86508764 38.2581132,5.69462723 35.9788551,6.50652865 C33.6991362,7.31788996 31.9167267,9.02940754 31.1051997,11.185224 L28.7777778,11.185224 L28.7777778,12.9135932 L30.6758728,12.9135932 C30.6033965,13.4878438 30.6033965,14.0677117 30.6758728,14.6419624 L28.7777778,14.6419624 L28.7777778,16.3703315 L31.1051997,16.3703315 C31.9167267,18.526148 33.6991362,20.2376656 35.9788551,21.0490269 C38.2581132,21.8609283 40.8034248,21.6904679 42.9364628,20.5832314 L42.0425503,19.0717726 C40.4848288,19.8793531 38.6403132,20.047761 36.9457048,19.5359477 C35.2515574,19.0240264 33.8584918,17.8784417 33.0963962,16.3703315 L41.6829343,16.3703315 L41.6829343,14.6419624 L32.5388243,14.6419624 C32.4401921,14.0693321 32.5388243,12.9135932 32.5388243,12.9135932 C32.5388243,12.9135932 35.586861,12.9135932 41.6829343,12.9135932 L41.6829343,11.185224 L33.0963962,11.185224 C34.1631457,9.07661362 36.4284615,7.73183438 38.9175436,7.72848566 Z" id="Fill-5"></path>
                <path d="M50.5739792,28.215332 L20.9937292,28.215332 C20.38925,28.215332 19.8999792,28.6745703 19.8999792,29.2407227 C19.8999792,29.806875 20.38925,30.2661133 20.9937292,30.2661133 L50.5733958,30.2661133 C51.177875,30.2661133 51.6677292,29.806875 51.6677292,29.2407227 C51.6677292,28.6745703 51.177875,28.215332 50.5739792,28.215332 Z" id="Fill-1"></path>
                <path d="M50.5739792,33.5980859 L20.9937292,33.5980859 C20.38925,33.5980859 19.8999792,34.0573242 19.8999792,34.6240234 C19.8999792,35.1901758 20.38925,35.6494141 20.9937292,35.6494141 L50.5733958,35.6494141 C51.177875,35.6494141 51.6677292,35.1901758 51.6677292,34.6240234 C51.6677292,34.0573242 51.177875,33.5980859 50.5739792,33.5980859 Z" id="Fill-2"></path>
            </g>
        </g>
    </g>
</svg>