<?xml version="1.0" encoding="UTF-8"?>
<svg width="70px" height="70px" viewBox="0 0 70 70" version="1.1" xmlns="http://www.w3.org/2000/svg" xmlns:xlink="http://www.w3.org/1999/xlink">
    <!-- Generator: sketchtool 52.6 (67491) - http://www.bohemiancoding.com/sketch -->
    <title>CF3BD056-0D4B-4BFA-99A3-714853B046EB</title>
    <desc>Created with sketchtool.</desc>
    <g id="Page-1" stroke="none" stroke-width="1" fill="none" fill-rule="evenodd">
        <g id="Homepage_2.0" transform="translate(-702.000000, -403.000000)" fill="#145491">
            <g id="icona_gestione-capitale-umano" transform="translate(702.000000, 403.000000)">
                <path d="M1.75,53.025 L68.075,53.0115955 L68.075,1.82409547 L1.75,1.8375 L1.75,53.025 Z M47.425,60.0590081 L22.225,60.0590081 L23.8875,54.8642827 L45.8842723,54.8642827 L47.425,60.0590081 Z M1.16424116,0.144948025 C0.521288981,0.144948025 0,0.666237006 0,1.30918919 L0,53.7000416 C0,54.3429938 0.521288981,54.8642827 1.16424116,54.8642827 L21.7084407,54.8642827 L17.5171726,68.4928898 C17.3281289,69.1076091 17.3771726,69.7591476 17.9918919,69.9481913 C18.6066112,70.1372349 19.2581497,69.792183 19.4471933,69.1774636 L21.7,61.8497297 L48.1460291,61.8497297 L50.4011642,69.1774636 C50.5902079,69.792183 51.2417464,70.1372349 51.8564657,69.9481913 C52.471185,69.7591476 52.5286694,69.1076091 52.3396258,68.4928898 L48.1460291,54.8642827 L68.6902287,54.8642827 C69.3331809,54.8642827 69.8544699,54.3429938 69.8544699,53.7000416 L69.8544699,1.30918919 C69.8544699,0.666237006 69.3331809,0.144948025 68.6902287,0.144948025 L1.16424116,0.144948025 Z" id="Fill-3"></path>
                <path d="M59.4246518,13.4090356 C59.4246518,13.4090356 61.0628119,12.8645346 61.0628119,12.8645346 C61.0628119,12.8645346 60.0460412,10.2388564 58.0125,4.9875 L49.817843,8.50641605 C49.817843,8.48953456 50.5628119,10.2395346 50.5628119,10.2395346 L55.8128119,7.61453456 C45.8003378,25.9257196 27.2659823,38.0625 8.1375,38.0625 L8.1375,39.9 C28.369683,39.9 47.2470166,27.5230977 57.575,8.05 L59.4246518,13.4090356 Z" id="Fill-1"></path>
                <path d="M9.89968815,48.5160941 L13.5431263,48.5160941 L13.5431263,44.93125 L9.89968815,44.93125 L9.89968815,48.5160941 Z M13.970894,50.2073181 C14.6138462,50.2073181 15.1351351,49.6860291 15.1351351,49.0430769 L15.1351351,44.3861123 C15.1351351,43.7431601 14.6138462,43.2218711 13.970894,43.2218711 L9.31392931,43.2218711 C8.67097713,43.2218711 8.14968815,43.7431601 8.14968815,44.3861123 L8.14968815,49.0430769 C8.14968815,49.6860291 8.67097713,50.2073181 9.31392931,50.2073181 L13.970894,50.2073181 Z" id="Fill-5"></path>
                <path d="M21.5420998,48.5753612 L24.95,48.5753612 L24.95,42.56875 L21.5420998,42.56875 L21.5420998,48.5753612 Z M20.956341,40.8933888 C20.3133888,40.8933888 19.7920998,41.4146778 19.7920998,42.0576299 L19.7920998,49.0430769 C19.7920998,49.6860291 20.3133888,50.2073181 20.956341,50.2073181 L25.6133056,50.2073181 C26.2562578,50.2073181 26.7775468,49.6860291 26.7775468,49.0430769 L26.7775468,42.0576299 C26.7775468,41.4146778 26.2562578,40.8933888 25.6133056,40.8933888 L20.956341,40.8933888 Z" id="Fill-6"></path>
                <path d="M33.1845114,48.5567152 L36.635499,48.5567152 L36.635499,37.9864241 L33.1845114,37.9864241 L33.1845114,48.5567152 Z M32.5987526,36.2364241 C31.9558004,36.2364241 31.4345114,36.7577131 31.4345114,37.4006653 L31.4345114,49.0430769 C31.4345114,49.6860291 31.9558004,50.2073181 32.5987526,50.2073181 L37.2557173,50.2073181 C37.8986694,50.2073181 38.4199584,49.6860291 38.4199584,49.0430769 L38.4199584,37.4006653 C38.4199584,36.7577131 37.8986694,36.2364241 37.2557173,36.2364241 L32.5987526,36.2364241 Z" id="Fill-7"></path>
                <path d="M44.8269231,48.4263384 L48.4538462,48.4263384 L48.4538462,31.0009771 L44.8269231,31.0009771 L44.8269231,48.4263384 Z M44.2411642,29.2509771 C43.5982121,29.2509771 43.0769231,29.7722661 43.0769231,30.4152183 L43.0769231,49.0430769 C43.0769231,49.6860291 43.5982121,50.2073181 44.2411642,50.2073181 L48.8981289,50.2073181 C49.5410811,50.2073181 50.0623701,49.6860291 50.0623701,49.0430769 L50.0623701,30.4152183 C50.0623701,29.7722661 49.5410811,29.2509771 48.8981289,29.2509771 L44.2411642,29.2509771 Z" id="Fill-8"></path>
                <path d="M56.4693347,48.4693243 L59.95,48.4693243 L59.95,18.1943243 L56.4693347,18.1943243 L56.4693347,48.4693243 Z M55.8835759,16.4443243 C55.2406237,16.4443243 54.7193347,16.9656133 54.7193347,17.6085655 L54.7193347,49.0430769 C54.7193347,49.6860291 55.2406237,50.2073181 55.8835759,50.2073181 L60.5405405,50.2073181 C61.1834927,50.2073181 61.7047817,49.6860291 61.7047817,49.0430769 L61.7047817,17.6085655 C61.7047817,16.9656133 61.1834927,16.4443243 60.5405405,16.4443243 L55.8835759,16.4443243 Z" id="Fill-9"></path>
                <path d="M20.2996477,16.975 C23.6819544,16.975 26.425,14.2275827 26.425,10.8408263 C26.425,7.45406986 23.6819544,4.725 20.2996477,4.725 C16.9180456,4.725 14.175,7.47241734 14.175,10.8408263 C14.175,14.2092352 16.9180456,16.975 20.2996477,16.975 Z M20.3305275,6.31417393 C22.832003,6.31417393 24.8785141,8.36370946 24.8785141,10.8684601 C24.8785141,13.3732108 22.832003,15.4227463 20.3305275,15.4227463 C17.8297625,15.4227463 15.7832514,13.3732108 15.7832514,10.8684601 C15.7832514,8.36370946 17.8297625,6.31417393 20.3305275,6.31417393 Z" id="Fill-1"></path>
                <path d="M31.675,27.4411958 C31.675,22.2778979 28.1938497,18.725 23.9859375,18.725 L16.539129,18.725 C12.3502992,18.725 8.925,22.3413715 8.925,27.4725525 C8.925,27.4832612 29.0264241,27.4561194 31.4434127,27.443401 C31.5946498,27.4426052 31.675,27.4418659 31.675,27.4411958 Z M16.8,20.3914583 L23.8,20.3914583 C26.8534242,20.3914583 29.05,22.6126596 29.6625,25.8060942 L10.9375,25.8060942 C11.55,22.6126596 13.7475066,20.3914583 16.8,20.3914583 Z" id="Fill-3"></path>
            </g>
        </g>
    </g>
</svg>