<?xml version="1.0" encoding="UTF-8"?>
<svg width="250px" height="250px" viewBox="0 0 250 250" version="1.1" xmlns="http://www.w3.org/2000/svg" xmlns:xlink="http://www.w3.org/1999/xlink">
    <!-- Generator: Sketch 53 (72520) - https://sketchapp.com -->
    <title>history-solid</title>
    <desc>Created with Sketch.</desc>
    <g id="Page-1" stroke="none" stroke-width="1" fill="none" fill-rule="evenodd" fill-opacity="0.3">
        <g id="chi_siamo" transform="translate(-1003.000000, -1045.000000)" fill="#FFFFFF" fill-rule="nonzero">
            <g id="history-solid" transform="translate(1003.000000, 1045.000000)">
                <path d="M250,124.763609 C250.12752,193.634577 193.961694,249.951109 125.090726,249.999496 C95.3452621,250.020665 68.0226815,239.651714 46.5514113,222.322581 C40.968246,217.816532 40.5509073,209.449093 45.624496,204.375504 L51.3034274,198.696573 C55.6426411,194.357359 62.5700605,193.88256 67.3775202,197.696573 C83.1965726,210.249496 103.21623,217.741935 125,217.741935 C176.262601,217.741935 217.741935,176.254536 217.741935,125 C217.741935,73.7373992 176.254536,32.2580645 125,32.2580645 C100.396169,32.2580645 78.0498992,41.8190524 61.4576613,57.4254032 L87.0393145,83.0070565 C92.1199597,88.0877016 88.5216734,96.7741935 81.3371976,96.7741935 L8.06451613,96.7741935 C3.61038306,96.7741935 1.42108547e-13,93.1638105 1.42108547e-13,88.7096774 L1.42108547e-13,15.436996 C1.42108547e-13,8.25252016 8.68649194,4.65423387 13.7671371,9.734375 L38.6522177,34.6194556 C61.093246,13.1733871 91.5080645,2.84217094e-14 125,2.84217094e-14 C193.956653,2.84217094e-14 249.87248,55.8366935 250,124.763609 Z M158.814516,164.473286 L163.765625,158.107359 C167.86744,152.833669 166.917339,145.233367 161.643649,141.132056 L141.129032,125.175907 L141.129032,72.5806452 C141.129032,65.8996976 135.713206,60.483871 129.032258,60.483871 L120.967742,60.483871 C114.286794,60.483871 108.870968,65.8996976 108.870968,72.5806452 L108.870968,140.953125 L141.839214,166.595262 C147.112903,170.696573 154.712702,169.746976 158.814516,164.473286 L158.814516,164.473286 Z" id="Shape"></path>
            </g>
        </g>
    </g>
</svg>