<?xml version="1.0" encoding="UTF-8"?>
<svg width="219px" height="250px" viewBox="0 0 219 250" version="1.1" xmlns="http://www.w3.org/2000/svg" xmlns:xlink="http://www.w3.org/1999/xlink">
    <!-- Generator: Sketch 53 (72520) - https://sketchapp.com -->
    <title>building-solid</title>
    <desc>Created with Sketch.</desc>
    <g id="Page-1" stroke="none" stroke-width="1" fill="none" fill-rule="evenodd" fill-opacity="0.3">
        <g id="chi_siamo" transform="translate(-479.000000, -1045.000000)" fill="#FFFFFF" fill-rule="nonzero">
            <g id="building-solid" transform="translate(479.000000, 1045.000000)">
                <path d="M212.890625,234.375 L203.125,234.375 L203.125,11.71875 C203.125,5.24658203 197.878418,0 191.40625,0 L27.34375,0 C20.871582,0 15.625,5.24658203 15.625,11.71875 L15.625,234.375 L5.859375,234.375 C2.62353516,234.375 0,236.998535 0,240.234375 L0,250 L218.75,250 L218.75,240.234375 C218.75,236.998535 216.126465,234.375 212.890625,234.375 Z M62.5,37.109375 C62.5,33.8735352 65.1235352,31.25 68.359375,31.25 L87.890625,31.25 C91.1264648,31.25 93.75,33.8735352 93.75,37.109375 L93.75,56.640625 C93.75,59.8764648 91.1264648,62.5 87.890625,62.5 L68.359375,62.5 C65.1235352,62.5 62.5,59.8764648 62.5,56.640625 L62.5,37.109375 Z M62.5,83.984375 C62.5,80.7485352 65.1235352,78.125 68.359375,78.125 L87.890625,78.125 C91.1264648,78.125 93.75,80.7485352 93.75,83.984375 L93.75,103.515625 C93.75,106.751465 91.1264648,109.375 87.890625,109.375 L68.359375,109.375 C65.1235352,109.375 62.5,106.751465 62.5,103.515625 L62.5,83.984375 Z M87.890625,156.25 L68.359375,156.25 C65.1235352,156.25 62.5,153.626465 62.5,150.390625 L62.5,130.859375 C62.5,127.623535 65.1235352,125 68.359375,125 L87.890625,125 C91.1264648,125 93.75,127.623535 93.75,130.859375 L93.75,150.390625 C93.75,153.626465 91.1264648,156.25 87.890625,156.25 Z M125,234.375 L93.75,234.375 L93.75,193.359375 C93.75,190.123535 96.3735352,187.5 99.609375,187.5 L119.140625,187.5 C122.376465,187.5 125,190.123535 125,193.359375 L125,234.375 Z M156.25,150.390625 C156.25,153.626465 153.626465,156.25 150.390625,156.25 L130.859375,156.25 C127.623535,156.25 125,153.626465 125,150.390625 L125,130.859375 C125,127.623535 127.623535,125 130.859375,125 L150.390625,125 C153.626465,125 156.25,127.623535 156.25,130.859375 L156.25,150.390625 Z M156.25,103.515625 C156.25,106.751465 153.626465,109.375 150.390625,109.375 L130.859375,109.375 C127.623535,109.375 125,106.751465 125,103.515625 L125,83.984375 C125,80.7485352 127.623535,78.125 130.859375,78.125 L150.390625,78.125 C153.626465,78.125 156.25,80.7485352 156.25,83.984375 L156.25,103.515625 Z M156.25,56.640625 C156.25,59.8764648 153.626465,62.5 150.390625,62.5 L130.859375,62.5 C127.623535,62.5 125,59.8764648 125,56.640625 L125,37.109375 C125,33.8735352 127.623535,31.25 130.859375,31.25 L150.390625,31.25 C153.626465,31.25 156.25,33.8735352 156.25,37.109375 L156.25,56.640625 Z" id="Shape"></path>
            </g>
        </g>
    </g>
</svg>