<?xml version="1.0" encoding="UTF-8"?>
<svg width="68px" height="73px" viewBox="0 0 68 73" version="1.1" xmlns="http://www.w3.org/2000/svg" xmlns:xlink="http://www.w3.org/1999/xlink">
    <!-- Generator: Sketch 53 (72520) - https://sketchapp.com -->
    <title>icona4_white</title>
    <desc>Created with Sketch.</desc>
    <g id="Page-1" stroke="none" stroke-width="1" fill="none" fill-rule="evenodd">
        <g id="pagina_catalogo_accordion_chiusi" transform="translate(-113.000000, -3074.000000)" fill="#1863AA">
            <g id="Servizi_aggiuntivi" transform="translate(113.000000, 3074.000000)">
                <g id="icona4_white">
                    <g id="lamp" transform="translate(21.328233, 0.000000)">
                        <path d="M5.70817374,20.6323467 L6.23144007,22.5979141 C6.33609334,22.9914105 6.71467338,23.2681245 7.14873226,23.2681245 L16.8546923,23.2681245 C17.2893816,23.2681245 17.6679617,22.9914105 17.7726149,22.5979141 L18.2954084,20.6323467 C21.7867927,18.6038964 23.9386467,15.0067622 23.9386467,11.1530895 C23.9386467,5.00367763 18.5841506,-3.55271368e-15 12.0020275,-3.55271368e-15 C5.41990443,-3.55271368e-15 0.0649354607,5.00367763 0.0649354607,11.1530895 C0.0649354607,15.0067622 2.21726228,18.6038964 5.70817374,20.6323467 Z M12.0020275,1.76719933 C17.541243,1.76719933 22.0473226,5.97814079 22.0473226,11.1530895 C22.0473226,14.503994 20.1140742,17.6242789 17.0012699,19.2964913 C16.7777785,19.416219 16.6170159,19.6157653 16.5549174,19.8493301 L16.1153422,21.5009252 L7.88823998,21.5009252 L7.44913757,19.8493301 C7.3870391,19.6157653 7.22564611,19.416219 7.00278509,19.2964913 C3.88998084,17.6242789 1.95625956,14.503994 1.95625956,11.1530895 C1.95625956,5.97814079 6.46296967,1.76719933 12.0020275,1.76719933 Z" id="Fill-4"></path>
                        <path d="M16.8546923,25.0353238 L7.14873226,25.0353238 C6.62672681,25.0353238 6.20307021,25.4311765 6.20307021,25.9189235 C6.20307021,26.4066705 6.62672681,26.8025231 7.14873226,26.8025231 L16.8546923,26.8025231 C17.3774858,26.8025231 17.8003544,26.4066705 17.8003544,25.9189235 C17.8003544,25.4311765 17.3774858,25.0353238 16.8546923,25.0353238 Z" id="Fill-6"></path>
                        <path d="M16.8546923,28.3576585 L7.14873226,28.3576585 C6.62672681,28.3576585 6.20307021,28.7535112 6.20307021,29.2412582 C6.20307021,29.7290052 6.62672681,30.1248579 7.14873226,30.1248579 L16.8546923,30.1248579 C17.3774858,30.1248579 17.8003544,29.7290052 17.8003544,29.2412582 C17.8003544,28.7535112 17.3774858,28.3576585 16.8546923,28.3576585 Z" id="Fill-6"></path>
                        <path d="M9.19278078,19.0635155 C9.29995581,19.4651115 9.68594354,19.7337258 10.110073,19.7337258 C10.1852531,19.7337258 10.2621669,19.7256262 10.3384504,19.7078069 C10.845798,19.5898464 11.1542415,19.1107881 11.0279956,18.6367368 L10.1920303,15.4923002 L13.8121823,15.4923002 L12.975429,18.6367368 C12.8491831,19.1107881 13.158257,19.5898464 13.6649742,19.7078069 C13.7412576,19.7250371 13.8183291,19.7337258 13.893982,19.7337258 C14.3181115,19.7337258 14.7042568,19.4651115 14.8106438,19.0635155 L15.9392915,14.8220898 C15.9403947,14.8175246 15.9410252,14.8129593 15.9416556,14.808394 C15.9460687,14.7911638 15.9496937,14.7737864 15.9528459,14.7565562 C15.9552101,14.7433022 15.9577319,14.7300482 15.9596232,14.7169415 C15.9613569,14.7025093 15.9626178,14.6886663 15.9632482,14.6743814 C15.9651395,14.657593 15.96577,14.6403628 15.9662428,14.6237217 C15.9662428,14.6191564 15.9668733,14.6138548 15.9668733,14.6087005 C15.9668733,14.601779 15.9662428,14.5954465 15.96577,14.588525 C15.96577,14.5702639 15.9645091,14.5522974 15.9632482,14.5344781 C15.9619873,14.5224023 15.960096,14.5103264 15.9589927,14.4982506 C15.956471,14.4821985 15.9539492,14.4659992 15.9509546,14.4499471 C15.9484329,14.436104 15.9454383,14.4224082 15.9416556,14.4091543 C15.938661,14.3953112 15.9348784,14.3820572 15.9306229,14.3682141 C15.9263674,14.3533402 15.9206934,14.338319 15.9158075,14.3234451 C15.911552,14.3119583 15.9066661,14.3003242 15.902253,14.2888374 C15.8954758,14.2733744 15.8886985,14.2583532 15.8812908,14.2428903 C15.8764049,14.2325816 15.8708886,14.2221257 15.8653722,14.211817 C15.8573341,14.1967958 15.8486655,14.1825109 15.8401545,14.1680788 C15.8333773,14.1571811 15.8266001,14.1467252 15.8198228,14.1370056 C15.8105238,14.1231625 15.8013824,14.1104976 15.791453,14.0978326 C15.7834148,14.0869349 15.7749039,14.0760372 15.7662353,14.0657285 C15.7563058,14.0548308 15.7471644,14.0431967 15.737235,14.0328881 C15.7268327,14.0214013 15.7158,14.0105035 15.7052401,13.9994585 C15.6954683,13.990328 15.6855388,13.9811975 15.675767,13.9725088 C15.6634734,13.961611 15.6510221,13.950566 15.6380981,13.9402574 C15.6283262,13.9321577 15.617924,13.9247944 15.6073641,13.9166947 C15.59444,13.9069751 15.5808855,13.8971082 15.5667006,13.8879777 C15.5556679,13.8804671 15.5440047,13.8735456 15.5323415,13.866035 C15.5187871,13.8580826 15.5052326,13.850572 15.4910476,13.8430614 C15.4774932,13.8355508 15.4639387,13.8286293 15.4497537,13.8222968 C15.4374601,13.8159643 15.4245361,13.8102209 15.411612,13.8044776 C15.3950629,13.797556 15.3783562,13.7912236 15.3611767,13.7848911 C15.3493559,13.7809149 15.3383232,13.7769387 15.3266601,13.7734043 C15.3075892,13.7670718 15.2885184,13.7619175 15.2694475,13.7573522 C15.2626703,13.755585 15.2565235,13.753376 15.2491158,13.7516088 C15.2440722,13.7504307 15.2391863,13.7498416 15.2343004,13.7486635 C15.2164904,13.7452764 15.1985228,13.741742 15.1800824,13.7389439 C15.1652671,13.7365876 15.1499789,13.7343786 15.1351635,13.7326114 C15.121609,13.7308442 15.1074241,13.7296661 15.0938696,13.7286352 C15.0741683,13.7274571 15.0538366,13.726279 15.0341353,13.7256899 C15.0298798,13.7256899 15.0256243,13.7251008 15.0212112,13.7251008 L8.98221337,13.7251008 C8.69094945,13.7251008 8.41639224,13.850572 8.23718928,14.0645504 C8.05751349,14.2791178 7.99399652,14.5580408 8.06429074,14.8220898 L9.19278078,19.0635155 Z" id="Fill-7"></path>
                    </g>
                    <g id="box" transform="translate(0.000000, 32.925946)">
                        <path d="M42.741485,13.2238942 C42.5381296,13.2238942 42.338899,13.1013753 42.2217531,12.9040752 L35.6534696,1.84915574 L58.4684617,1.84915574 C58.8810849,1.84915574 59.2743212,2.0798487 59.495001,2.45116794 L65.8739536,13.1877969 C65.8813783,13.2002605 65.8838532,13.212724 65.8838532,13.2238942 C65.2548127,13.2238942 43.3235022,13.2238942 42.741485,13.2238942 Z M9.20681654,36.5856127 L9.20681654,14.9877194 L25.2039714,14.9877194 C26.1914619,14.9877194 27.093568,14.4927054 27.5625642,13.7030347 L32.9413766,4.65004104 L32.9413766,37.6018611 L10.1544335,37.6018611 C9.64075142,37.6019786 9.20681654,37.1364774 9.20681654,36.5856127 Z M2.07150279,13.1879145 L8.45045541,2.45128553 C8.67099772,2.07996628 9.06437151,1.84927332 9.47699463,1.84927332 L32.2919868,1.84927332 C31.5035893,3.17616936 26.7877787,11.1132064 25.7237033,12.9041928 L25.7237033,12.9043103 C25.6064198,13.1014929 25.4073268,13.2240117 25.2039714,13.2240117 C24.6223666,13.2240117 2.68968124,13.2240117 2.06160313,13.2240117 C2.06160313,13.2128416 2.06421554,13.2003781 2.07150279,13.1879145 Z M61.3337244,1.65232597 C60.7594069,0.685696605 59.6615077,0.0854481074 58.4683243,0.0854481074 C56.3173492,0.0854481074 11.6239823,0.0854481074 9.47685713,0.0854481074 C8.28367373,0.0854481074 7.1857745,0.685696605 6.61145702,1.65232597 L0.232504395,12.3888374 C-0.104771348,12.9566337 -0.07314745,13.6455379 0.315139014,14.1865258 C0.675101466,14.6883594 1.28626766,14.9877194 1.95023201,14.9877194 L7.14397596,14.9877194 L7.14397596,36.5856127 C7.14397596,38.1185098 8.49431638,39.3658039 10.154296,39.3658039 C10.8353098,39.3658039 57.1100091,39.3658039 57.7910229,39.3658039 C59.450865,39.3658039 60.8013429,38.1186274 60.8013429,36.5856127 C60.8013429,22.1870172 60.8013429,14.9877194 60.8013429,14.9877194 C60.8013429,14.9877194 58.7386398,14.9877194 58.7387773,14.9877194 L58.7387773,36.5856127 C58.7387773,37.1364774 58.304705,37.6019786 57.7910229,37.6019786 L35.0039422,37.6019786 L35.0039422,4.65004104 L40.3827547,13.7029172 C40.8534008,14.4954098 41.7572943,14.9877194 42.7413475,14.9877194 L58.7385023,14.9877194 L60.8012054,14.9877194 L65.9949494,14.9877194 C66.6589137,14.9877194 67.2699424,14.6882418 67.6300424,14.1865258 C68.0183288,13.6454203 68.0500902,12.9566337 67.712677,12.3888374 L61.3337244,1.65232597 Z" id="Fill-1"></path>
                    </g>
                    <g id="setting" transform="translate(48.684676, 10.796204)" fill-rule="nonzero">
                        <path d="M9.81421787,8.74577965e-05 L9.81421635,0.000763304557 C9.89014162,-0.00262364363 9.96615111,0.0052740955 10.0397053,0.0241926589 L12.8553517,0.769411335 C13.0502161,0.820972515 13.2163345,0.947047242 13.3170755,1.11983433 C13.4178166,1.29262142 13.4449061,1.49792949 13.3923706,1.69048534 L12.7159044,4.19557894 C12.7740564,4.23778182 12.8313866,4.28028507 12.8879877,4.32459058 L15.1577129,3.03097482 C15.3319989,2.93096585 15.5393363,2.90352305 15.7340922,2.95468633 C15.928848,3.0058496 16.0950605,3.13142577 16.1961479,3.30377661 L17.6529263,5.80006919 C17.7538325,5.97273708 17.7811367,6.17799309 17.7288194,6.37058458 C17.676502,6.56317607 17.548859,6.72728863 17.3740317,6.82674049 L15.1072733,8.11742758 C15.1183474,8.18956296 15.1256238,8.26195366 15.1339787,8.33449454 L17.6647949,9.00329748 C17.8596597,9.05485833 18.0257784,9.18093293 18.1265197,9.35372005 C18.2272611,9.52650717 18.2543508,9.73181543 18.2018153,9.92437148 L17.448207,12.7081392 C17.3960602,12.9008015 17.2685433,13.0650445 17.0937763,13.1646493 C16.9190092,13.2642541 16.7113465,13.2910398 16.5165819,13.2390995 L13.9887309,12.5673378 C13.945194,12.6259563 13.9008823,12.6833281 13.8552187,12.7403997 L15.163648,14.9815826 C15.2645589,15.1542518 15.2918659,15.3595115 15.2395483,15.5521066 C15.1872307,15.7447017 15.0595847,15.908817 14.8847533,16.0082689 L12.3598707,17.4484233 C11.9976076,17.6547038 11.5348431,17.5328121 11.3244009,17.1756816 L10.0130042,14.9317201 C9.93981434,14.9437352 9.8670001,14.9482408 9.79344911,14.9632596 L9.11698216,17.4655447 C9.00831846,17.865305 8.59296857,18.102761 8.18832362,17.9964599 L5.37267831,17.2483726 C4.96835099,17.1409493 4.72816869,16.7303286 4.83565853,16.3302724 L5.51212534,13.8251337 C5.45397147,13.783081 5.39664277,13.7395264 5.34004171,13.6959719 L3.07031711,14.9895426 C2.8960384,15.0895569 2.68870617,15.1170091 2.49395092,15.0658573 C2.29919567,15.0147055 2.13297842,14.8891418 2.03188092,14.7168009 L0.575103368,12.2204782 C0.474197223,12.0478104 0.446892925,11.8425544 0.499210231,11.6499629 C0.551527537,11.4573714 0.679170477,11.2932589 0.853997714,11.1938069 L3.12372141,9.90019119 C3.11264121,9.82888184 3.10254386,9.75769265 3.09405218,9.68605289 L0.563235071,9.01430627 C0.368370446,8.96274532 0.20225179,8.83667068 0.101510565,8.66388357 C0.00076934021,8.49109646 -0.0263203523,8.28578826 0.0262151397,8.09323227 L0.779823136,5.30947953 C0.831973216,5.11681995 0.959491556,4.95258053 1.13425829,4.85297874 C1.30902503,4.75337695 1.516686,4.72659341 1.7114486,4.77853432 L4.23929879,5.45028094 C4.2828418,5.39164748 4.32715499,5.3342756 4.37281257,5.2772041 L3.06438311,3.03612628 C2.96347214,2.86345707 2.93616514,2.65819745 2.98848267,2.46560234 C3.04080019,2.27300722 3.1684461,2.10889191 3.34327746,2.00943995 L5.86816057,0.569165449 C6.23043938,0.362895374 6.69320839,0.484815183 6.90362984,0.841967239 L8.21502622,3.08594369 C8.28821461,3.07482977 8.36103189,3.06566829 8.43458136,3.056657 L9.11104831,0.554492065 C9.19770542,0.237619936 9.48246892,0.013101972 9.81421787,8.74577965e-05 Z M10.3809119,1.66930881 L10.3809079,1.66972933 L9.76971404,3.92255187 C9.68256449,4.24564744 9.38985211,4.47285827 9.05170971,4.47988515 C8.69641397,4.48634324 8.34268287,4.53350232 7.99843876,4.62061146 C7.6677094,4.7052869 7.32049367,4.56125479 7.14988804,4.26861545 L5.96903791,2.24458957 L4.76148502,2.93393825 L5.93936823,4.95502044 C6.10945111,5.24492603 6.06466031,5.61116375 5.82959013,5.85263505 C5.58269953,6.10556694 5.36412618,6.38628365 5.18279285,6.68864247 C5.00864627,6.976812 4.66222199,7.11572711 4.33424213,7.02890879 L2.04968276,6.42464171 L1.69068045,7.75637522 L3.96930597,8.36065732 C4.29714509,8.44711911 4.52723014,8.73805386 4.53302851,9.07346539 C4.53961373,9.42469544 4.58726435,9.77449871 4.6754426,10.1148101 C4.75960879,10.44087 4.61412488,10.7824812 4.31940736,10.9508175 L2.27220482,12.1182902 L2.96944038,13.3150947 L5.01070908,12.147622 C5.30456846,11.9802256 5.67506397,12.0257023 5.91859901,12.2590616 C6.17443807,12.5031324 6.45836849,12.7163395 6.76418266,12.8956041 C7.05679978,13.066906 7.19860756,13.4096154 7.11133369,13.7345702 L6.49717302,15.9932501 L7.84713985,16.3511485 L8.45833375,14.0953222 C8.54661086,13.7734101 8.83905116,13.5476277 9.17633807,13.5409777 C9.53164051,13.5334683 9.88535732,13.4869099 10.229609,13.3998008 C10.5603493,13.3151331 10.9075685,13.459185 11.0781605,13.7518419 L12.2590096,15.7759278 L13.4665626,15.0865641 L12.2886803,13.0653318 C12.118626,12.7754424 12.1634117,12.4092404 12.3984493,12.1677772 C12.6453384,11.9148453 12.8639163,11.6341286 13.0452478,11.3317698 C13.2193942,11.0436008 13.5658178,10.9046858 13.8937973,10.9915035 L16.1753911,11.5957706 L16.5373599,10.2610934 L14.2587344,9.65975495 C13.9298513,9.57299662 13.6994957,9.28052319 13.6950115,8.94401821 C13.6891631,8.59244272 13.6431652,8.24345047 13.5555597,7.90267352 C13.4713935,7.57661359 13.6168774,7.23500237 13.9115949,7.06666609 L15.9558304,5.89919338 L15.2585953,4.70530257 L13.2173266,5.8727903 C12.9234673,6.04018645 12.552972,5.99470971 12.3094371,5.76135068 C12.05359,5.51727989 11.7696732,5.30405774 11.4638528,5.12480816 C11.1699676,4.95316376 11.0279715,4.60879149 11.1167179,4.28292838 L11.7279121,2.02717718 L10.3809119,1.66930881 Z" id="Combined-Shape"></path>
                        <path d="M9.36027754,6.01067806 L9.36027754,6.01069308 C9.56535475,6.02255794 9.77176738,6.05589972 9.97740528,6.11041802 C11.6224938,6.54623405 12.6107899,8.2357308 12.1699898,9.86219358 C11.7291896,11.4886413 10.017368,12.4657505 8.37227979,12.0299495 C6.72719146,11.5941335 5.73891055,9.90170809 6.17969608,8.27524531 C6.56539598,6.85209226 7.92473647,5.92747381 9.36027754,6.01067806 Z M8.95380386,7.51843211 L8.95380386,7.51837203 C8.34297834,7.59932345 7.81957866,8.03054373 7.64834132,8.66238535 C7.42002502,9.50482083 7.9147968,10.3521374 8.76688547,10.5778702 C9.61897415,10.8036031 10.4759942,10.3144252 10.704311,9.4719897 C10.9326277,8.6295392 10.4348883,7.78516629 9.5827996,7.55943348 C9.36977379,7.50311291 9.15741242,7.49139824 8.95380386,7.51843211 Z" id="Combined-Shape"></path>
                    </g>
                    <path d="M9.55336505,9.53780872 C9.70443233,9.38838889 9.9086234,9.30331845 10.1222946,9.30401619 C10.3437154,9.3006702 10.5570546,9.38618884 10.713598,9.5410446 L13.9385996,12.7295217 C14.1587695,12.9461861 14.2358706,13.2674209 14.1376354,13.5587863 C14.0394001,13.8501517 13.7827694,14.0614011 13.4751456,14.1041247 C13.107206,14.1552516 12.7667706,14.3220614 12.50349,14.5812556 C11.826784,15.2502743 11.826784,16.3106731 12.50349,16.9796919 C13.1801813,17.6487106 14.2527418,17.6487106 14.9294331,16.9796919 C15.1917744,16.7196887 15.360025,16.3826715 15.4120649,16.0191201 C15.4552752,15.7149744 15.6689475,15.4612447 15.9636555,15.3641222 C16.2583635,15.2669996 16.5832824,15.3432338 16.8024268,15.5609191 L20.02743,18.7493962 C20.3468096,19.0653176 20.3468096,19.5773593 20.02743,19.8932807 L10.713598,29.1047064 C10.560015,29.257329 10.3512384,29.3431373 10.1334815,29.3431373 C9.91572465,29.3431373 9.70694806,29.257329 9.55336505,29.1047064 L0.239534646,19.8932807 C-0.0798448821,19.5773593 -0.0798448821,19.0653176 0.239534646,18.7493962 L2.69424366,16.3224841 C2.21174769,16.1736335 2.21174769,16.1736335 2.02934972,15.9969543 C0.727252598,14.7095583 0.727252598,12.5978212 2.02934972,11.3105871 C3.33141739,10.0231911 5.46729898,10.0231911 6.77263959,11.3105871 C6.99947839,11.5480946 6.99947839,11.5480946 7.10185207,11.9614849 L9.55336505,9.53780872 Z M11.9230564,13.093804 C11.9329304,13.0828708 11.3099762,12.4628748 10.0541938,11.2338162 L7.42854127,13.8233635 C7.20939684,14.0410488 6.88447797,14.117283 6.58977,14.0201605 C6.29506203,13.9230379 6.08138971,13.6693082 6.03817936,13.3651625 C5.98660101,13.0012875 5.8177334,12.6647557 5.55554756,12.4044289 C4.87885629,11.7354102 3.80949177,11.7354102 3.1328005,12.4044289 C2.4560945,13.0734477 2.4560945,14.1338465 3.1328005,14.8028652 C3.39540854,15.0610887 3.73450368,15.2283838 4.10126012,15.2801579 C4.40888394,15.3228815 4.76374984,15.8254963 4.76374984,15.8254963 C4.76374984,15.8254963 4.96596798,16.3003391 4.74579808,16.5170035 C4.59901815,16.6614465 3.69475503,17.5614155 2.03300872,19.2169105 L10.1551906,27.3005219 L18.1763756,19.3174276 L16.4719478,17.6332974 C16.4658169,17.6393991 16.2088129,17.8960456 16.0296109,18.0735337 C14.7275465,19.3609297 12.5916617,19.3609297 11.289594,18.0735337 C9.9874985,16.7862996 10.1724931,14.8275381 11.4745886,13.5401422 C11.6536154,13.3636248 11.9082455,13.1102039 11.9230564,13.093804 Z" id="Combined-Shape" fill-rule="nonzero" transform="translate(10.133482, 19.323529) rotate(-360.000000) translate(-10.133482, -19.323529) "></path>
                </g>
            </g>
        </g>
    </g>
</svg>