<?xml version="1.0" encoding="UTF-8"?>
<svg width="230px" height="79px" viewBox="0 0 230 79" version="1.1" xmlns="http://www.w3.org/2000/svg" xmlns:xlink="http://www.w3.org/1999/xlink">
    <!-- Generator: sketchtool 52.5 (67469) - http://www.bohemiancoding.com/sketch -->
    <title>B3659B7B-9F1D-476E-807D-AE6150F461D8</title>
    <desc>Created with sketchtool.</desc>
    <g id="Desktop" stroke="none" stroke-width="1" fill="none" fill-rule="evenodd">
        <g id="Pagina-Foglia-1°-livello" transform="translate(-113.000000, -1765.000000)">
            <g id="Footer" transform="translate(0.000000, 1715.000000)">
                <g id="Logo_mef_footer" transform="translate(113.000000, 50.000000)">
                    <path d="M42.9535744,54.3429516 L48.2809792,54.3429516 C51.1547855,54.3429516 54.1177266,53.6481765 56.2967578,51.7039204 L55.4627093,55.9640934 C54.2108408,56.0572076 52.6828131,56.1948893 51.0139204,56.1948893 L37.6261696,56.1948893 C38.6456505,54.6214983 38.784128,52.2116713 38.784128,50.1265502 L38.784128,32.710218 C38.784128,30.624301 38.784128,28.214474 37.7654429,26.6394913 L53.93309,26.6394913 L54.1177266,30.206481 C52.4965848,28.8177266 49.9952353,28.4930208 47.2622941,28.4930208 L42.9535744,28.4930208 L42.9535744,39.5648547 C46.520564,39.5648547 50.273782,39.5648547 53.8399758,39.2401488 C52.2188339,41.8815675 46.9837474,41.8815675 44.1123287,41.8815675 L42.9535744,41.8815675 L42.9535744,54.3429516 Z" id="Fill-1" fill="#4f62a1"></path>
                    <path d="M65.0892837,50.1267093 C65.0892837,52.2118304 65.0892837,54.6208616 66.1087647,56.1950484 L59.9003564,56.1950484 C60.9190415,54.6208616 60.9190415,52.2118304 60.9190415,50.1267093 L60.9190415,32.7103772 C60.9190415,30.6244602 61.0113599,28.2146332 59.9926747,26.6396505 L74.3553391,26.6396505 C75.51091,26.6396505 76.4850277,26.6396505 76.4850277,27.0558789 L76.4850277,30.6714152 L76.2542318,30.6714152 C74.9577958,28.5393391 72.0386263,28.4931799 69.8611869,28.4931799 L65.0892837,28.4931799 L65.0892837,40.3982664 C68.6554775,40.3982664 72.4078997,40.3982664 75.9740934,40.0743564 C74.3553391,42.7149792 69.1186609,42.7149792 66.2472422,42.7149792 L65.0892837,42.7149792 L65.0892837,50.1267093 Z" id="Fill-3" fill="#4f62a1"></path>
                    <path d="M16.3859481,23.9783356 C16.245083,24.3189585 16.3907232,24.7144948 16.7146332,24.8736644 C17.0385433,25.0320381 17.4245294,24.8951522 17.588474,24.5648754 C17.6815882,24.3778512 27.123526,5.91975433 50.1370554,5.91975433 C74.1469862,5.91975433 83.9008962,25.644045 84.6856021,38.9020727 C85.1089931,46.0440104 82.6808616,54.8954291 78.1397543,62.0031453 C74.257609,68.0802388 67.2183356,75.6606886 55.7135606,77.257955 C55.350654,77.3088893 55.0959827,77.6694083 55.1421419,78.0458443 C55.1875052,78.4214844 55.5161903,78.7056021 55.8790969,78.6610346 C74.9953599,76.3212422 89.5410692,59.4731453 89.5410692,39.4742872 C89.5410692,17.7460519 72.4096505,0.0631107266 51.4907924,0.000238754325 L51.2241834,0.000238754325 C36.025083,0.0631107266 22.3619689,9.45968512 16.3859481,23.9783356" id="Fill-5" fill="#BB8E2D"></path>
                    <path d="M15.0305398,56.6885536 C20.1510242,68.458346 31.2435502,77.0741938 44.6933772,78.6611142 C45.0475294,78.7032941 45.3690519,78.4366851 45.4128235,78.0833287 C45.4581869,77.7283806 45.2090865,77.3909412 44.8557301,77.3431903 C33.6366644,75.8398339 26.1190865,69.1085536 22.3332388,63.398346 C19.974346,59.8409066 18.1741384,55.818692 17.0599516,51.8227405 L25.3884983,32.1533633 C25.5261799,31.7824983 25.6654533,31.4577924 25.9901592,31.4577924 C26.3140692,31.4577924 26.3140692,32.0132941 26.3140692,32.4764775 L26.3140692,47.857827 C26.3140692,50.4522907 26.3140692,53.8808028 25.4800208,56.195128 L32.29009,56.195128 C31.270609,54.3431903 31.0851765,52.21191 30.8543806,50.1267889 C30.2519239,44.5685882 30.4835156,38.7772042 30.4835156,33.2182076 C30.4835156,30.9014948 30.3442422,28.4001453 31.411474,26.6397301 L26.6849343,26.6397301 C25.5261799,26.6397301 25.2038616,27.6130519 24.7860415,28.5855779 L16.770263,47.904782 C16.4925121,48.5518062 16.3540346,49.0157855 15.9370104,49.0157855 C15.5669412,49.0157855 15.426872,48.2278962 15.1960761,47.5331211 L8.61521107,27.3345052 C8.42977855,26.7320484 7.73500346,26.6397301 7.17870588,26.6397301 L1.15811765,26.6397301 C2.26991696,27.3345052 2.31687197,27.9831211 2.31687197,29.2341938 L2.31687197,40.8153702 C2.31687197,45.8196609 2.1306436,53.1398685 0.417979239,55.594263 L0.00015916955,56.1959239 L5.51299654,56.1959239 C4.49510727,54.6678962 4.49510727,51.6572042 4.49510727,48.0440554 L4.54047059,32.9858201 C4.54047059,32.2918408 4.54047059,31.4577924 4.95669896,31.4577924 C5.37451903,31.4577924 5.69842907,32.5695917 6.20856747,33.9121869 L15.0305398,56.6885536 Z" id="Fill-7" fill="#4f62a1"></path>
                    <path d="M121.383813,6.0045917 C120.872879,6.84421107 120.936547,8.04116609 120.936547,9.14580277 C120.936547,11.7927924 120.827516,14.5519965 121.113225,17.2013737 C121.227031,18.1977751 121.31537,19.2116851 121.803225,20.0950761 L118.548208,20.0950761 C118.948519,18.9936228 118.948519,17.3605433 118.948519,16.1214083 L118.948519,8.79005882 C118.948519,8.57120069 118.948519,8.30777509 118.798104,8.30777509 C118.647689,8.30777509 118.580042,8.45500692 118.510007,8.63646021 L113.556651,20.3234844 L109.3689,9.47528374 C109.121391,8.83223875 108.967792,8.30777509 108.771218,8.30777509 C108.569073,8.30777509 108.569073,8.70649481 108.569073,9.03438408 L108.550768,16.2089516 C108.550768,17.9351453 108.550768,19.3732422 109.034644,20.0950761 L106.408346,20.0950761 L106.606512,19.8141419 C107.427031,18.6394706 107.512187,15.156045 107.512187,12.7661142 L107.512187,7.2429308 C107.512187,6.64365744 107.485924,6.33407266 106.955093,6.0045917 L109.695197,6.0045917 C109.965785,6.0045917 110.292879,6.0547301 110.384401,6.33407266 L113.648969,15.9654221 C113.762775,16.2972907 113.82883,16.6792976 114.000734,16.6792976 C114.203675,16.6792976 114.272913,16.452481 114.403433,16.1444879 L118.226685,6.93414187 C118.41928,6.47414187 118.580042,6.0045917 119.125993,6.0045917 L121.383813,6.0045917 Z" id="Fill-9" fill="#4f62a1"></path>
                    <path d="M125.910197,9.88705536 L125.910197,17.7150138 C125.910197,18.5339412 125.910197,19.4786125 126.310509,20.0953945 L123.879194,20.0953945 C124.268363,19.4786125 124.268363,18.5339412 124.268363,17.7150138 L124.268363,11.7501349 C124.25563,10.997263 124.25563,10.5523841 123.790855,10.2435952 L125.910197,9.88705536 Z M125.354696,6.22854325 L126.372585,7.70882007 L124.779298,8.7426263 L123.764592,7.30691696 L125.354696,6.22854325 Z" id="Fill-11" fill="#4f62a1"></path>
                    <path d="M130.811983,10.1097336 L130.811983,10.8880727 C130.811983,11.069526 130.788107,11.2438166 130.946481,11.2438166 C131.145443,11.2438166 132.115581,9.88689619 133.837796,9.88689619 C135.497138,9.88689619 136.536516,10.7113945 136.536516,12.7662734 L136.536516,17.7156505 C136.536516,18.533782 136.536516,19.4776574 136.886689,20.0952353 L134.896273,20.0952353 L134.896273,14.0420173 C134.896273,12.6413253 134.706066,11.0926055 132.933713,11.0926055 C131.189215,11.0926055 130.854163,12.6540588 130.854163,14.1566194 L130.854163,17.7156505 C130.854163,18.533782 130.854163,19.4776574 131.251291,20.0952353 L128.824751,20.0952353 C129.220287,19.4776574 129.220287,18.533782 129.220287,17.7156505 L129.220287,12.454301 C129.220287,11.5510138 129.220287,10.6859273 128.755512,10.243436 L130.811983,10.1097336 Z" id="Fill-13" fill="#4f62a1"></path>
                    <path d="M141.460346,9.88705536 L141.460346,17.7150138 C141.460346,18.5339412 141.460346,19.4786125 141.851903,20.0953945 L139.429343,20.0953945 C139.824879,19.4786125 139.824879,18.5339412 139.824879,17.7150138 L139.824879,11.7501349 C139.795433,10.997263 139.795433,10.5523841 139.335433,10.2435952 L141.460346,9.88705536 Z M140.910415,6.22854325 L141.920346,7.70882007 L140.329446,8.7426263 L139.310761,7.30691696 L140.910415,6.22854325 Z" id="Fill-15" fill="#4f62a1"></path>
                    <path d="M150.646817,17.2971938 C150.646817,19.3934567 148.611038,20.4487509 146.739204,20.4487509 C145.854221,20.4487509 145.095779,20.2760519 144.285606,19.9656713 C144.040484,19.8797197 143.912353,19.7929723 143.912353,19.4778166 C143.912353,18.9517612 143.996713,18.4169516 144.016609,17.8638374 C144.705017,18.968474 145.255744,19.6568824 146.712941,19.6568824 C148.012561,19.6568824 148.784533,19.0305502 148.784533,17.7810692 C148.784533,15.0823495 144.4209,15.5256367 144.4209,12.2602734 C144.4209,10.5993391 145.697439,9.88705536 147.773806,9.88705536 C148.432768,9.88705536 149.115606,9.9976782 149.78173,10.1560519 C149.849377,10.1807232 150.073806,10.2213114 150.073806,10.3510346 C150.073806,10.7561211 150.045952,11.3975744 150.02526,11.8599619 C149.165744,10.7768131 148.724048,10.5523841 147.707751,10.5523841 C146.849031,10.5523841 146.046817,10.9582664 146.046817,11.901346 C146.046817,14.5324187 150.646817,14.2204464 150.646817,17.2971938" id="Fill-17" fill="#4f62a1"></path>
                    <path d="M154.706118,7.11050173 L154.706118,10.2437543 L156.516671,10.2437543 C156.606602,10.2437543 156.713246,10.2437543 156.713246,10.4013322 C156.713246,10.8708824 155.787675,11.0396021 155.080166,11.0396021 L154.706118,11.0396021 L154.706118,17.8202249 C154.706118,18.5532007 154.814353,19.1723702 155.69854,19.1723702 C156.095668,19.1723702 156.80636,18.8834775 157.048298,18.6399481 L156.96155,19.5925779 C156.940858,19.7931315 155.898298,20.44891 155.061066,20.44891 C153.603869,20.44891 153.076221,19.5010554 153.076221,18.1552768 L153.076221,11.0396021 L152.145875,11.0396021 L152.145875,10.3392561 L153.076221,10.2437543 L153.162173,7.5283218 L154.706118,7.11050173 Z" id="Fill-19" fill="#4f62a1"></path>
                    <path d="M162.837851,13.0739481 C163.917021,13.0739481 164.490031,13.0739481 164.490031,12.2311453 C164.490031,11.4185848 163.892349,10.5527024 162.809201,10.5527024 C161.426017,10.5527024 160.825948,11.9016644 160.559339,13.0739481 L162.837851,13.0739481 Z M160.427228,13.7368893 C160.383457,14.1570969 160.342073,14.5112491 160.342073,14.9744325 C160.342073,17.0237405 161.266052,18.9934637 163.566052,18.9934637 C164.646813,18.9934637 165.707678,18.5541557 166.238509,17.9540865 L166.238509,18.1976159 C166.238509,19.373083 164.378612,20.4490692 162.748716,20.4490692 C159.854218,20.4490692 158.482972,17.8386886 158.482972,15.1773737 C158.482972,12.2995882 160.075464,9.88657785 163.09491,9.88657785 C165.221415,9.88657785 166.476467,11.2856782 166.476467,12.7229792 C166.476467,13.7368893 165.749062,13.7368893 164.378612,13.7368893 L160.427228,13.7368893 Z" id="Fill-21" fill="#4f62a1"></path>
                    <path d="M168.681602,13.7788304 C168.681602,12.2086228 168.681602,10.6861661 168.114163,10.221391 C168.934682,10.2014948 169.699491,10.1099723 169.971671,10.1099723 C170.368003,10.1099723 170.122882,11.2185882 170.368003,11.2185882 C170.47226,11.2185882 171.207623,9.88713495 172.510426,9.88713495 C173.277623,9.88713495 173.720114,10.2014948 173.720114,10.7291419 C173.720114,11.1453702 173.502848,11.454955 172.948938,11.454955 C172.536689,11.454955 172.090218,11.397654 171.559388,11.397654 C170.455547,11.397654 170.324232,12.1688304 170.324232,13.1373772 L170.324232,17.6888304 C170.324232,18.5125329 170.324232,19.4564083 170.716585,20.095474 L168.290045,20.095474 C168.681602,19.4564083 168.681602,18.5125329 168.681602,17.6888304 L168.681602,13.7788304 Z" id="Fill-23" fill="#4f62a1"></path>
                    <path d="M179.556862,19.6568028 C181.631637,19.6568028 182.182363,17.6043114 182.182363,15.7674948 C182.182363,13.1801938 181.384924,10.6860069 179.049907,10.6860069 C176.966377,10.6860069 176.41963,12.7440692 176.41963,14.574519 C176.41963,17.1578408 177.216273,19.6568028 179.556862,19.6568028 M178.828661,20.4494671 C175.779768,20.4494671 174.562121,17.9544844 174.562121,15.5478408 C174.562121,12.1248997 176.458626,9.88697578 179.774924,9.88697578 C182.823021,9.88697578 184.039076,12.3875294 184.039076,14.7981522 C184.039076,18.2226851 182.140979,20.4494671 178.828661,20.4494671" id="Fill-25" fill="#4f62a1"></path>
                    <path d="M113.343761,38.8340277 C113.343761,37.7962422 113.096253,37.2463114 111.975699,37.2463114 C109.524488,37.2463114 108.200993,39.0998408 108.200993,41.6242699 C108.200993,43.625827 109.167948,45.8589758 111.440889,45.8589758 C112.721408,45.8589758 113.343761,44.8848581 113.343761,43.6568651 L113.343761,38.8340277 Z M113.413,46.9238201 L113.314315,46.0818131 C113.314315,46.0125744 113.300785,45.8796678 113.206875,45.8796678 C113.054073,45.8796678 112.262204,47.0081799 110.228813,47.0081799 C107.605699,47.0081799 106.432619,44.4065536 106.432619,42.0826782 C106.432619,38.5491142 108.705561,36.4544429 112.193761,36.4544429 C112.590889,36.4544429 112.965734,36.4974187 113.343761,36.5332318 L113.343761,33.7533356 C113.343761,32.8484567 113.343761,31.9857578 112.85909,31.5464498 L114.974453,31.195481 L114.974453,44.2680761 C114.974453,45.1076955 114.974453,46.0523668 115.373173,46.6564152 L113.413,46.9238201 Z" id="Fill-27" fill="#4f62a1"></path>
                    <path d="M121.512104,39.6298754 C122.59764,39.6298754 123.168263,39.6298754 123.168263,38.7910519 C123.168263,37.9737163 122.573765,37.1118131 121.495391,37.1118131 C120.101862,37.1118131 119.505772,38.4536125 119.239958,39.6298754 L121.512104,39.6298754 Z M119.106256,40.2952042 C119.064076,40.7106367 119.018713,41.0719516 119.018713,41.5359308 C119.018713,43.5836471 119.949059,45.5485952 122.242692,45.5485952 C123.321862,45.5485952 124.38591,45.1076955 124.912761,44.5131972 L124.912761,44.7559308 C124.912761,45.9266228 123.055253,47.0081799 121.426152,47.0081799 C118.529266,47.0081799 117.167571,44.4057578 117.167571,41.733301 C117.167571,38.8610865 118.753696,36.4536471 121.779509,36.4536471 C123.896464,36.4536471 125.161066,37.839218 125.161066,39.2797024 C125.161066,40.2952042 124.431273,40.2952042 123.055253,40.2952042 L119.106256,40.2952042 Z" id="Fill-29" fill="#4f62a1"></path>
                    <path d="M127.137394,46.6572907 C127.541685,46.038917 127.541685,45.0862872 127.541685,44.2681557 L127.541685,33.7534152 C127.541685,32.8477405 127.541685,31.9850415 126.966287,31.5473253 L129.184315,31.1955606 L129.184315,44.2681557 C129.184315,45.0862872 129.184315,46.038917 129.575872,46.6572907 L127.137394,46.6572907 Z" id="Fill-31" fill="#4f62a1"></path>
                    <path d="M132.468938,46.6572907 C132.870841,46.038917 132.870841,45.0862872 132.870841,44.2681557 L132.870841,33.7534152 C132.870841,32.8477405 132.870841,31.9850415 132.28828,31.5473253 L134.503125,31.1955606 L134.503125,44.2681557 C134.503125,45.0862872 134.503125,46.038917 134.896273,46.6572907 L132.468938,46.6572907 Z" id="Fill-33" fill="#4f62a1"></path>
                    <path d="M138.409066,37.1968893 C138.302422,36.4137751 137.989654,33.5073391 137.989654,33.0505225 C137.989654,32.655782 138.214879,32.2172699 138.806194,32.2172699 C139.401488,32.2172699 139.620346,32.655782 139.620346,33.0505225 C139.620346,33.5073391 139.335433,36.4137751 139.208893,37.1968893 C139.188201,37.3051246 139.165121,37.731699 138.806194,37.731699 C138.45045,37.731699 138.435329,37.3051246 138.409066,37.1968893" id="Fill-35" fill="#4f62a1"></path>
                    <path d="M144.921965,45.7666574 L147.463107,45.7666574 C148.826394,45.7666574 150.247779,45.4371765 151.282381,44.5131972 L150.890824,46.5370381 C150.289958,46.5855848 149.560166,46.6564152 148.763522,46.6564152 L142.384803,46.6564152 C142.87027,45.899564 142.938713,44.7559308 142.938713,43.7603253 L142.938713,35.4612249 C142.938713,34.4600484 142.938713,33.3140277 142.449266,32.5659308 L150.157052,32.5659308 L150.247779,34.263474 C149.471031,33.6021246 148.280443,33.4509135 146.980824,33.4509135 L144.921965,33.4509135 L144.921965,38.7305675 C146.620304,38.7305675 148.418125,38.7305675 150.115668,38.5682145 C149.3429,39.8280415 146.848713,39.8280415 145.475875,39.8280415 L144.921965,39.8280415 L144.921965,45.7666574 Z" id="Fill-37" fill="#4f62a1"></path>
                    <path d="M160.04928,38.952609 L159.941045,38.952609 C159.411806,37.933128 159.017862,37.2455156 157.734955,37.2455156 C155.765232,37.2455156 154.686062,39.2797024 154.686062,41.7030588 C154.686062,43.9115363 155.501806,45.7666574 157.933917,45.7666574 C158.749661,45.7666574 159.719799,45.4379723 160.342152,44.7734394 L160.342152,45.1275917 C160.342152,46.276 158.79582,47.0081799 157.113398,47.0081799 C154.332706,47.0081799 152.696443,44.7344429 152.696443,42.0595986 C152.696443,38.8785952 154.752118,36.4544429 158.019869,36.4544429 C159.105405,36.4544429 160.04928,36.6717093 160.04928,36.7576609 L160.04928,38.952609 Z" id="Fill-39" fill="#4f62a1"></path>
                    <path d="M166.435481,46.211218 C168.507869,46.211218 169.060983,44.1587266 169.060983,42.3235017 C169.060983,39.7362007 168.267522,37.2459931 165.928526,37.2459931 C163.849772,37.2459931 163.297453,39.3048512 163.297453,41.130526 C163.297453,43.7106644 164.093301,46.211218 166.435481,46.211218 M165.70728,47.0078616 C162.659979,47.0078616 161.443128,44.5128789 161.443128,42.1030519 C161.443128,38.6769273 163.338042,36.4541246 166.658318,36.4541246 C169.700844,36.4541246 170.920083,38.9522907 170.920083,41.3509758 C170.920083,44.773917 169.019599,47.0078616 165.70728,47.0078616" id="Fill-41" fill="#4f62a1"></path>
                    <path d="M174.533073,36.6714706 L174.533073,37.4426471 C174.533073,37.620917 174.517952,37.7967993 174.670754,37.7967993 C174.868125,37.7967993 175.842242,36.4542042 177.562069,36.4542042 C179.21982,36.4542042 180.25681,37.2627855 180.25681,39.324827 L180.25681,44.2678374 C180.25681,45.0867647 180.25681,46.0385986 180.607779,46.6569723 L178.629301,46.6569723 L178.629301,40.5973875 C178.629301,39.1895329 178.429543,37.6360381 176.657986,37.6360381 C174.909509,37.6360381 174.582415,39.2094291 174.582415,40.7111938 L174.582415,44.2678374 C174.582415,45.0867647 174.582415,46.0385986 174.982727,46.6569723 L172.548228,46.6569723 C172.945356,46.0385986 172.945356,45.0867647 172.945356,44.2678374 L172.945356,39.0160381 C172.945356,38.1047924 172.945356,37.2460727 172.489336,36.8027855 L174.533073,36.6714706 Z" id="Fill-43" fill="#4f62a1"></path>
                    <path d="M187.27754,46.211218 C189.361069,46.211218 189.909408,44.1587266 189.909408,42.3235017 C189.909408,39.7362007 189.119131,37.2459931 186.776952,37.2459931 C184.697401,37.2459931 184.148266,39.3048512 184.148266,41.130526 C184.148266,43.7106644 184.942522,46.211218 187.27754,46.211218 M186.559685,47.0078616 C183.508405,47.0078616 182.293941,44.5128789 182.293941,42.1030519 C182.293941,38.6769273 184.194426,36.4541246 187.501969,36.4541246 C190.555637,36.4541246 191.768509,38.9459239 191.768509,41.3509758 C191.768509,44.773917 189.864841,47.0078616 186.559685,47.0078616" id="Fill-45" fill="#4f62a1"></path>
                    <path d="M193.753114,39.0158789 C193.753114,38.1046332 193.753114,37.2459135 193.29391,36.8034221 L195.5191,36.6713114 L195.5191,37.441692 C195.5191,37.6223495 195.5191,37.7966401 195.655986,37.7966401 C195.78173,37.7966401 196.976298,36.454045 198.392111,36.454045 C200.317266,36.454045 200.450173,38.1921765 200.752595,38.1921765 C201.015225,38.1921765 201.927266,36.454045 203.513391,36.454045 C204.996851,36.454045 206.034637,37.2618304 206.034637,39.3254637 L206.034637,44.268474 C206.034637,45.0866055 206.034637,46.0384394 206.387993,46.657609 L204.400761,46.657609 L204.400761,40.5972284 C204.400761,39.1893737 204.201003,37.6366747 202.723114,37.6366747 C200.95474,37.6366747 200.712007,39.1471938 200.712007,40.8264325 L200.712007,44.268474 C200.712007,45.0866055 200.712007,46.0384394 201.111522,46.657609 L198.67782,46.657609 C199.074948,46.0384394 199.074948,45.0866055 199.074948,44.268474 L199.074948,40.5972284 C199.074948,39.1893737 198.882353,37.6366747 197.399689,37.6366747 C195.628131,37.6366747 195.392561,39.1471938 195.392561,40.8264325 L195.392561,44.268474 C195.392561,45.0866055 195.392561,46.0384394 195.78173,46.657609 L193.359965,46.657609 C193.753114,46.0384394 193.753114,45.0866055 193.753114,44.268474 L193.753114,39.0158789 Z" id="Fill-47" fill="#4f62a1"></path>
                    <path d="M210.9369,36.4538858 L210.9369,44.2683149 C210.9369,45.0864464 210.9369,46.0382803 211.339599,46.656654 L208.908284,46.656654 C209.30382,46.0382803 209.30382,45.0864464 209.30382,44.2683149 L209.30382,38.3018443 C209.276761,37.5553391 209.276761,37.1128478 208.818353,36.8024671 L210.9369,36.4538858 Z M210.386969,32.7890069 L211.400083,34.262917 L209.812367,35.3022941 L208.800048,33.8649931 L210.386969,32.7890069 Z" id="Fill-49" fill="#4f62a1"></path>
                    <path d="M217.008422,45.7666574 C218.337488,45.7666574 218.998837,44.5832318 218.998837,43.3202215 L218.998837,41.0830934 L217.805862,41.6895294 C216.171986,42.5004983 215.311675,42.9413979 215.311675,44.2052042 C215.311675,45.2636817 216.013612,45.7666574 217.008422,45.7666574 Z M219.267038,46.7861384 C219.068872,45.9680069 219.092747,45.4180761 218.91209,45.4180761 C218.820567,45.4180761 218.796692,45.4578685 218.772021,45.4849273 C218.206969,46.3197716 217.745377,47.0081799 216.195066,47.0081799 C214.667834,47.0081799 213.457349,46.1677647 213.457349,44.556173 C213.457349,42.6373841 215.946761,41.8375571 217.431813,41.1308443 C218.688457,40.5315709 218.998837,40.4933702 218.998837,39.0576609 C218.998837,37.9506367 218.579426,37.112609 217.276623,37.112609 C215.177972,37.112609 216.041467,39.2255848 214.601779,39.2255848 C214.120291,39.2255848 213.787626,38.989218 213.787626,38.4544083 C213.787626,36.9582145 216.013612,36.4544429 217.719114,36.4544429 C219.283751,36.4544429 220.636692,36.8030242 220.636692,38.2395294 L220.636692,43.0957924 C220.636692,44.4065536 220.568249,45.7475571 221.25427,46.6564152 L219.267038,46.7861384 Z" id="Fill-51" fill="#4f62a1"></path>
                    <path d="M110.891356,66.1873945 C111.976097,66.1873945 112.549107,66.1873945 112.549107,65.3461834 C112.549107,64.5320311 111.955405,63.6733114 110.869073,63.6733114 C109.478727,63.6733114 108.885024,65.0159066 108.616824,66.1873945 L110.891356,66.1873945 Z M108.483917,66.8495398 C108.436962,67.2713391 108.391599,67.6207163 108.391599,68.0799204 C108.391599,70.1371869 109.325924,72.1100934 111.620353,72.1100934 C112.698727,72.1100934 113.762775,71.6644187 114.290422,71.0683287 L114.290422,71.3118581 C114.290422,72.4793668 112.437689,73.5649031 110.804609,73.5649031 C107.912498,73.5649031 106.537273,70.9600934 106.537273,68.2868408 C106.537273,65.4122388 108.132152,63.0040035 111.155578,63.0040035 C113.270941,63.0040035 114.536339,64.3975329 114.536339,65.8332422 C114.536339,66.8495398 113.808934,66.8495398 112.437689,66.8495398 L108.483917,66.8495398 Z" id="Fill-53" fill="#4f62a1"></path>
                    <path d="M128.47418,65.3939343 C128.47418,64.3537612 128.231446,63.8046263 127.102934,63.8046263 C124.64854,63.8046263 123.321066,65.6677059 123.321066,68.1754221 C123.321066,70.1873253 124.295183,72.4125156 126.571308,72.4125156 C127.851827,72.4125156 128.47418,71.4383979 128.47418,70.2072215 L128.47418,65.3939343 Z M128.540235,73.4749723 L128.449509,72.6337612 C128.449509,72.5716851 128.424837,72.4395744 128.337294,72.4395744 C128.186083,72.4395744 127.38546,73.5649031 125.354457,73.5649031 C122.725772,73.5649031 121.556671,70.9592976 121.556671,68.6386055 C121.556671,65.1058374 123.830408,63.0040035 127.326567,63.0040035 C127.721308,63.0040035 128.095356,63.0493668 128.47418,63.0931384 L128.47418,60.3124464 C128.47418,59.4043841 128.47418,58.5448685 127.986325,58.0976021 L130.104076,57.7474291 L130.104076,70.8319619 C130.104076,71.6644187 130.104076,72.6146609 130.502796,73.2123426 L128.540235,73.4749723 Z" id="Fill-55" fill="#4f62a1"></path>
                    <path d="M136.641727,66.1873945 C137.72408,66.1873945 138.302661,66.1873945 138.302661,65.3461834 C138.302661,64.5320311 137.703388,63.6733114 136.618647,63.6733114 C135.230689,63.6733114 134.632211,65.0159066 134.368785,66.1873945 L136.641727,66.1873945 Z M134.237471,66.8495398 C134.192903,67.2713391 134.145152,67.6207163 134.145152,68.0799204 C134.145152,70.1371869 135.071519,72.1100934 137.373111,72.1100934 C138.449893,72.1100934 139.512349,71.6644187 140.047955,71.0683287 L140.047955,71.3118581 C140.047955,72.4793668 138.18408,73.5649031 136.559754,73.5649031 C133.659685,73.5649031 132.288439,70.9600934 132.288439,68.2868408 C132.288439,65.4122388 133.884114,63.0040035 136.90754,63.0040035 C139.030862,63.0040035 140.289893,64.3975329 140.289893,65.8332422 C140.289893,66.8495398 139.558509,66.8495398 138.18408,66.8495398 L134.237471,66.8495398 Z" id="Fill-57" fill="#4f62a1"></path>
                    <path d="M142.273304,73.2125017 C142.676003,72.5885571 142.676003,71.6454775 142.676003,70.832917 L142.676003,60.3134014 C142.676003,59.4037474 142.676003,58.5442318 142.095035,58.0977612 L144.308287,57.7467924 L144.308287,70.832917 C144.308287,71.6454775 144.308287,72.5885571 144.704619,73.2125017 L142.273304,73.2125017 Z" id="Fill-59" fill="#4f62a1"></path>
                    <path d="M147.597048,73.2125017 C147.986218,72.5885571 147.986218,71.6454775 147.986218,70.832917 L147.986218,60.3134014 C147.986218,59.4037474 147.986218,58.5442318 147.422758,58.0977612 L149.624869,57.7467924 L149.624869,70.8265502 C149.624869,71.6454775 149.624869,72.5885571 150.024384,73.2125017 L147.597048,73.2125017 Z" id="Fill-61" fill="#4f62a1"></path>
                    <path d="M156.697249,66.1873945 C157.77801,66.1873945 158.349429,66.1873945 158.349429,65.3461834 C158.349429,64.5320311 157.753339,63.6733114 156.672578,63.6733114 C155.28064,63.6733114 154.685346,65.0159066 154.421125,66.1873945 L156.697249,66.1873945 Z M154.290606,66.8495398 C154.242855,67.2713391 154.195104,67.6207163 154.195104,68.0799204 C154.195104,70.1371869 155.126246,72.1100934 157.428633,72.1100934 C158.505415,72.1100934 159.56628,71.6644187 160.096315,71.0683287 L160.096315,71.3118581 C160.096315,72.4793668 158.246765,73.5649031 156.606522,73.5649031 C153.715208,73.5649031 152.344758,70.9600934 152.344758,68.2868408 C152.344758,65.4122388 153.936453,63.0040035 156.961471,63.0040035 C159.083201,63.0040035 160.342232,64.3975329 160.342232,65.8332422 C160.342232,66.8495398 159.610052,66.8495398 158.246765,66.8495398 L154.290606,66.8495398 Z" id="Fill-63" fill="#4f62a1"></path>
                    <path d="M170.171509,70.3182422 C170.171509,71.3122561 170.171509,72.4598685 170.655384,73.2127405 L167.690851,73.2127405 C168.181889,72.4598685 168.181889,71.3122561 168.181889,70.3182422 L168.181889,62.0151626 C168.181889,61.0211488 168.226457,59.8687612 167.735419,59.1190727 L174.582097,59.1190727 C175.138394,59.1190727 175.601578,59.1190727 175.601578,59.3220138 L175.601578,61.0370657 L175.490159,61.0370657 C174.867806,60.0279308 173.479848,60.0024637 172.438879,60.0024637 L170.171509,60.0024637 L170.171509,65.6760623 C171.865869,65.6760623 173.65573,65.6760623 175.35964,65.5272388 C174.582097,66.7846782 172.090298,66.7846782 170.715869,66.7846782 L170.171509,66.7846782 L170.171509,70.3182422 Z" id="Fill-65" fill="#4f62a1"></path>
                    <path d="M179.884114,63.0047993 L179.884114,70.8255952 C179.884114,71.6453183 179.884114,72.5883979 180.282038,73.2123426 L177.856294,73.2123426 C178.247851,72.5883979 178.247851,71.6453183 178.247851,70.8255952 L178.247851,64.8631038 C178.229547,64.1134152 178.229547,63.6741073 177.765567,63.3605433 L179.884114,63.0047993 Z M179.330204,59.3383287 L180.343318,60.8186055 L178.760377,61.8611661 L177.741692,60.4270484 L179.330204,59.3383287 Z" id="Fill-67" fill="#4f62a1"></path>
                    <path d="M184.7859,63.2262837 L184.7859,63.9958685 C184.7859,64.1828927 184.767595,64.354 184.928356,64.354 C185.118564,64.354 186.087111,63.0050381 187.813304,63.0050381 C189.475035,63.0050381 190.505657,63.8247612 190.505657,65.8764567 L190.505657,70.8258339 C190.505657,71.6455571 190.505657,72.5886367 190.862993,73.2125813 L188.875761,73.2125813 L188.875761,67.1593633 C188.875761,65.7435502 188.673616,64.1964221 186.913201,64.1964221 C185.167907,64.1964221 184.832059,65.770609 184.832059,67.270782 L184.832059,70.8258339 C184.832059,71.6455571 184.832059,72.5886367 185.230779,73.2125813 L182.805035,73.2125813 C183.198183,72.5886367 183.198183,71.6455571 183.198183,70.8258339 L183.198183,65.5708512 C183.198183,64.667564 183.198183,63.8048651 182.736592,63.360782 L184.7859,63.2262837 Z" id="Fill-69" fill="#4f62a1"></path>
                    <path d="M196.186498,72.3287924 C197.505218,72.3287924 198.171343,71.1302457 198.171343,69.8775813 L198.171343,67.6412491 L196.976775,68.2397266 C195.348471,69.0602457 194.482588,69.4995536 194.482588,70.7609723 C194.482588,71.8178581 195.196464,72.3287924 196.186498,72.3287924 Z M198.437952,73.3411107 C198.235806,72.5325294 198.258886,71.9794152 198.086983,71.9794152 C197.999439,71.9794152 197.972381,72.0184118 197.954076,72.0438789 C197.377882,72.8834983 196.914699,73.5599689 195.365979,73.5599689 C193.844318,73.5599689 192.625875,72.7259204 192.625875,71.1095536 C192.625875,69.1931522 195.121654,68.3973045 196.60591,67.6953668 C197.863349,67.0937059 198.171343,67.0499343 198.171343,65.6150208 C198.171343,64.5079965 197.754318,63.6739481 196.449128,63.6739481 C194.352069,63.6739481 195.213972,65.7869239 193.775875,65.7869239 C193.293592,65.7869239 192.95854,65.5473737 192.95854,65.0157474 C192.95854,63.5147785 195.196464,63.0046401 196.895599,63.0046401 C198.460235,63.0046401 199.803626,63.3603841 199.803626,64.7937059 L199.803626,69.6555398 C199.803626,70.9591384 199.737571,72.3065087 200.426775,73.2121834 L198.437952,73.3411107 Z" id="Fill-71" fill="#4f62a1"></path>
                    <path d="M204.002042,63.2262837 L204.002042,63.9958685 C204.002042,64.1828927 203.975779,64.354 204.13654,64.354 C204.336298,64.354 205.304844,63.0050381 207.02308,63.0050381 C208.684014,63.0050381 209.724983,63.8247612 209.724983,65.8764567 L209.724983,70.8258339 C209.724983,71.6455571 209.724983,72.5886367 210.076747,73.2125813 L208.087924,73.2125813 L208.087924,67.1593633 C208.087924,65.7435502 207.889758,64.1964221 206.117405,64.1964221 C204.380069,64.1964221 204.04263,65.770609 204.04263,67.270782 L204.04263,70.8258339 C204.04263,71.6455571 204.04263,72.5886367 204.449308,73.2125813 L202.014014,73.2125813 C202.414325,72.5886367 202.414325,71.6455571 202.414325,70.8258339 L202.414325,65.5708512 C202.414325,64.667564 202.414325,63.8048651 201.940796,63.360782 L204.002042,63.2262837 Z" id="Fill-73" fill="#4f62a1"></path>
                    <path d="M220.189426,63.360782 L213.788422,72.153308 C213.740671,72.2153841 213.676208,72.2822353 213.676208,72.393654 C213.676208,72.5042768 213.766138,72.5042768 213.941225,72.5042768 L216.830152,72.5042768 C218.314408,72.5042768 219.727038,72.1254533 220.569045,71.2866298 L220.237176,73.2133772 L211.154166,73.2133772 L217.543232,64.5075986 C217.629183,64.3754879 217.719114,64.2409896 217.719114,64.1574256 C217.719114,64.0674948 217.565516,64.0674948 217.367349,64.0674948 L214.866,64.0674948 C213.719979,64.0674948 212.967903,64.4200554 212.147384,65.059917 L212.42036,63.360782 L220.189426,63.360782 Z" id="Fill-75" fill="#4f62a1"></path>
                    <path d="M226.197917,66.1873945 C227.281066,66.1873945 227.852484,66.1873945 227.852484,65.3461834 C227.852484,64.5320311 227.26117,63.6733114 226.177225,63.6733114 C224.783696,63.6733114 224.193972,65.0159066 223.92418,66.1873945 L226.197917,66.1873945 Z M223.793661,66.8495398 C223.742727,67.2713391 223.700547,67.6207163 223.700547,68.0799204 C223.700547,70.1371869 224.624526,72.1100934 226.926118,72.1100934 C228.007675,72.1100934 229.069336,71.6644187 229.600962,71.0683287 L229.600962,71.3118581 C229.600962,72.4793668 227.746637,73.5593322 226.108782,73.5593322 C223.216671,73.5593322 221.851792,70.9600934 221.851792,68.2868408 C221.851792,65.4122388 223.441896,63.0040035 226.458955,63.0040035 C228.582277,63.0040035 229.841308,64.3975329 229.841308,65.8332422 C229.841308,66.8495398 229.113107,66.8495398 227.746637,66.8495398 L223.793661,66.8495398 Z" id="Fill-77" fill="#4f62a1"></path>
                </g>
            </g>
        </g>
    </g>
</svg>