<?xml version="1.0" encoding="UTF-8"?>
<svg width="40px" height="36px" viewBox="0 0 40 36" version="1.1" xmlns="http://www.w3.org/2000/svg" xmlns:xlink="http://www.w3.org/1999/xlink">
    <!-- Generator: sketchtool 52.5 (67469) - http://www.bohemiancoding.com/sketch -->
    <title>9C4FDAA8-E601-417F-9032-795059429FE4</title>
    <desc>Created with sketchtool.</desc>
    <g id="Page-1" stroke="none" stroke-width="1" fill="none" fill-rule="evenodd">
        <g id="Homepage_1.0" transform="translate(-113.000000, -6.000000)">
            <g id="Header">
                <g id="MEF-logo_white-copia" transform="translate(113.000000, 6.000000)">
                    <path d="M18.9888308,24.3039163 L21.3492235,24.3039163 C22.6174942,24.3039163 23.9209946,23.9873674 24.9074274,23.1432372 L24.55513,25.0425302 C23.9914541,25.0777023 23.322089,25.1480465 22.5822644,25.1480465 L16.6636678,25.1480465 C17.1216545,24.4446047 17.1921139,23.3894419 17.1921139,22.4749674 L17.1921139,14.737107 C17.1921139,13.8226326 17.1921139,12.7674698 16.7341273,12.0640279 L23.8857649,12.0640279 L23.9562244,13.6467721 C23.2516295,13.0488465 22.1242778,12.872986 20.9264666,12.872986 L19.0240605,12.872986 L19.0240605,17.761907 C20.6093989,17.761907 22.2651967,17.761907 23.8505351,17.6212186 C23.1459403,18.7818977 20.8207773,18.7818977 19.5525066,18.7818977 L19.0240605,18.7818977 L19.0240605,24.3039163 L18.9888308,24.3039163 Z" id="Shape" fill="#FFFFFF"></path>
                    <path d="M28.782699,22.4397953 C28.782699,23.3542698 28.782699,24.4094326 29.2406856,25.1128744 L26.4927658,25.1128744 C26.9507524,24.4094326 26.9507524,23.3542698 26.9507524,22.4397953 L26.9507524,14.737107 C26.9507524,13.8226326 26.9859821,12.7674698 26.5279955,12.0640279 L32.869349,12.0640279 C33.3977951,12.0640279 33.820552,12.0640279 33.820552,12.2398884 L33.820552,13.8226326 L33.7148628,13.8226326 C33.1511869,12.872986 31.8476865,12.872986 30.8964835,12.872986 L28.782699,12.872986 L28.782699,18.1488 C30.3680373,18.1488 32.0238352,18.1488 33.6091736,18.0081116 C32.9045787,19.1687907 30.5794158,19.1687907 29.3111451,19.1687907 L28.782699,19.1687907 L28.782699,22.4397953 Z" id="Shape" fill="#FFFFFF"></path>
                    <path d="M7.22209705,10.9033488 C7.15163756,11.0440372 7.22209705,11.2198977 7.36301601,11.2902419 C7.50393498,11.360586 7.68008369,11.2902419 7.75054317,11.1495535 C7.78577291,11.0792093 11.9781122,2.91928372 22.1595075,2.91928372 C32.7988895,2.91928372 37.096918,11.6419628 37.4492154,17.4805302 C37.6253641,20.6460186 36.5684719,24.5501209 34.5603766,27.6804372 C32.8341193,30.3535163 29.733902,33.7300372 24.6255894,34.4334791 C24.4494407,34.4686512 24.3437515,34.6093395 24.3789813,34.7852 C24.414211,34.9610605 24.55513,35.0665767 24.6960489,35.0665767 C33.1511869,34.046586 39.5982297,26.5901023 39.5982297,17.761907 C39.5982297,8.15992558 32.0238352,0.35172093 22.7584131,0.316548837 L22.6527239,0.316548837 C15.9238432,0.316548837 9.89955742,4.46685581 7.22209705,10.9033488 Z" id="Shape" fill="#BA8E37"></path>
                    <path d="M6.62319144,25.3590791 C8.87789491,30.5645488 13.8100587,34.3631349 19.7638851,35.0665767 C19.9048041,35.1017488 20.045723,34.9610605 20.0809528,34.8203721 C20.1161825,34.6796837 19.9752635,34.5038233 19.8343446,34.5038233 C14.866951,33.8355535 11.5553553,30.8810977 9.86432767,28.348707 C8.80743542,26.7659628 8.03238111,25.0073581 7.53916472,23.2487535 L11.2382876,14.5612465 C11.3087471,14.385386 11.3439768,14.2446977 11.5201255,14.2446977 C11.6610445,14.2446977 11.6610445,14.4909023 11.6610445,14.7019349 L11.6610445,21.4549767 C11.6610445,22.6156558 11.6610445,24.1280558 11.3087471,25.1480465 L14.3385049,25.1480465 C13.8805182,24.3390884 13.8100587,23.3894419 13.7043695,22.4749674 C13.4225316,20.0129209 13.5282208,17.4453581 13.5282208,15.0184837 C13.5282208,13.998493 13.4577613,12.872986 13.9509777,12.0992 L11.872423,12.0992 C11.3439768,12.0992 11.2030579,12.5212651 11.0269091,12.9433302 L7.39824576,21.4549767 C7.29255653,21.7363535 7.22209705,21.947386 7.04594834,21.947386 C6.86979963,21.947386 6.83456989,21.5956651 6.72888066,21.2791163 L3.8048121,12.3454047 C3.73435262,12.0640279 3.41728494,12.0288558 3.17067675,12.0288558 L0.493216384,12.0288558 C0.986432767,12.3454047 1.02166251,12.6267814 1.02166251,13.1895349 L1.02166251,18.3246605 C1.02166251,20.5405023 0.951203026,23.7763349 0.176148708,24.8666698 L0,25.1128744 L2.43085218,25.1128744 C1.97286553,24.4446047 1.97286553,23.1080651 1.97286553,21.5253209 L2.00809528,14.8777953 C2.00809528,14.5612465 2.00809528,14.2095256 2.18424398,14.2095256 C2.36039269,14.2095256 2.50131166,14.7019349 2.74791985,15.2998605 L6.62319144,25.3590791 Z" id="Shape" fill="#FFFFFF"></path>
                </g>
            </g>
        </g>
    </g>
</svg>