<?xml version="1.0" encoding="UTF-8"?>
<svg width="28px" height="70px" viewBox="0 0 28 70" version="1.1" xmlns="http://www.w3.org/2000/svg" xmlns:xlink="http://www.w3.org/1999/xlink">
    <!-- Generator: Sketch 53 (72520) - https://sketchapp.com -->
    <title>Uomo</title>
    <desc>Created with Sketch.</desc>
    <defs>
        <polygon id="path-1" points="0 15.9338 27.1685 15.9338 27.1685 69.0484502 0 69.0484502"></polygon>
    </defs>
    <g id="Page-1" stroke="none" stroke-width="1" fill="none" fill-rule="evenodd">
        <g id="Amministrazioni_1.0" transform="translate(-765.000000, -1066.000000)">
            <g id="Group-15" transform="translate(113.000000, 1064.000000)">
                <g id="Group-16" transform="translate(652.000000, 1.000000)">
                    <g id="Group-8">
                        <g id="Uomo" transform="translate(0.000000, 1.000000)">
                            <mask id="mask-2" fill="white">
                                <use xlink:href="#path-1"></use>
                            </mask>
                            <g id="Clip-2"></g>
                            <path d="M19.1865,15.9338 L7.9825,15.9338 C3.5735,15.9338 -0.0005,19.5078 -0.0005,23.9158 L-0.0005,35.3658 C-0.0005,38.3068 1.5905,40.8738 3.9575,42.2588 C4.3795,42.5058 4.9135,42.2068 4.9135,41.7168 L4.9135,24.6238 C4.9135,24.3478 5.1375,24.1228 5.4145,24.1228 C5.6905,24.1228 5.9155,24.3478 5.9155,24.6238 L5.9155,65.2888 C5.9155,67.2648 7.4375,68.9878 9.4125,69.0468 C11.4565,69.1078 13.1315,67.4698 13.1315,65.4398 L13.1315,44.8068 C13.1315,44.5308 13.3555,44.3068 13.6325,44.3068 C13.9095,44.3068 14.1335,44.5308 14.1335,44.8068 L14.1335,65.2888 C14.1335,67.2648 15.6565,68.9878 17.6315,69.0468 C19.6745,69.1078 21.3505,67.4698 21.3505,65.4398 L21.3505,24.6238 C21.3505,24.3478 21.5745,24.1228 21.8515,24.1228 C22.1285,24.1228 22.3525,24.3478 22.3525,24.6238 L22.3525,41.6578 C22.3525,42.1508 22.8935,42.4518 23.3145,42.1958 C25.6235,40.7978 27.1685,38.2638 27.1685,35.3658 L27.1685,23.9158 C27.1685,19.5078 23.5945,15.9338 19.1865,15.9338" id="Fill-1" fill="#337AB7" mask="url(#mask-2)"></path>
                            <path d="M20.6977,7.1306 C20.6977,11.0366 17.5307,14.2036 13.6247,14.2036 C9.7187,14.2036 6.5517,11.0366 6.5517,7.1306 C6.5517,3.2246 9.7187,0.0576 13.6247,0.0576 C17.5307,0.0576 20.6977,3.2246 20.6977,7.1306" id="Fill-4" fill="#337AB7"></path>
                        </g>
                    </g>
                </g>
            </g>
        </g>
    </g>
</svg>