<?xml version="1.0" encoding="UTF-8"?>
<svg width="28px" height="69px" viewBox="0 0 28 69" version="1.1" xmlns="http://www.w3.org/2000/svg" xmlns:xlink="http://www.w3.org/1999/xlink">
    <!-- Generator: Sketch 53 (72520) - https://sketchapp.com -->
    <title>Group 7</title>
    <desc>Created with Sketch.</desc>
    <g id="Page-1" stroke="none" stroke-width="1" fill="none" fill-rule="evenodd">
        <g id="Amministrazioni_1.0" transform="translate(-999.000000, -1400.000000)" fill="#E8F4FF">
            <g id="Group-15" transform="translate(113.000000, 1064.000000)">
                <g id="Group-16" transform="translate(652.000000, 1.000000)">
                    <g id="Group-12" transform="translate(0.000000, 334.000000)">
                        <g id="Group-7" transform="translate(234.000000, 1.000000)">
                            <g id="Group-4">
                                <path d="M19.7871,15.8758 L8.5831,15.8758 C4.1751,15.8758 0.6011,19.4498 0.6011,23.8578 L0.6011,35.3078 C0.6011,38.2488 2.1911,40.8158 4.5581,42.2008 C4.9811,42.4478 5.5141,42.1488 5.5141,41.6588 L5.5141,24.5658 C5.5141,24.2898 5.7381,24.0648 6.0151,24.0648 C6.2911,24.0648 6.5161,24.2898 6.5161,24.5658 L6.5161,65.2308 C6.5161,67.2068 8.0381,68.9298 10.0131,68.9888 C12.0571,69.0498 13.7331,67.4118 13.7331,65.3818 L13.7331,44.7488 C13.7331,44.4728 13.9571,44.2488 14.2341,44.2488 C14.5101,44.2488 14.7351,44.4728 14.7351,44.7488 L14.7351,65.2308 C14.7351,67.2068 16.2571,68.9298 18.2321,68.9888 C20.2761,69.0498 21.9521,67.4118 21.9521,65.3818 L21.9521,24.5658 C21.9521,24.2898 22.1761,24.0648 22.4531,24.0648 C22.7291,24.0648 22.9541,24.2898 22.9541,24.5658 L22.9541,41.5998 C22.9541,42.0928 23.4941,42.3938 23.9151,42.1378 C26.2251,40.7398 27.7691,38.2058 27.7691,35.3078 L27.7691,23.8578 C27.7691,19.4498 24.1961,15.8758 19.7871,15.8758" id="Fill-7"></path>
                                <path d="M21.2988,7.0726 C21.2988,10.9786 18.1318,14.1456 14.2258,14.1456 C10.3198,14.1456 7.1528,10.9786 7.1528,7.0726 C7.1528,3.1666 10.3198,-0.0004 14.2258,-0.0004 C18.1318,-0.0004 21.2988,3.1666 21.2988,7.0726" id="Fill-9"></path>
                            </g>
                        </g>
                    </g>
                </g>
            </g>
        </g>
    </g>
</svg>